M48
; DRILL file {KiCad (6.0.7)} date Wed Aug 10 04:42:45 2022
; FORMAT={-:-/ absolute / metric / decimal}
; #@! TF.CreationDate,2022-08-10T04:42:45-07:00
; #@! TF.GenerationSoftware,Kicad,Pcbnew,(6.0.7)
; #@! TF.FileFunction,Plated,1,2,PTH
FMAT,2
METRIC
; #@! TA.AperFunction,Plated,PTH,ViaDrill
T1C0.400
; #@! TA.AperFunction,Plated,PTH,ComponentDrill
T2C0.800
; #@! TA.AperFunction,Plated,PTH,ViaDrill
T3C1.000
; #@! TA.AperFunction,Plated,PTH,ComponentDrill
T4C1.000
; #@! TA.AperFunction,Plated,PTH,ComponentDrill
T5C1.520
%
G90
G05
T1
X111.76Y-90.17
X118.11Y-83.82
T2
X102.87Y-105.4
X102.87Y-118.1
X105.41Y-105.4
X105.41Y-118.1
X107.95Y-105.4
X107.95Y-118.1
X110.49Y-105.4
X110.49Y-118.1
X113.03Y-105.4
X113.03Y-118.1
X115.57Y-105.4
X115.57Y-118.1
X118.11Y-105.4
X118.11Y-118.1
X120.65Y-105.4
X120.65Y-118.1
X125.73Y-105.4
X125.73Y-118.1
X128.27Y-105.4
X128.27Y-118.1
X130.81Y-105.4
X130.81Y-118.1
X133.35Y-105.4
X133.35Y-118.1
X135.89Y-105.4
X135.89Y-118.1
X138.43Y-105.4
X138.43Y-118.1
X140.97Y-105.4
X140.97Y-118.1
X143.51Y-105.4
X143.51Y-118.1
T3
X104.14Y-121.92
X105.41Y-86.36
X113.03Y-83.82
X120.65Y-121.92
X143.51Y-121.92
T4
X113.03Y-81.28
X113.03Y-96.52
X115.57Y-81.28
X115.57Y-96.52
X118.11Y-81.28
X118.11Y-96.52
X120.65Y-81.28
X120.65Y-96.52
X123.19Y-81.28
X123.19Y-96.52
X125.73Y-81.28
X125.73Y-96.52
X128.27Y-81.28
X128.27Y-96.52
X130.81Y-81.28
X130.81Y-96.52
X133.35Y-81.28
X133.35Y-96.52
X135.89Y-81.28
X135.89Y-96.52
X138.43Y-81.28
X138.43Y-96.52
X140.97Y-81.28
X140.97Y-96.52
X143.51Y-81.28
X143.51Y-96.52
X146.05Y-81.28
X146.05Y-96.52
X148.59Y-81.28
X148.59Y-96.52
T5
X96.52Y-78.74
X96.52Y-83.82
X96.52Y-91.44
X96.52Y-96.52
X104.14Y-129.54
X109.22Y-129.54
X111.76Y-71.12
X114.3Y-129.54
X116.84Y-71.12
X119.38Y-129.54
X121.92Y-71.12
X127.0Y-71.12
X127.0Y-129.54
X132.08Y-129.54
X134.62Y-71.12
X137.16Y-129.54
X139.7Y-71.12
X142.24Y-129.54
T0
M30
