%TF.GenerationSoftware,KiCad,Pcbnew,(6.0.7)*%
%TF.CreationDate,2022-08-10T04:42:46-07:00*%
%TF.ProjectId,pulse-pcb,70756c73-652d-4706-9362-2e6b69636164,rev?*%
%TF.SameCoordinates,Original*%
%TF.FileFunction,Drillmap*%
%TF.FilePolarity,Positive*%
%FSLAX45Y45*%
G04 Gerber Fmt 4.5, Leading zero omitted, Abs format (unit mm)*
G04 Created by KiCad (PCBNEW (6.0.7)) date 2022-08-10 04:42:46*
%MOMM*%
%LPD*%
G01*
G04 APERTURE LIST*
%ADD10C,0.100000*%
%ADD11C,0.200000*%
%ADD12C,0.300000*%
G04 APERTURE END LIST*
D10*
X15494000Y-13462000D02*
X9144000Y-13462000D01*
X9144000Y-13462000D02*
X9144000Y-6604000D01*
X9144000Y-6604000D02*
X15494000Y-6604000D01*
X15494000Y-6604000D02*
X15494000Y-13462000D01*
D11*
D12*
X9375000Y-6835000D02*
X9675000Y-7135000D01*
X9675000Y-6835000D02*
X9375000Y-7135000D01*
X9375000Y-12931000D02*
X9675000Y-13231000D01*
X9675000Y-12931000D02*
X9375000Y-13231000D01*
X14963000Y-6835000D02*
X15263000Y-7135000D01*
X15263000Y-6835000D02*
X14963000Y-7135000D01*
X14963000Y-12931000D02*
X15263000Y-13231000D01*
X15263000Y-12931000D02*
X14963000Y-13231000D01*
D11*
X9396619Y-13777476D02*
X9396619Y-13577476D01*
X9444238Y-13577476D01*
X9472810Y-13587000D01*
X9491857Y-13606048D01*
X9501381Y-13625095D01*
X9510905Y-13663190D01*
X9510905Y-13691762D01*
X9501381Y-13729857D01*
X9491857Y-13748905D01*
X9472810Y-13767952D01*
X9444238Y-13777476D01*
X9396619Y-13777476D01*
X9596619Y-13777476D02*
X9596619Y-13644143D01*
X9596619Y-13682238D02*
X9606143Y-13663190D01*
X9615667Y-13653667D01*
X9634714Y-13644143D01*
X9653762Y-13644143D01*
X9720429Y-13777476D02*
X9720429Y-13644143D01*
X9720429Y-13577476D02*
X9710905Y-13587000D01*
X9720429Y-13596524D01*
X9729952Y-13587000D01*
X9720429Y-13577476D01*
X9720429Y-13596524D01*
X9844238Y-13777476D02*
X9825190Y-13767952D01*
X9815667Y-13748905D01*
X9815667Y-13577476D01*
X9949000Y-13777476D02*
X9929952Y-13767952D01*
X9920429Y-13748905D01*
X9920429Y-13577476D01*
X10177571Y-13777476D02*
X10177571Y-13577476D01*
X10244238Y-13720333D01*
X10310905Y-13577476D01*
X10310905Y-13777476D01*
X10491857Y-13777476D02*
X10491857Y-13672714D01*
X10482333Y-13653667D01*
X10463286Y-13644143D01*
X10425190Y-13644143D01*
X10406143Y-13653667D01*
X10491857Y-13767952D02*
X10472810Y-13777476D01*
X10425190Y-13777476D01*
X10406143Y-13767952D01*
X10396619Y-13748905D01*
X10396619Y-13729857D01*
X10406143Y-13710809D01*
X10425190Y-13701286D01*
X10472810Y-13701286D01*
X10491857Y-13691762D01*
X10587095Y-13644143D02*
X10587095Y-13844143D01*
X10587095Y-13653667D02*
X10606143Y-13644143D01*
X10644238Y-13644143D01*
X10663286Y-13653667D01*
X10672810Y-13663190D01*
X10682333Y-13682238D01*
X10682333Y-13739381D01*
X10672810Y-13758428D01*
X10663286Y-13767952D01*
X10644238Y-13777476D01*
X10606143Y-13777476D01*
X10587095Y-13767952D01*
X10768048Y-13758428D02*
X10777571Y-13767952D01*
X10768048Y-13777476D01*
X10758524Y-13767952D01*
X10768048Y-13758428D01*
X10768048Y-13777476D01*
X10768048Y-13653667D02*
X10777571Y-13663190D01*
X10768048Y-13672714D01*
X10758524Y-13663190D01*
X10768048Y-13653667D01*
X10768048Y-13672714D01*
X8939000Y-14007000D02*
X9139000Y-14207000D01*
X9139000Y-14007000D02*
X8939000Y-14207000D01*
X9377571Y-13997476D02*
X9501381Y-13997476D01*
X9434714Y-14073667D01*
X9463286Y-14073667D01*
X9482333Y-14083190D01*
X9491857Y-14092714D01*
X9501381Y-14111762D01*
X9501381Y-14159381D01*
X9491857Y-14178428D01*
X9482333Y-14187952D01*
X9463286Y-14197476D01*
X9406143Y-14197476D01*
X9387095Y-14187952D01*
X9377571Y-14178428D01*
X9587095Y-14178428D02*
X9596619Y-14187952D01*
X9587095Y-14197476D01*
X9577571Y-14187952D01*
X9587095Y-14178428D01*
X9587095Y-14197476D01*
X9720429Y-13997476D02*
X9739476Y-13997476D01*
X9758524Y-14007000D01*
X9768048Y-14016524D01*
X9777571Y-14035571D01*
X9787095Y-14073667D01*
X9787095Y-14121286D01*
X9777571Y-14159381D01*
X9768048Y-14178428D01*
X9758524Y-14187952D01*
X9739476Y-14197476D01*
X9720429Y-14197476D01*
X9701381Y-14187952D01*
X9691857Y-14178428D01*
X9682333Y-14159381D01*
X9672810Y-14121286D01*
X9672810Y-14073667D01*
X9682333Y-14035571D01*
X9691857Y-14016524D01*
X9701381Y-14007000D01*
X9720429Y-13997476D01*
X9910905Y-13997476D02*
X9929952Y-13997476D01*
X9949000Y-14007000D01*
X9958524Y-14016524D01*
X9968048Y-14035571D01*
X9977571Y-14073667D01*
X9977571Y-14121286D01*
X9968048Y-14159381D01*
X9958524Y-14178428D01*
X9949000Y-14187952D01*
X9929952Y-14197476D01*
X9910905Y-14197476D01*
X9891857Y-14187952D01*
X9882333Y-14178428D01*
X9872810Y-14159381D01*
X9863286Y-14121286D01*
X9863286Y-14073667D01*
X9872810Y-14035571D01*
X9882333Y-14016524D01*
X9891857Y-14007000D01*
X9910905Y-13997476D01*
X10101381Y-13997476D02*
X10120429Y-13997476D01*
X10139476Y-14007000D01*
X10149000Y-14016524D01*
X10158524Y-14035571D01*
X10168048Y-14073667D01*
X10168048Y-14121286D01*
X10158524Y-14159381D01*
X10149000Y-14178428D01*
X10139476Y-14187952D01*
X10120429Y-14197476D01*
X10101381Y-14197476D01*
X10082333Y-14187952D01*
X10072810Y-14178428D01*
X10063286Y-14159381D01*
X10053762Y-14121286D01*
X10053762Y-14073667D01*
X10063286Y-14035571D01*
X10072810Y-14016524D01*
X10082333Y-14007000D01*
X10101381Y-13997476D01*
X10253762Y-14197476D02*
X10253762Y-14064143D01*
X10253762Y-14083190D02*
X10263286Y-14073667D01*
X10282333Y-14064143D01*
X10310905Y-14064143D01*
X10329952Y-14073667D01*
X10339476Y-14092714D01*
X10339476Y-14197476D01*
X10339476Y-14092714D02*
X10349000Y-14073667D01*
X10368048Y-14064143D01*
X10396619Y-14064143D01*
X10415667Y-14073667D01*
X10425190Y-14092714D01*
X10425190Y-14197476D01*
X10520429Y-14197476D02*
X10520429Y-14064143D01*
X10520429Y-14083190D02*
X10529952Y-14073667D01*
X10549000Y-14064143D01*
X10577571Y-14064143D01*
X10596619Y-14073667D01*
X10606143Y-14092714D01*
X10606143Y-14197476D01*
X10606143Y-14092714D02*
X10615667Y-14073667D01*
X10634714Y-14064143D01*
X10663286Y-14064143D01*
X10682333Y-14073667D01*
X10691857Y-14092714D01*
X10691857Y-14197476D01*
X11082333Y-13987952D02*
X10910905Y-14245095D01*
X11339476Y-13997476D02*
X11358524Y-13997476D01*
X11377571Y-14007000D01*
X11387095Y-14016524D01*
X11396619Y-14035571D01*
X11406143Y-14073667D01*
X11406143Y-14121286D01*
X11396619Y-14159381D01*
X11387095Y-14178428D01*
X11377571Y-14187952D01*
X11358524Y-14197476D01*
X11339476Y-14197476D01*
X11320428Y-14187952D01*
X11310905Y-14178428D01*
X11301381Y-14159381D01*
X11291857Y-14121286D01*
X11291857Y-14073667D01*
X11301381Y-14035571D01*
X11310905Y-14016524D01*
X11320428Y-14007000D01*
X11339476Y-13997476D01*
X11491857Y-14178428D02*
X11501381Y-14187952D01*
X11491857Y-14197476D01*
X11482333Y-14187952D01*
X11491857Y-14178428D01*
X11491857Y-14197476D01*
X11691857Y-14197476D02*
X11577571Y-14197476D01*
X11634714Y-14197476D02*
X11634714Y-13997476D01*
X11615667Y-14026048D01*
X11596619Y-14045095D01*
X11577571Y-14054619D01*
X11882333Y-14197476D02*
X11768048Y-14197476D01*
X11825190Y-14197476D02*
X11825190Y-13997476D01*
X11806143Y-14026048D01*
X11787095Y-14045095D01*
X11768048Y-14054619D01*
X11996619Y-14083190D02*
X11977571Y-14073667D01*
X11968048Y-14064143D01*
X11958524Y-14045095D01*
X11958524Y-14035571D01*
X11968048Y-14016524D01*
X11977571Y-14007000D01*
X11996619Y-13997476D01*
X12034714Y-13997476D01*
X12053762Y-14007000D01*
X12063286Y-14016524D01*
X12072809Y-14035571D01*
X12072809Y-14045095D01*
X12063286Y-14064143D01*
X12053762Y-14073667D01*
X12034714Y-14083190D01*
X11996619Y-14083190D01*
X11977571Y-14092714D01*
X11968048Y-14102238D01*
X11958524Y-14121286D01*
X11958524Y-14159381D01*
X11968048Y-14178428D01*
X11977571Y-14187952D01*
X11996619Y-14197476D01*
X12034714Y-14197476D01*
X12053762Y-14187952D01*
X12063286Y-14178428D01*
X12072809Y-14159381D01*
X12072809Y-14121286D01*
X12063286Y-14102238D01*
X12053762Y-14092714D01*
X12034714Y-14083190D01*
X12263286Y-14197476D02*
X12149000Y-14197476D01*
X12206143Y-14197476D02*
X12206143Y-13997476D01*
X12187095Y-14026048D01*
X12168048Y-14045095D01*
X12149000Y-14054619D01*
X12339476Y-13997476D02*
X12339476Y-14035571D01*
X12415667Y-13997476D02*
X12415667Y-14035571D01*
X12710905Y-14273667D02*
X12701381Y-14264143D01*
X12682333Y-14235571D01*
X12672809Y-14216524D01*
X12663286Y-14187952D01*
X12653762Y-14140333D01*
X12653762Y-14102238D01*
X12663286Y-14054619D01*
X12672809Y-14026048D01*
X12682333Y-14007000D01*
X12701381Y-13978428D01*
X12710905Y-13968905D01*
X12872809Y-14064143D02*
X12872809Y-14197476D01*
X12825190Y-13987952D02*
X12777571Y-14130809D01*
X12901381Y-14130809D01*
X13129952Y-14197476D02*
X13129952Y-13997476D01*
X13215667Y-14197476D02*
X13215667Y-14092714D01*
X13206143Y-14073667D01*
X13187095Y-14064143D01*
X13158524Y-14064143D01*
X13139476Y-14073667D01*
X13129952Y-14083190D01*
X13339476Y-14197476D02*
X13320428Y-14187952D01*
X13310905Y-14178428D01*
X13301381Y-14159381D01*
X13301381Y-14102238D01*
X13310905Y-14083190D01*
X13320428Y-14073667D01*
X13339476Y-14064143D01*
X13368048Y-14064143D01*
X13387095Y-14073667D01*
X13396619Y-14083190D01*
X13406143Y-14102238D01*
X13406143Y-14159381D01*
X13396619Y-14178428D01*
X13387095Y-14187952D01*
X13368048Y-14197476D01*
X13339476Y-14197476D01*
X13520428Y-14197476D02*
X13501381Y-14187952D01*
X13491857Y-14168905D01*
X13491857Y-13997476D01*
X13672809Y-14187952D02*
X13653762Y-14197476D01*
X13615667Y-14197476D01*
X13596619Y-14187952D01*
X13587095Y-14168905D01*
X13587095Y-14092714D01*
X13596619Y-14073667D01*
X13615667Y-14064143D01*
X13653762Y-14064143D01*
X13672809Y-14073667D01*
X13682333Y-14092714D01*
X13682333Y-14111762D01*
X13587095Y-14130809D01*
X13758524Y-14187952D02*
X13777571Y-14197476D01*
X13815667Y-14197476D01*
X13834714Y-14187952D01*
X13844238Y-14168905D01*
X13844238Y-14159381D01*
X13834714Y-14140333D01*
X13815667Y-14130809D01*
X13787095Y-14130809D01*
X13768048Y-14121286D01*
X13758524Y-14102238D01*
X13758524Y-14092714D01*
X13768048Y-14073667D01*
X13787095Y-14064143D01*
X13815667Y-14064143D01*
X13834714Y-14073667D01*
X13910905Y-14273667D02*
X13920428Y-14264143D01*
X13939476Y-14235571D01*
X13949000Y-14216524D01*
X13958524Y-14187952D01*
X13968048Y-14140333D01*
X13968048Y-14102238D01*
X13958524Y-14054619D01*
X13949000Y-14026048D01*
X13939476Y-14007000D01*
X13920428Y-13978428D01*
X13910905Y-13968905D01*
X14272809Y-14273667D02*
X14263286Y-14264143D01*
X14244238Y-14235571D01*
X14234714Y-14216524D01*
X14225190Y-14187952D01*
X14215667Y-14140333D01*
X14215667Y-14102238D01*
X14225190Y-14054619D01*
X14234714Y-14026048D01*
X14244238Y-14007000D01*
X14263286Y-13978428D01*
X14272809Y-13968905D01*
X14349000Y-14064143D02*
X14349000Y-14197476D01*
X14349000Y-14083190D02*
X14358524Y-14073667D01*
X14377571Y-14064143D01*
X14406143Y-14064143D01*
X14425190Y-14073667D01*
X14434714Y-14092714D01*
X14434714Y-14197476D01*
X14558524Y-14197476D02*
X14539476Y-14187952D01*
X14529952Y-14178428D01*
X14520428Y-14159381D01*
X14520428Y-14102238D01*
X14529952Y-14083190D01*
X14539476Y-14073667D01*
X14558524Y-14064143D01*
X14587095Y-14064143D01*
X14606143Y-14073667D01*
X14615667Y-14083190D01*
X14625190Y-14102238D01*
X14625190Y-14159381D01*
X14615667Y-14178428D01*
X14606143Y-14187952D01*
X14587095Y-14197476D01*
X14558524Y-14197476D01*
X14682333Y-14064143D02*
X14758524Y-14064143D01*
X14710905Y-13997476D02*
X14710905Y-14168905D01*
X14720428Y-14187952D01*
X14739476Y-14197476D01*
X14758524Y-14197476D01*
X14977571Y-14064143D02*
X14977571Y-14264143D01*
X14977571Y-14073667D02*
X14996619Y-14064143D01*
X15034714Y-14064143D01*
X15053762Y-14073667D01*
X15063286Y-14083190D01*
X15072809Y-14102238D01*
X15072809Y-14159381D01*
X15063286Y-14178428D01*
X15053762Y-14187952D01*
X15034714Y-14197476D01*
X14996619Y-14197476D01*
X14977571Y-14187952D01*
X15187095Y-14197476D02*
X15168048Y-14187952D01*
X15158524Y-14168905D01*
X15158524Y-13997476D01*
X15349000Y-14197476D02*
X15349000Y-14092714D01*
X15339476Y-14073667D01*
X15320428Y-14064143D01*
X15282333Y-14064143D01*
X15263286Y-14073667D01*
X15349000Y-14187952D02*
X15329952Y-14197476D01*
X15282333Y-14197476D01*
X15263286Y-14187952D01*
X15253762Y-14168905D01*
X15253762Y-14149857D01*
X15263286Y-14130809D01*
X15282333Y-14121286D01*
X15329952Y-14121286D01*
X15349000Y-14111762D01*
X15415667Y-14064143D02*
X15491857Y-14064143D01*
X15444238Y-13997476D02*
X15444238Y-14168905D01*
X15453762Y-14187952D01*
X15472809Y-14197476D01*
X15491857Y-14197476D01*
X15634714Y-14187952D02*
X15615667Y-14197476D01*
X15577571Y-14197476D01*
X15558524Y-14187952D01*
X15549000Y-14168905D01*
X15549000Y-14092714D01*
X15558524Y-14073667D01*
X15577571Y-14064143D01*
X15615667Y-14064143D01*
X15634714Y-14073667D01*
X15644238Y-14092714D01*
X15644238Y-14111762D01*
X15549000Y-14130809D01*
X15815667Y-14197476D02*
X15815667Y-13997476D01*
X15815667Y-14187952D02*
X15796619Y-14197476D01*
X15758524Y-14197476D01*
X15739476Y-14187952D01*
X15729952Y-14178428D01*
X15720428Y-14159381D01*
X15720428Y-14102238D01*
X15729952Y-14083190D01*
X15739476Y-14073667D01*
X15758524Y-14064143D01*
X15796619Y-14064143D01*
X15815667Y-14073667D01*
X15891857Y-14273667D02*
X15901381Y-14264143D01*
X15920428Y-14235571D01*
X15929952Y-14216524D01*
X15939476Y-14187952D01*
X15949000Y-14140333D01*
X15949000Y-14102238D01*
X15939476Y-14054619D01*
X15929952Y-14026048D01*
X15920428Y-14007000D01*
X15901381Y-13978428D01*
X15891857Y-13968905D01*
M02*
