%TF.GenerationSoftware,KiCad,Pcbnew,(6.0.7)*%
%TF.CreationDate,2022-08-10T04:42:46-07:00*%
%TF.ProjectId,pulse-pcb,70756c73-652d-4706-9362-2e6b69636164,rev?*%
%TF.SameCoordinates,Original*%
%TF.FileFunction,Drillmap*%
%TF.FilePolarity,Positive*%
%FSLAX45Y45*%
G04 Gerber Fmt 4.5, Leading zero omitted, Abs format (unit mm)*
G04 Created by KiCad (PCBNEW (6.0.7)) date 2022-08-10 04:42:46*
%MOMM*%
%LPD*%
G01*
G04 APERTURE LIST*
%ADD10C,0.100000*%
%ADD11C,0.200000*%
%ADD12C,0.040000*%
%ADD13C,0.080000*%
%ADD14C,0.152000*%
G04 APERTURE END LIST*
D10*
X15494000Y-13462000D02*
X9144000Y-13462000D01*
X9144000Y-13462000D02*
X9144000Y-6604000D01*
X9144000Y-6604000D02*
X15494000Y-6604000D01*
X15494000Y-6604000D02*
X15494000Y-13462000D01*
D11*
D12*
X11156000Y-8997000D02*
X11196000Y-9037000D01*
X11196000Y-8997000D02*
X11156000Y-9037000D01*
X11791000Y-8362000D02*
X11831000Y-8402000D01*
X11831000Y-8362000D02*
X11791000Y-8402000D01*
D13*
X10327000Y-10540000D02*
G75*
G03*
X10327000Y-10540000I-40000J0D01*
G01*
X10327000Y-11810000D02*
G75*
G03*
X10327000Y-11810000I-40000J0D01*
G01*
X10581000Y-10540000D02*
G75*
G03*
X10581000Y-10540000I-40000J0D01*
G01*
X10581000Y-11810000D02*
G75*
G03*
X10581000Y-11810000I-40000J0D01*
G01*
X10835000Y-10540000D02*
G75*
G03*
X10835000Y-10540000I-40000J0D01*
G01*
X10835000Y-11810000D02*
G75*
G03*
X10835000Y-11810000I-40000J0D01*
G01*
X11089000Y-10540000D02*
G75*
G03*
X11089000Y-10540000I-40000J0D01*
G01*
X11089000Y-11810000D02*
G75*
G03*
X11089000Y-11810000I-40000J0D01*
G01*
X11343000Y-10540000D02*
G75*
G03*
X11343000Y-10540000I-40000J0D01*
G01*
X11343000Y-11810000D02*
G75*
G03*
X11343000Y-11810000I-40000J0D01*
G01*
X11597000Y-10540000D02*
G75*
G03*
X11597000Y-10540000I-40000J0D01*
G01*
X11597000Y-11810000D02*
G75*
G03*
X11597000Y-11810000I-40000J0D01*
G01*
X11851000Y-10540000D02*
G75*
G03*
X11851000Y-10540000I-40000J0D01*
G01*
X11851000Y-11810000D02*
G75*
G03*
X11851000Y-11810000I-40000J0D01*
G01*
X12105000Y-10540000D02*
G75*
G03*
X12105000Y-10540000I-40000J0D01*
G01*
X12105000Y-11810000D02*
G75*
G03*
X12105000Y-11810000I-40000J0D01*
G01*
X12613000Y-10540000D02*
G75*
G03*
X12613000Y-10540000I-40000J0D01*
G01*
X12613000Y-11810000D02*
G75*
G03*
X12613000Y-11810000I-40000J0D01*
G01*
X12867000Y-10540000D02*
G75*
G03*
X12867000Y-10540000I-40000J0D01*
G01*
X12867000Y-11810000D02*
G75*
G03*
X12867000Y-11810000I-40000J0D01*
G01*
X13121000Y-10540000D02*
G75*
G03*
X13121000Y-10540000I-40000J0D01*
G01*
X13121000Y-11810000D02*
G75*
G03*
X13121000Y-11810000I-40000J0D01*
G01*
X13375000Y-10540000D02*
G75*
G03*
X13375000Y-10540000I-40000J0D01*
G01*
X13375000Y-11810000D02*
G75*
G03*
X13375000Y-11810000I-40000J0D01*
G01*
X13629000Y-10540000D02*
G75*
G03*
X13629000Y-10540000I-40000J0D01*
G01*
X13629000Y-11810000D02*
G75*
G03*
X13629000Y-11810000I-40000J0D01*
G01*
X13883000Y-10540000D02*
G75*
G03*
X13883000Y-10540000I-40000J0D01*
G01*
X13883000Y-11810000D02*
G75*
G03*
X13883000Y-11810000I-40000J0D01*
G01*
X14137000Y-10540000D02*
G75*
G03*
X14137000Y-10540000I-40000J0D01*
G01*
X14137000Y-11810000D02*
G75*
G03*
X14137000Y-11810000I-40000J0D01*
G01*
X14391000Y-10540000D02*
G75*
G03*
X14391000Y-10540000I-40000J0D01*
G01*
X14391000Y-11810000D02*
G75*
G03*
X14391000Y-11810000I-40000J0D01*
G01*
D10*
X10414000Y-12142000D02*
X10414000Y-12242000D01*
X10364000Y-12192000D02*
X10464000Y-12192000D01*
X10541000Y-8586000D02*
X10541000Y-8686000D01*
X10491000Y-8636000D02*
X10591000Y-8636000D01*
X11303000Y-8332000D02*
X11303000Y-8432000D01*
X11253000Y-8382000D02*
X11353000Y-8382000D01*
X12065000Y-12142000D02*
X12065000Y-12242000D01*
X12015000Y-12192000D02*
X12115000Y-12192000D01*
X14351000Y-12142000D02*
X14351000Y-12242000D01*
X14301000Y-12192000D02*
X14401000Y-12192000D01*
X11338356Y-8163356D02*
X11338356Y-8092644D01*
X11267644Y-8092644D01*
X11267644Y-8163356D01*
X11338356Y-8163356D01*
X11338356Y-9687356D02*
X11338356Y-9616644D01*
X11267644Y-9616644D01*
X11267644Y-9687356D01*
X11338356Y-9687356D01*
X11592356Y-8163356D02*
X11592356Y-8092644D01*
X11521644Y-8092644D01*
X11521644Y-8163356D01*
X11592356Y-8163356D01*
X11592356Y-9687356D02*
X11592356Y-9616644D01*
X11521644Y-9616644D01*
X11521644Y-9687356D01*
X11592356Y-9687356D01*
X11846356Y-8163356D02*
X11846356Y-8092644D01*
X11775644Y-8092644D01*
X11775644Y-8163356D01*
X11846356Y-8163356D01*
X11846356Y-9687356D02*
X11846356Y-9616644D01*
X11775644Y-9616644D01*
X11775644Y-9687356D01*
X11846356Y-9687356D01*
X12100356Y-8163356D02*
X12100356Y-8092644D01*
X12029644Y-8092644D01*
X12029644Y-8163356D01*
X12100356Y-8163356D01*
X12100356Y-9687356D02*
X12100356Y-9616644D01*
X12029644Y-9616644D01*
X12029644Y-9687356D01*
X12100356Y-9687356D01*
X12354356Y-8163356D02*
X12354356Y-8092644D01*
X12283644Y-8092644D01*
X12283644Y-8163356D01*
X12354356Y-8163356D01*
X12354356Y-9687356D02*
X12354356Y-9616644D01*
X12283644Y-9616644D01*
X12283644Y-9687356D01*
X12354356Y-9687356D01*
X12608356Y-8163356D02*
X12608356Y-8092644D01*
X12537644Y-8092644D01*
X12537644Y-8163356D01*
X12608356Y-8163356D01*
X12608356Y-9687356D02*
X12608356Y-9616644D01*
X12537644Y-9616644D01*
X12537644Y-9687356D01*
X12608356Y-9687356D01*
X12862356Y-8163356D02*
X12862356Y-8092644D01*
X12791644Y-8092644D01*
X12791644Y-8163356D01*
X12862356Y-8163356D01*
X12862356Y-9687356D02*
X12862356Y-9616644D01*
X12791644Y-9616644D01*
X12791644Y-9687356D01*
X12862356Y-9687356D01*
X13116356Y-8163356D02*
X13116356Y-8092644D01*
X13045644Y-8092644D01*
X13045644Y-8163356D01*
X13116356Y-8163356D01*
X13116356Y-9687356D02*
X13116356Y-9616644D01*
X13045644Y-9616644D01*
X13045644Y-9687356D01*
X13116356Y-9687356D01*
X13370356Y-8163356D02*
X13370356Y-8092644D01*
X13299644Y-8092644D01*
X13299644Y-8163356D01*
X13370356Y-8163356D01*
X13370356Y-9687356D02*
X13370356Y-9616644D01*
X13299644Y-9616644D01*
X13299644Y-9687356D01*
X13370356Y-9687356D01*
X13624356Y-8163356D02*
X13624356Y-8092644D01*
X13553644Y-8092644D01*
X13553644Y-8163356D01*
X13624356Y-8163356D01*
X13624356Y-9687356D02*
X13624356Y-9616644D01*
X13553644Y-9616644D01*
X13553644Y-9687356D01*
X13624356Y-9687356D01*
X13878356Y-8163356D02*
X13878356Y-8092644D01*
X13807644Y-8092644D01*
X13807644Y-8163356D01*
X13878356Y-8163356D01*
X13878356Y-9687356D02*
X13878356Y-9616644D01*
X13807644Y-9616644D01*
X13807644Y-9687356D01*
X13878356Y-9687356D01*
X14132356Y-8163356D02*
X14132356Y-8092644D01*
X14061644Y-8092644D01*
X14061644Y-8163356D01*
X14132356Y-8163356D01*
X14132356Y-9687356D02*
X14132356Y-9616644D01*
X14061644Y-9616644D01*
X14061644Y-9687356D01*
X14132356Y-9687356D01*
X14386356Y-8163356D02*
X14386356Y-8092644D01*
X14315644Y-8092644D01*
X14315644Y-8163356D01*
X14386356Y-8163356D01*
X14386356Y-9687356D02*
X14386356Y-9616644D01*
X14315644Y-9616644D01*
X14315644Y-9687356D01*
X14386356Y-9687356D01*
X14640356Y-8163356D02*
X14640356Y-8092644D01*
X14569644Y-8092644D01*
X14569644Y-8163356D01*
X14640356Y-8163356D01*
X14640356Y-9687356D02*
X14640356Y-9616644D01*
X14569644Y-9616644D01*
X14569644Y-9687356D01*
X14640356Y-9687356D01*
X14894356Y-8163356D02*
X14894356Y-8092644D01*
X14823644Y-8092644D01*
X14823644Y-8163356D01*
X14894356Y-8163356D01*
X14894356Y-9687356D02*
X14894356Y-9616644D01*
X14823644Y-9616644D01*
X14823644Y-9687356D01*
X14894356Y-9687356D01*
D14*
X9652000Y-7950000D02*
X9728000Y-7874000D01*
X9652000Y-7798000D01*
X9576000Y-7874000D01*
X9652000Y-7950000D01*
X9652000Y-8458000D02*
X9728000Y-8382000D01*
X9652000Y-8306000D01*
X9576000Y-8382000D01*
X9652000Y-8458000D01*
X9652000Y-9220000D02*
X9728000Y-9144000D01*
X9652000Y-9068000D01*
X9576000Y-9144000D01*
X9652000Y-9220000D01*
X9652000Y-9728000D02*
X9728000Y-9652000D01*
X9652000Y-9576000D01*
X9576000Y-9652000D01*
X9652000Y-9728000D01*
X10414000Y-13030000D02*
X10490000Y-12954000D01*
X10414000Y-12878000D01*
X10338000Y-12954000D01*
X10414000Y-13030000D01*
X10922000Y-13030000D02*
X10998000Y-12954000D01*
X10922000Y-12878000D01*
X10846000Y-12954000D01*
X10922000Y-13030000D01*
X11176000Y-7188000D02*
X11252000Y-7112000D01*
X11176000Y-7036000D01*
X11100000Y-7112000D01*
X11176000Y-7188000D01*
X11430000Y-13030000D02*
X11506000Y-12954000D01*
X11430000Y-12878000D01*
X11354000Y-12954000D01*
X11430000Y-13030000D01*
X11684000Y-7188000D02*
X11760000Y-7112000D01*
X11684000Y-7036000D01*
X11608000Y-7112000D01*
X11684000Y-7188000D01*
X11938000Y-13030000D02*
X12014000Y-12954000D01*
X11938000Y-12878000D01*
X11862000Y-12954000D01*
X11938000Y-13030000D01*
X12192000Y-7188000D02*
X12268000Y-7112000D01*
X12192000Y-7036000D01*
X12116000Y-7112000D01*
X12192000Y-7188000D01*
X12700000Y-7188000D02*
X12776000Y-7112000D01*
X12700000Y-7036000D01*
X12624000Y-7112000D01*
X12700000Y-7188000D01*
X12700000Y-13030000D02*
X12776000Y-12954000D01*
X12700000Y-12878000D01*
X12624000Y-12954000D01*
X12700000Y-13030000D01*
X13208000Y-13030000D02*
X13284000Y-12954000D01*
X13208000Y-12878000D01*
X13132000Y-12954000D01*
X13208000Y-13030000D01*
X13462000Y-7188000D02*
X13538000Y-7112000D01*
X13462000Y-7036000D01*
X13386000Y-7112000D01*
X13462000Y-7188000D01*
X13716000Y-13030000D02*
X13792000Y-12954000D01*
X13716000Y-12878000D01*
X13640000Y-12954000D01*
X13716000Y-13030000D01*
X13970000Y-7188000D02*
X14046000Y-7112000D01*
X13970000Y-7036000D01*
X13894000Y-7112000D01*
X13970000Y-7188000D01*
X14224000Y-13030000D02*
X14300000Y-12954000D01*
X14224000Y-12878000D01*
X14148000Y-12954000D01*
X14224000Y-13030000D01*
D11*
X9396619Y-13777476D02*
X9396619Y-13577476D01*
X9444238Y-13577476D01*
X9472810Y-13587000D01*
X9491857Y-13606048D01*
X9501381Y-13625095D01*
X9510905Y-13663190D01*
X9510905Y-13691762D01*
X9501381Y-13729857D01*
X9491857Y-13748905D01*
X9472810Y-13767952D01*
X9444238Y-13777476D01*
X9396619Y-13777476D01*
X9596619Y-13777476D02*
X9596619Y-13644143D01*
X9596619Y-13682238D02*
X9606143Y-13663190D01*
X9615667Y-13653667D01*
X9634714Y-13644143D01*
X9653762Y-13644143D01*
X9720429Y-13777476D02*
X9720429Y-13644143D01*
X9720429Y-13577476D02*
X9710905Y-13587000D01*
X9720429Y-13596524D01*
X9729952Y-13587000D01*
X9720429Y-13577476D01*
X9720429Y-13596524D01*
X9844238Y-13777476D02*
X9825190Y-13767952D01*
X9815667Y-13748905D01*
X9815667Y-13577476D01*
X9949000Y-13777476D02*
X9929952Y-13767952D01*
X9920429Y-13748905D01*
X9920429Y-13577476D01*
X10177571Y-13777476D02*
X10177571Y-13577476D01*
X10244238Y-13720333D01*
X10310905Y-13577476D01*
X10310905Y-13777476D01*
X10491857Y-13777476D02*
X10491857Y-13672714D01*
X10482333Y-13653667D01*
X10463286Y-13644143D01*
X10425190Y-13644143D01*
X10406143Y-13653667D01*
X10491857Y-13767952D02*
X10472810Y-13777476D01*
X10425190Y-13777476D01*
X10406143Y-13767952D01*
X10396619Y-13748905D01*
X10396619Y-13729857D01*
X10406143Y-13710809D01*
X10425190Y-13701286D01*
X10472810Y-13701286D01*
X10491857Y-13691762D01*
X10587095Y-13644143D02*
X10587095Y-13844143D01*
X10587095Y-13653667D02*
X10606143Y-13644143D01*
X10644238Y-13644143D01*
X10663286Y-13653667D01*
X10672810Y-13663190D01*
X10682333Y-13682238D01*
X10682333Y-13739381D01*
X10672810Y-13758428D01*
X10663286Y-13767952D01*
X10644238Y-13777476D01*
X10606143Y-13777476D01*
X10587095Y-13767952D01*
X10768048Y-13758428D02*
X10777571Y-13767952D01*
X10768048Y-13777476D01*
X10758524Y-13767952D01*
X10768048Y-13758428D01*
X10768048Y-13777476D01*
X10768048Y-13653667D02*
X10777571Y-13663190D01*
X10768048Y-13672714D01*
X10758524Y-13663190D01*
X10768048Y-13653667D01*
X10768048Y-13672714D01*
D12*
X9099000Y-14087000D02*
X9139000Y-14127000D01*
X9139000Y-14087000D02*
X9099000Y-14127000D01*
D11*
X9434714Y-13997476D02*
X9453762Y-13997476D01*
X9472810Y-14007000D01*
X9482333Y-14016524D01*
X9491857Y-14035571D01*
X9501381Y-14073667D01*
X9501381Y-14121286D01*
X9491857Y-14159381D01*
X9482333Y-14178428D01*
X9472810Y-14187952D01*
X9453762Y-14197476D01*
X9434714Y-14197476D01*
X9415667Y-14187952D01*
X9406143Y-14178428D01*
X9396619Y-14159381D01*
X9387095Y-14121286D01*
X9387095Y-14073667D01*
X9396619Y-14035571D01*
X9406143Y-14016524D01*
X9415667Y-14007000D01*
X9434714Y-13997476D01*
X9587095Y-14178428D02*
X9596619Y-14187952D01*
X9587095Y-14197476D01*
X9577571Y-14187952D01*
X9587095Y-14178428D01*
X9587095Y-14197476D01*
X9768048Y-14064143D02*
X9768048Y-14197476D01*
X9720429Y-13987952D02*
X9672810Y-14130809D01*
X9796619Y-14130809D01*
X9910905Y-13997476D02*
X9929952Y-13997476D01*
X9949000Y-14007000D01*
X9958524Y-14016524D01*
X9968048Y-14035571D01*
X9977571Y-14073667D01*
X9977571Y-14121286D01*
X9968048Y-14159381D01*
X9958524Y-14178428D01*
X9949000Y-14187952D01*
X9929952Y-14197476D01*
X9910905Y-14197476D01*
X9891857Y-14187952D01*
X9882333Y-14178428D01*
X9872810Y-14159381D01*
X9863286Y-14121286D01*
X9863286Y-14073667D01*
X9872810Y-14035571D01*
X9882333Y-14016524D01*
X9891857Y-14007000D01*
X9910905Y-13997476D01*
X10101381Y-13997476D02*
X10120429Y-13997476D01*
X10139476Y-14007000D01*
X10149000Y-14016524D01*
X10158524Y-14035571D01*
X10168048Y-14073667D01*
X10168048Y-14121286D01*
X10158524Y-14159381D01*
X10149000Y-14178428D01*
X10139476Y-14187952D01*
X10120429Y-14197476D01*
X10101381Y-14197476D01*
X10082333Y-14187952D01*
X10072810Y-14178428D01*
X10063286Y-14159381D01*
X10053762Y-14121286D01*
X10053762Y-14073667D01*
X10063286Y-14035571D01*
X10072810Y-14016524D01*
X10082333Y-14007000D01*
X10101381Y-13997476D01*
X10253762Y-14197476D02*
X10253762Y-14064143D01*
X10253762Y-14083190D02*
X10263286Y-14073667D01*
X10282333Y-14064143D01*
X10310905Y-14064143D01*
X10329952Y-14073667D01*
X10339476Y-14092714D01*
X10339476Y-14197476D01*
X10339476Y-14092714D02*
X10349000Y-14073667D01*
X10368048Y-14064143D01*
X10396619Y-14064143D01*
X10415667Y-14073667D01*
X10425190Y-14092714D01*
X10425190Y-14197476D01*
X10520429Y-14197476D02*
X10520429Y-14064143D01*
X10520429Y-14083190D02*
X10529952Y-14073667D01*
X10549000Y-14064143D01*
X10577571Y-14064143D01*
X10596619Y-14073667D01*
X10606143Y-14092714D01*
X10606143Y-14197476D01*
X10606143Y-14092714D02*
X10615667Y-14073667D01*
X10634714Y-14064143D01*
X10663286Y-14064143D01*
X10682333Y-14073667D01*
X10691857Y-14092714D01*
X10691857Y-14197476D01*
X11082333Y-13987952D02*
X10910905Y-14245095D01*
X11339476Y-13997476D02*
X11358524Y-13997476D01*
X11377571Y-14007000D01*
X11387095Y-14016524D01*
X11396619Y-14035571D01*
X11406143Y-14073667D01*
X11406143Y-14121286D01*
X11396619Y-14159381D01*
X11387095Y-14178428D01*
X11377571Y-14187952D01*
X11358524Y-14197476D01*
X11339476Y-14197476D01*
X11320428Y-14187952D01*
X11310905Y-14178428D01*
X11301381Y-14159381D01*
X11291857Y-14121286D01*
X11291857Y-14073667D01*
X11301381Y-14035571D01*
X11310905Y-14016524D01*
X11320428Y-14007000D01*
X11339476Y-13997476D01*
X11491857Y-14178428D02*
X11501381Y-14187952D01*
X11491857Y-14197476D01*
X11482333Y-14187952D01*
X11491857Y-14178428D01*
X11491857Y-14197476D01*
X11625190Y-13997476D02*
X11644238Y-13997476D01*
X11663286Y-14007000D01*
X11672809Y-14016524D01*
X11682333Y-14035571D01*
X11691857Y-14073667D01*
X11691857Y-14121286D01*
X11682333Y-14159381D01*
X11672809Y-14178428D01*
X11663286Y-14187952D01*
X11644238Y-14197476D01*
X11625190Y-14197476D01*
X11606143Y-14187952D01*
X11596619Y-14178428D01*
X11587095Y-14159381D01*
X11577571Y-14121286D01*
X11577571Y-14073667D01*
X11587095Y-14035571D01*
X11596619Y-14016524D01*
X11606143Y-14007000D01*
X11625190Y-13997476D01*
X11882333Y-14197476D02*
X11768048Y-14197476D01*
X11825190Y-14197476D02*
X11825190Y-13997476D01*
X11806143Y-14026048D01*
X11787095Y-14045095D01*
X11768048Y-14054619D01*
X12063286Y-13997476D02*
X11968048Y-13997476D01*
X11958524Y-14092714D01*
X11968048Y-14083190D01*
X11987095Y-14073667D01*
X12034714Y-14073667D01*
X12053762Y-14083190D01*
X12063286Y-14092714D01*
X12072809Y-14111762D01*
X12072809Y-14159381D01*
X12063286Y-14178428D01*
X12053762Y-14187952D01*
X12034714Y-14197476D01*
X11987095Y-14197476D01*
X11968048Y-14187952D01*
X11958524Y-14178428D01*
X12139476Y-13997476D02*
X12272809Y-13997476D01*
X12187095Y-14197476D01*
X12339476Y-13997476D02*
X12339476Y-14035571D01*
X12415667Y-13997476D02*
X12415667Y-14035571D01*
X12710905Y-14273667D02*
X12701381Y-14264143D01*
X12682333Y-14235571D01*
X12672809Y-14216524D01*
X12663286Y-14187952D01*
X12653762Y-14140333D01*
X12653762Y-14102238D01*
X12663286Y-14054619D01*
X12672809Y-14026048D01*
X12682333Y-14007000D01*
X12701381Y-13978428D01*
X12710905Y-13968905D01*
X12777571Y-14016524D02*
X12787095Y-14007000D01*
X12806143Y-13997476D01*
X12853762Y-13997476D01*
X12872809Y-14007000D01*
X12882333Y-14016524D01*
X12891857Y-14035571D01*
X12891857Y-14054619D01*
X12882333Y-14083190D01*
X12768048Y-14197476D01*
X12891857Y-14197476D01*
X13129952Y-14197476D02*
X13129952Y-13997476D01*
X13215667Y-14197476D02*
X13215667Y-14092714D01*
X13206143Y-14073667D01*
X13187095Y-14064143D01*
X13158524Y-14064143D01*
X13139476Y-14073667D01*
X13129952Y-14083190D01*
X13339476Y-14197476D02*
X13320428Y-14187952D01*
X13310905Y-14178428D01*
X13301381Y-14159381D01*
X13301381Y-14102238D01*
X13310905Y-14083190D01*
X13320428Y-14073667D01*
X13339476Y-14064143D01*
X13368048Y-14064143D01*
X13387095Y-14073667D01*
X13396619Y-14083190D01*
X13406143Y-14102238D01*
X13406143Y-14159381D01*
X13396619Y-14178428D01*
X13387095Y-14187952D01*
X13368048Y-14197476D01*
X13339476Y-14197476D01*
X13520428Y-14197476D02*
X13501381Y-14187952D01*
X13491857Y-14168905D01*
X13491857Y-13997476D01*
X13672809Y-14187952D02*
X13653762Y-14197476D01*
X13615667Y-14197476D01*
X13596619Y-14187952D01*
X13587095Y-14168905D01*
X13587095Y-14092714D01*
X13596619Y-14073667D01*
X13615667Y-14064143D01*
X13653762Y-14064143D01*
X13672809Y-14073667D01*
X13682333Y-14092714D01*
X13682333Y-14111762D01*
X13587095Y-14130809D01*
X13758524Y-14187952D02*
X13777571Y-14197476D01*
X13815667Y-14197476D01*
X13834714Y-14187952D01*
X13844238Y-14168905D01*
X13844238Y-14159381D01*
X13834714Y-14140333D01*
X13815667Y-14130809D01*
X13787095Y-14130809D01*
X13768048Y-14121286D01*
X13758524Y-14102238D01*
X13758524Y-14092714D01*
X13768048Y-14073667D01*
X13787095Y-14064143D01*
X13815667Y-14064143D01*
X13834714Y-14073667D01*
X13910905Y-14273667D02*
X13920428Y-14264143D01*
X13939476Y-14235571D01*
X13949000Y-14216524D01*
X13958524Y-14187952D01*
X13968048Y-14140333D01*
X13968048Y-14102238D01*
X13958524Y-14054619D01*
X13949000Y-14026048D01*
X13939476Y-14007000D01*
X13920428Y-13978428D01*
X13910905Y-13968905D01*
D13*
X9139000Y-14371000D02*
G75*
G03*
X9139000Y-14371000I-40000J0D01*
G01*
D11*
X9434714Y-14261476D02*
X9453762Y-14261476D01*
X9472810Y-14271000D01*
X9482333Y-14280524D01*
X9491857Y-14299571D01*
X9501381Y-14337667D01*
X9501381Y-14385286D01*
X9491857Y-14423381D01*
X9482333Y-14442428D01*
X9472810Y-14451952D01*
X9453762Y-14461476D01*
X9434714Y-14461476D01*
X9415667Y-14451952D01*
X9406143Y-14442428D01*
X9396619Y-14423381D01*
X9387095Y-14385286D01*
X9387095Y-14337667D01*
X9396619Y-14299571D01*
X9406143Y-14280524D01*
X9415667Y-14271000D01*
X9434714Y-14261476D01*
X9587095Y-14442428D02*
X9596619Y-14451952D01*
X9587095Y-14461476D01*
X9577571Y-14451952D01*
X9587095Y-14442428D01*
X9587095Y-14461476D01*
X9710905Y-14347190D02*
X9691857Y-14337667D01*
X9682333Y-14328143D01*
X9672810Y-14309095D01*
X9672810Y-14299571D01*
X9682333Y-14280524D01*
X9691857Y-14271000D01*
X9710905Y-14261476D01*
X9749000Y-14261476D01*
X9768048Y-14271000D01*
X9777571Y-14280524D01*
X9787095Y-14299571D01*
X9787095Y-14309095D01*
X9777571Y-14328143D01*
X9768048Y-14337667D01*
X9749000Y-14347190D01*
X9710905Y-14347190D01*
X9691857Y-14356714D01*
X9682333Y-14366238D01*
X9672810Y-14385286D01*
X9672810Y-14423381D01*
X9682333Y-14442428D01*
X9691857Y-14451952D01*
X9710905Y-14461476D01*
X9749000Y-14461476D01*
X9768048Y-14451952D01*
X9777571Y-14442428D01*
X9787095Y-14423381D01*
X9787095Y-14385286D01*
X9777571Y-14366238D01*
X9768048Y-14356714D01*
X9749000Y-14347190D01*
X9910905Y-14261476D02*
X9929952Y-14261476D01*
X9949000Y-14271000D01*
X9958524Y-14280524D01*
X9968048Y-14299571D01*
X9977571Y-14337667D01*
X9977571Y-14385286D01*
X9968048Y-14423381D01*
X9958524Y-14442428D01*
X9949000Y-14451952D01*
X9929952Y-14461476D01*
X9910905Y-14461476D01*
X9891857Y-14451952D01*
X9882333Y-14442428D01*
X9872810Y-14423381D01*
X9863286Y-14385286D01*
X9863286Y-14337667D01*
X9872810Y-14299571D01*
X9882333Y-14280524D01*
X9891857Y-14271000D01*
X9910905Y-14261476D01*
X10101381Y-14261476D02*
X10120429Y-14261476D01*
X10139476Y-14271000D01*
X10149000Y-14280524D01*
X10158524Y-14299571D01*
X10168048Y-14337667D01*
X10168048Y-14385286D01*
X10158524Y-14423381D01*
X10149000Y-14442428D01*
X10139476Y-14451952D01*
X10120429Y-14461476D01*
X10101381Y-14461476D01*
X10082333Y-14451952D01*
X10072810Y-14442428D01*
X10063286Y-14423381D01*
X10053762Y-14385286D01*
X10053762Y-14337667D01*
X10063286Y-14299571D01*
X10072810Y-14280524D01*
X10082333Y-14271000D01*
X10101381Y-14261476D01*
X10253762Y-14461476D02*
X10253762Y-14328143D01*
X10253762Y-14347190D02*
X10263286Y-14337667D01*
X10282333Y-14328143D01*
X10310905Y-14328143D01*
X10329952Y-14337667D01*
X10339476Y-14356714D01*
X10339476Y-14461476D01*
X10339476Y-14356714D02*
X10349000Y-14337667D01*
X10368048Y-14328143D01*
X10396619Y-14328143D01*
X10415667Y-14337667D01*
X10425190Y-14356714D01*
X10425190Y-14461476D01*
X10520429Y-14461476D02*
X10520429Y-14328143D01*
X10520429Y-14347190D02*
X10529952Y-14337667D01*
X10549000Y-14328143D01*
X10577571Y-14328143D01*
X10596619Y-14337667D01*
X10606143Y-14356714D01*
X10606143Y-14461476D01*
X10606143Y-14356714D02*
X10615667Y-14337667D01*
X10634714Y-14328143D01*
X10663286Y-14328143D01*
X10682333Y-14337667D01*
X10691857Y-14356714D01*
X10691857Y-14461476D01*
X11082333Y-14251952D02*
X10910905Y-14509095D01*
X11339476Y-14261476D02*
X11358524Y-14261476D01*
X11377571Y-14271000D01*
X11387095Y-14280524D01*
X11396619Y-14299571D01*
X11406143Y-14337667D01*
X11406143Y-14385286D01*
X11396619Y-14423381D01*
X11387095Y-14442428D01*
X11377571Y-14451952D01*
X11358524Y-14461476D01*
X11339476Y-14461476D01*
X11320428Y-14451952D01*
X11310905Y-14442428D01*
X11301381Y-14423381D01*
X11291857Y-14385286D01*
X11291857Y-14337667D01*
X11301381Y-14299571D01*
X11310905Y-14280524D01*
X11320428Y-14271000D01*
X11339476Y-14261476D01*
X11491857Y-14442428D02*
X11501381Y-14451952D01*
X11491857Y-14461476D01*
X11482333Y-14451952D01*
X11491857Y-14442428D01*
X11491857Y-14461476D01*
X11625190Y-14261476D02*
X11644238Y-14261476D01*
X11663286Y-14271000D01*
X11672809Y-14280524D01*
X11682333Y-14299571D01*
X11691857Y-14337667D01*
X11691857Y-14385286D01*
X11682333Y-14423381D01*
X11672809Y-14442428D01*
X11663286Y-14451952D01*
X11644238Y-14461476D01*
X11625190Y-14461476D01*
X11606143Y-14451952D01*
X11596619Y-14442428D01*
X11587095Y-14423381D01*
X11577571Y-14385286D01*
X11577571Y-14337667D01*
X11587095Y-14299571D01*
X11596619Y-14280524D01*
X11606143Y-14271000D01*
X11625190Y-14261476D01*
X11758524Y-14261476D02*
X11882333Y-14261476D01*
X11815667Y-14337667D01*
X11844238Y-14337667D01*
X11863286Y-14347190D01*
X11872809Y-14356714D01*
X11882333Y-14375762D01*
X11882333Y-14423381D01*
X11872809Y-14442428D01*
X11863286Y-14451952D01*
X11844238Y-14461476D01*
X11787095Y-14461476D01*
X11768048Y-14451952D01*
X11758524Y-14442428D01*
X12072809Y-14461476D02*
X11958524Y-14461476D01*
X12015667Y-14461476D02*
X12015667Y-14261476D01*
X11996619Y-14290048D01*
X11977571Y-14309095D01*
X11958524Y-14318619D01*
X12253762Y-14261476D02*
X12158524Y-14261476D01*
X12149000Y-14356714D01*
X12158524Y-14347190D01*
X12177571Y-14337667D01*
X12225190Y-14337667D01*
X12244238Y-14347190D01*
X12253762Y-14356714D01*
X12263286Y-14375762D01*
X12263286Y-14423381D01*
X12253762Y-14442428D01*
X12244238Y-14451952D01*
X12225190Y-14461476D01*
X12177571Y-14461476D01*
X12158524Y-14451952D01*
X12149000Y-14442428D01*
X12339476Y-14261476D02*
X12339476Y-14299571D01*
X12415667Y-14261476D02*
X12415667Y-14299571D01*
X12710905Y-14537667D02*
X12701381Y-14528143D01*
X12682333Y-14499571D01*
X12672809Y-14480524D01*
X12663286Y-14451952D01*
X12653762Y-14404333D01*
X12653762Y-14366238D01*
X12663286Y-14318619D01*
X12672809Y-14290048D01*
X12682333Y-14271000D01*
X12701381Y-14242428D01*
X12710905Y-14232905D01*
X12768048Y-14261476D02*
X12891857Y-14261476D01*
X12825190Y-14337667D01*
X12853762Y-14337667D01*
X12872809Y-14347190D01*
X12882333Y-14356714D01*
X12891857Y-14375762D01*
X12891857Y-14423381D01*
X12882333Y-14442428D01*
X12872809Y-14451952D01*
X12853762Y-14461476D01*
X12796619Y-14461476D01*
X12777571Y-14451952D01*
X12768048Y-14442428D01*
X12968048Y-14280524D02*
X12977571Y-14271000D01*
X12996619Y-14261476D01*
X13044238Y-14261476D01*
X13063286Y-14271000D01*
X13072809Y-14280524D01*
X13082333Y-14299571D01*
X13082333Y-14318619D01*
X13072809Y-14347190D01*
X12958524Y-14461476D01*
X13082333Y-14461476D01*
X13320428Y-14461476D02*
X13320428Y-14261476D01*
X13406143Y-14461476D02*
X13406143Y-14356714D01*
X13396619Y-14337667D01*
X13377571Y-14328143D01*
X13349000Y-14328143D01*
X13329952Y-14337667D01*
X13320428Y-14347190D01*
X13529952Y-14461476D02*
X13510905Y-14451952D01*
X13501381Y-14442428D01*
X13491857Y-14423381D01*
X13491857Y-14366238D01*
X13501381Y-14347190D01*
X13510905Y-14337667D01*
X13529952Y-14328143D01*
X13558524Y-14328143D01*
X13577571Y-14337667D01*
X13587095Y-14347190D01*
X13596619Y-14366238D01*
X13596619Y-14423381D01*
X13587095Y-14442428D01*
X13577571Y-14451952D01*
X13558524Y-14461476D01*
X13529952Y-14461476D01*
X13710905Y-14461476D02*
X13691857Y-14451952D01*
X13682333Y-14432905D01*
X13682333Y-14261476D01*
X13863286Y-14451952D02*
X13844238Y-14461476D01*
X13806143Y-14461476D01*
X13787095Y-14451952D01*
X13777571Y-14432905D01*
X13777571Y-14356714D01*
X13787095Y-14337667D01*
X13806143Y-14328143D01*
X13844238Y-14328143D01*
X13863286Y-14337667D01*
X13872809Y-14356714D01*
X13872809Y-14375762D01*
X13777571Y-14394809D01*
X13949000Y-14451952D02*
X13968048Y-14461476D01*
X14006143Y-14461476D01*
X14025190Y-14451952D01*
X14034714Y-14432905D01*
X14034714Y-14423381D01*
X14025190Y-14404333D01*
X14006143Y-14394809D01*
X13977571Y-14394809D01*
X13958524Y-14385286D01*
X13949000Y-14366238D01*
X13949000Y-14356714D01*
X13958524Y-14337667D01*
X13977571Y-14328143D01*
X14006143Y-14328143D01*
X14025190Y-14337667D01*
X14101381Y-14537667D02*
X14110905Y-14528143D01*
X14129952Y-14499571D01*
X14139476Y-14480524D01*
X14149000Y-14451952D01*
X14158524Y-14404333D01*
X14158524Y-14366238D01*
X14149000Y-14318619D01*
X14139476Y-14290048D01*
X14129952Y-14271000D01*
X14110905Y-14242428D01*
X14101381Y-14232905D01*
D10*
X9089000Y-14585000D02*
X9089000Y-14685000D01*
X9039000Y-14635000D02*
X9139000Y-14635000D01*
D11*
X9501381Y-14725476D02*
X9387095Y-14725476D01*
X9444238Y-14725476D02*
X9444238Y-14525476D01*
X9425190Y-14554048D01*
X9406143Y-14573095D01*
X9387095Y-14582619D01*
X9587095Y-14706428D02*
X9596619Y-14715952D01*
X9587095Y-14725476D01*
X9577571Y-14715952D01*
X9587095Y-14706428D01*
X9587095Y-14725476D01*
X9720429Y-14525476D02*
X9739476Y-14525476D01*
X9758524Y-14535000D01*
X9768048Y-14544524D01*
X9777571Y-14563571D01*
X9787095Y-14601667D01*
X9787095Y-14649286D01*
X9777571Y-14687381D01*
X9768048Y-14706428D01*
X9758524Y-14715952D01*
X9739476Y-14725476D01*
X9720429Y-14725476D01*
X9701381Y-14715952D01*
X9691857Y-14706428D01*
X9682333Y-14687381D01*
X9672810Y-14649286D01*
X9672810Y-14601667D01*
X9682333Y-14563571D01*
X9691857Y-14544524D01*
X9701381Y-14535000D01*
X9720429Y-14525476D01*
X9910905Y-14525476D02*
X9929952Y-14525476D01*
X9949000Y-14535000D01*
X9958524Y-14544524D01*
X9968048Y-14563571D01*
X9977571Y-14601667D01*
X9977571Y-14649286D01*
X9968048Y-14687381D01*
X9958524Y-14706428D01*
X9949000Y-14715952D01*
X9929952Y-14725476D01*
X9910905Y-14725476D01*
X9891857Y-14715952D01*
X9882333Y-14706428D01*
X9872810Y-14687381D01*
X9863286Y-14649286D01*
X9863286Y-14601667D01*
X9872810Y-14563571D01*
X9882333Y-14544524D01*
X9891857Y-14535000D01*
X9910905Y-14525476D01*
X10101381Y-14525476D02*
X10120429Y-14525476D01*
X10139476Y-14535000D01*
X10149000Y-14544524D01*
X10158524Y-14563571D01*
X10168048Y-14601667D01*
X10168048Y-14649286D01*
X10158524Y-14687381D01*
X10149000Y-14706428D01*
X10139476Y-14715952D01*
X10120429Y-14725476D01*
X10101381Y-14725476D01*
X10082333Y-14715952D01*
X10072810Y-14706428D01*
X10063286Y-14687381D01*
X10053762Y-14649286D01*
X10053762Y-14601667D01*
X10063286Y-14563571D01*
X10072810Y-14544524D01*
X10082333Y-14535000D01*
X10101381Y-14525476D01*
X10253762Y-14725476D02*
X10253762Y-14592143D01*
X10253762Y-14611190D02*
X10263286Y-14601667D01*
X10282333Y-14592143D01*
X10310905Y-14592143D01*
X10329952Y-14601667D01*
X10339476Y-14620714D01*
X10339476Y-14725476D01*
X10339476Y-14620714D02*
X10349000Y-14601667D01*
X10368048Y-14592143D01*
X10396619Y-14592143D01*
X10415667Y-14601667D01*
X10425190Y-14620714D01*
X10425190Y-14725476D01*
X10520429Y-14725476D02*
X10520429Y-14592143D01*
X10520429Y-14611190D02*
X10529952Y-14601667D01*
X10549000Y-14592143D01*
X10577571Y-14592143D01*
X10596619Y-14601667D01*
X10606143Y-14620714D01*
X10606143Y-14725476D01*
X10606143Y-14620714D02*
X10615667Y-14601667D01*
X10634714Y-14592143D01*
X10663286Y-14592143D01*
X10682333Y-14601667D01*
X10691857Y-14620714D01*
X10691857Y-14725476D01*
X11082333Y-14515952D02*
X10910905Y-14773095D01*
X11339476Y-14525476D02*
X11358524Y-14525476D01*
X11377571Y-14535000D01*
X11387095Y-14544524D01*
X11396619Y-14563571D01*
X11406143Y-14601667D01*
X11406143Y-14649286D01*
X11396619Y-14687381D01*
X11387095Y-14706428D01*
X11377571Y-14715952D01*
X11358524Y-14725476D01*
X11339476Y-14725476D01*
X11320428Y-14715952D01*
X11310905Y-14706428D01*
X11301381Y-14687381D01*
X11291857Y-14649286D01*
X11291857Y-14601667D01*
X11301381Y-14563571D01*
X11310905Y-14544524D01*
X11320428Y-14535000D01*
X11339476Y-14525476D01*
X11491857Y-14706428D02*
X11501381Y-14715952D01*
X11491857Y-14725476D01*
X11482333Y-14715952D01*
X11491857Y-14706428D01*
X11491857Y-14725476D01*
X11625190Y-14525476D02*
X11644238Y-14525476D01*
X11663286Y-14535000D01*
X11672809Y-14544524D01*
X11682333Y-14563571D01*
X11691857Y-14601667D01*
X11691857Y-14649286D01*
X11682333Y-14687381D01*
X11672809Y-14706428D01*
X11663286Y-14715952D01*
X11644238Y-14725476D01*
X11625190Y-14725476D01*
X11606143Y-14715952D01*
X11596619Y-14706428D01*
X11587095Y-14687381D01*
X11577571Y-14649286D01*
X11577571Y-14601667D01*
X11587095Y-14563571D01*
X11596619Y-14544524D01*
X11606143Y-14535000D01*
X11625190Y-14525476D01*
X11758524Y-14525476D02*
X11882333Y-14525476D01*
X11815667Y-14601667D01*
X11844238Y-14601667D01*
X11863286Y-14611190D01*
X11872809Y-14620714D01*
X11882333Y-14639762D01*
X11882333Y-14687381D01*
X11872809Y-14706428D01*
X11863286Y-14715952D01*
X11844238Y-14725476D01*
X11787095Y-14725476D01*
X11768048Y-14715952D01*
X11758524Y-14706428D01*
X11977571Y-14725476D02*
X12015667Y-14725476D01*
X12034714Y-14715952D01*
X12044238Y-14706428D01*
X12063286Y-14677857D01*
X12072809Y-14639762D01*
X12072809Y-14563571D01*
X12063286Y-14544524D01*
X12053762Y-14535000D01*
X12034714Y-14525476D01*
X11996619Y-14525476D01*
X11977571Y-14535000D01*
X11968048Y-14544524D01*
X11958524Y-14563571D01*
X11958524Y-14611190D01*
X11968048Y-14630238D01*
X11977571Y-14639762D01*
X11996619Y-14649286D01*
X12034714Y-14649286D01*
X12053762Y-14639762D01*
X12063286Y-14630238D01*
X12072809Y-14611190D01*
X12244238Y-14592143D02*
X12244238Y-14725476D01*
X12196619Y-14515952D02*
X12149000Y-14658809D01*
X12272809Y-14658809D01*
X12339476Y-14525476D02*
X12339476Y-14563571D01*
X12415667Y-14525476D02*
X12415667Y-14563571D01*
X12710905Y-14801667D02*
X12701381Y-14792143D01*
X12682333Y-14763571D01*
X12672809Y-14744524D01*
X12663286Y-14715952D01*
X12653762Y-14668333D01*
X12653762Y-14630238D01*
X12663286Y-14582619D01*
X12672809Y-14554048D01*
X12682333Y-14535000D01*
X12701381Y-14506428D01*
X12710905Y-14496905D01*
X12882333Y-14525476D02*
X12787095Y-14525476D01*
X12777571Y-14620714D01*
X12787095Y-14611190D01*
X12806143Y-14601667D01*
X12853762Y-14601667D01*
X12872809Y-14611190D01*
X12882333Y-14620714D01*
X12891857Y-14639762D01*
X12891857Y-14687381D01*
X12882333Y-14706428D01*
X12872809Y-14715952D01*
X12853762Y-14725476D01*
X12806143Y-14725476D01*
X12787095Y-14715952D01*
X12777571Y-14706428D01*
X13129952Y-14725476D02*
X13129952Y-14525476D01*
X13215667Y-14725476D02*
X13215667Y-14620714D01*
X13206143Y-14601667D01*
X13187095Y-14592143D01*
X13158524Y-14592143D01*
X13139476Y-14601667D01*
X13129952Y-14611190D01*
X13339476Y-14725476D02*
X13320428Y-14715952D01*
X13310905Y-14706428D01*
X13301381Y-14687381D01*
X13301381Y-14630238D01*
X13310905Y-14611190D01*
X13320428Y-14601667D01*
X13339476Y-14592143D01*
X13368048Y-14592143D01*
X13387095Y-14601667D01*
X13396619Y-14611190D01*
X13406143Y-14630238D01*
X13406143Y-14687381D01*
X13396619Y-14706428D01*
X13387095Y-14715952D01*
X13368048Y-14725476D01*
X13339476Y-14725476D01*
X13520428Y-14725476D02*
X13501381Y-14715952D01*
X13491857Y-14696905D01*
X13491857Y-14525476D01*
X13672809Y-14715952D02*
X13653762Y-14725476D01*
X13615667Y-14725476D01*
X13596619Y-14715952D01*
X13587095Y-14696905D01*
X13587095Y-14620714D01*
X13596619Y-14601667D01*
X13615667Y-14592143D01*
X13653762Y-14592143D01*
X13672809Y-14601667D01*
X13682333Y-14620714D01*
X13682333Y-14639762D01*
X13587095Y-14658809D01*
X13758524Y-14715952D02*
X13777571Y-14725476D01*
X13815667Y-14725476D01*
X13834714Y-14715952D01*
X13844238Y-14696905D01*
X13844238Y-14687381D01*
X13834714Y-14668333D01*
X13815667Y-14658809D01*
X13787095Y-14658809D01*
X13768048Y-14649286D01*
X13758524Y-14630238D01*
X13758524Y-14620714D01*
X13768048Y-14601667D01*
X13787095Y-14592143D01*
X13815667Y-14592143D01*
X13834714Y-14601667D01*
X13910905Y-14801667D02*
X13920428Y-14792143D01*
X13939476Y-14763571D01*
X13949000Y-14744524D01*
X13958524Y-14715952D01*
X13968048Y-14668333D01*
X13968048Y-14630238D01*
X13958524Y-14582619D01*
X13949000Y-14554048D01*
X13939476Y-14535000D01*
X13920428Y-14506428D01*
X13910905Y-14496905D01*
D10*
X9124356Y-14934356D02*
X9124356Y-14863644D01*
X9053644Y-14863644D01*
X9053644Y-14934356D01*
X9124356Y-14934356D01*
D11*
X9501381Y-14989476D02*
X9387095Y-14989476D01*
X9444238Y-14989476D02*
X9444238Y-14789476D01*
X9425190Y-14818048D01*
X9406143Y-14837095D01*
X9387095Y-14846619D01*
X9587095Y-14970428D02*
X9596619Y-14979952D01*
X9587095Y-14989476D01*
X9577571Y-14979952D01*
X9587095Y-14970428D01*
X9587095Y-14989476D01*
X9720429Y-14789476D02*
X9739476Y-14789476D01*
X9758524Y-14799000D01*
X9768048Y-14808524D01*
X9777571Y-14827571D01*
X9787095Y-14865667D01*
X9787095Y-14913286D01*
X9777571Y-14951381D01*
X9768048Y-14970428D01*
X9758524Y-14979952D01*
X9739476Y-14989476D01*
X9720429Y-14989476D01*
X9701381Y-14979952D01*
X9691857Y-14970428D01*
X9682333Y-14951381D01*
X9672810Y-14913286D01*
X9672810Y-14865667D01*
X9682333Y-14827571D01*
X9691857Y-14808524D01*
X9701381Y-14799000D01*
X9720429Y-14789476D01*
X9910905Y-14789476D02*
X9929952Y-14789476D01*
X9949000Y-14799000D01*
X9958524Y-14808524D01*
X9968048Y-14827571D01*
X9977571Y-14865667D01*
X9977571Y-14913286D01*
X9968048Y-14951381D01*
X9958524Y-14970428D01*
X9949000Y-14979952D01*
X9929952Y-14989476D01*
X9910905Y-14989476D01*
X9891857Y-14979952D01*
X9882333Y-14970428D01*
X9872810Y-14951381D01*
X9863286Y-14913286D01*
X9863286Y-14865667D01*
X9872810Y-14827571D01*
X9882333Y-14808524D01*
X9891857Y-14799000D01*
X9910905Y-14789476D01*
X10101381Y-14789476D02*
X10120429Y-14789476D01*
X10139476Y-14799000D01*
X10149000Y-14808524D01*
X10158524Y-14827571D01*
X10168048Y-14865667D01*
X10168048Y-14913286D01*
X10158524Y-14951381D01*
X10149000Y-14970428D01*
X10139476Y-14979952D01*
X10120429Y-14989476D01*
X10101381Y-14989476D01*
X10082333Y-14979952D01*
X10072810Y-14970428D01*
X10063286Y-14951381D01*
X10053762Y-14913286D01*
X10053762Y-14865667D01*
X10063286Y-14827571D01*
X10072810Y-14808524D01*
X10082333Y-14799000D01*
X10101381Y-14789476D01*
X10253762Y-14989476D02*
X10253762Y-14856143D01*
X10253762Y-14875190D02*
X10263286Y-14865667D01*
X10282333Y-14856143D01*
X10310905Y-14856143D01*
X10329952Y-14865667D01*
X10339476Y-14884714D01*
X10339476Y-14989476D01*
X10339476Y-14884714D02*
X10349000Y-14865667D01*
X10368048Y-14856143D01*
X10396619Y-14856143D01*
X10415667Y-14865667D01*
X10425190Y-14884714D01*
X10425190Y-14989476D01*
X10520429Y-14989476D02*
X10520429Y-14856143D01*
X10520429Y-14875190D02*
X10529952Y-14865667D01*
X10549000Y-14856143D01*
X10577571Y-14856143D01*
X10596619Y-14865667D01*
X10606143Y-14884714D01*
X10606143Y-14989476D01*
X10606143Y-14884714D02*
X10615667Y-14865667D01*
X10634714Y-14856143D01*
X10663286Y-14856143D01*
X10682333Y-14865667D01*
X10691857Y-14884714D01*
X10691857Y-14989476D01*
X11082333Y-14779952D02*
X10910905Y-15037095D01*
X11339476Y-14789476D02*
X11358524Y-14789476D01*
X11377571Y-14799000D01*
X11387095Y-14808524D01*
X11396619Y-14827571D01*
X11406143Y-14865667D01*
X11406143Y-14913286D01*
X11396619Y-14951381D01*
X11387095Y-14970428D01*
X11377571Y-14979952D01*
X11358524Y-14989476D01*
X11339476Y-14989476D01*
X11320428Y-14979952D01*
X11310905Y-14970428D01*
X11301381Y-14951381D01*
X11291857Y-14913286D01*
X11291857Y-14865667D01*
X11301381Y-14827571D01*
X11310905Y-14808524D01*
X11320428Y-14799000D01*
X11339476Y-14789476D01*
X11491857Y-14970428D02*
X11501381Y-14979952D01*
X11491857Y-14989476D01*
X11482333Y-14979952D01*
X11491857Y-14970428D01*
X11491857Y-14989476D01*
X11625190Y-14789476D02*
X11644238Y-14789476D01*
X11663286Y-14799000D01*
X11672809Y-14808524D01*
X11682333Y-14827571D01*
X11691857Y-14865667D01*
X11691857Y-14913286D01*
X11682333Y-14951381D01*
X11672809Y-14970428D01*
X11663286Y-14979952D01*
X11644238Y-14989476D01*
X11625190Y-14989476D01*
X11606143Y-14979952D01*
X11596619Y-14970428D01*
X11587095Y-14951381D01*
X11577571Y-14913286D01*
X11577571Y-14865667D01*
X11587095Y-14827571D01*
X11596619Y-14808524D01*
X11606143Y-14799000D01*
X11625190Y-14789476D01*
X11758524Y-14789476D02*
X11882333Y-14789476D01*
X11815667Y-14865667D01*
X11844238Y-14865667D01*
X11863286Y-14875190D01*
X11872809Y-14884714D01*
X11882333Y-14903762D01*
X11882333Y-14951381D01*
X11872809Y-14970428D01*
X11863286Y-14979952D01*
X11844238Y-14989476D01*
X11787095Y-14989476D01*
X11768048Y-14979952D01*
X11758524Y-14970428D01*
X11977571Y-14989476D02*
X12015667Y-14989476D01*
X12034714Y-14979952D01*
X12044238Y-14970428D01*
X12063286Y-14941857D01*
X12072809Y-14903762D01*
X12072809Y-14827571D01*
X12063286Y-14808524D01*
X12053762Y-14799000D01*
X12034714Y-14789476D01*
X11996619Y-14789476D01*
X11977571Y-14799000D01*
X11968048Y-14808524D01*
X11958524Y-14827571D01*
X11958524Y-14875190D01*
X11968048Y-14894238D01*
X11977571Y-14903762D01*
X11996619Y-14913286D01*
X12034714Y-14913286D01*
X12053762Y-14903762D01*
X12063286Y-14894238D01*
X12072809Y-14875190D01*
X12244238Y-14856143D02*
X12244238Y-14989476D01*
X12196619Y-14779952D02*
X12149000Y-14922809D01*
X12272809Y-14922809D01*
X12339476Y-14789476D02*
X12339476Y-14827571D01*
X12415667Y-14789476D02*
X12415667Y-14827571D01*
X12710905Y-15065667D02*
X12701381Y-15056143D01*
X12682333Y-15027571D01*
X12672809Y-15008524D01*
X12663286Y-14979952D01*
X12653762Y-14932333D01*
X12653762Y-14894238D01*
X12663286Y-14846619D01*
X12672809Y-14818048D01*
X12682333Y-14799000D01*
X12701381Y-14770428D01*
X12710905Y-14760905D01*
X12768048Y-14789476D02*
X12891857Y-14789476D01*
X12825190Y-14865667D01*
X12853762Y-14865667D01*
X12872809Y-14875190D01*
X12882333Y-14884714D01*
X12891857Y-14903762D01*
X12891857Y-14951381D01*
X12882333Y-14970428D01*
X12872809Y-14979952D01*
X12853762Y-14989476D01*
X12796619Y-14989476D01*
X12777571Y-14979952D01*
X12768048Y-14970428D01*
X13015667Y-14789476D02*
X13034714Y-14789476D01*
X13053762Y-14799000D01*
X13063286Y-14808524D01*
X13072809Y-14827571D01*
X13082333Y-14865667D01*
X13082333Y-14913286D01*
X13072809Y-14951381D01*
X13063286Y-14970428D01*
X13053762Y-14979952D01*
X13034714Y-14989476D01*
X13015667Y-14989476D01*
X12996619Y-14979952D01*
X12987095Y-14970428D01*
X12977571Y-14951381D01*
X12968048Y-14913286D01*
X12968048Y-14865667D01*
X12977571Y-14827571D01*
X12987095Y-14808524D01*
X12996619Y-14799000D01*
X13015667Y-14789476D01*
X13320428Y-14989476D02*
X13320428Y-14789476D01*
X13406143Y-14989476D02*
X13406143Y-14884714D01*
X13396619Y-14865667D01*
X13377571Y-14856143D01*
X13349000Y-14856143D01*
X13329952Y-14865667D01*
X13320428Y-14875190D01*
X13529952Y-14989476D02*
X13510905Y-14979952D01*
X13501381Y-14970428D01*
X13491857Y-14951381D01*
X13491857Y-14894238D01*
X13501381Y-14875190D01*
X13510905Y-14865667D01*
X13529952Y-14856143D01*
X13558524Y-14856143D01*
X13577571Y-14865667D01*
X13587095Y-14875190D01*
X13596619Y-14894238D01*
X13596619Y-14951381D01*
X13587095Y-14970428D01*
X13577571Y-14979952D01*
X13558524Y-14989476D01*
X13529952Y-14989476D01*
X13710905Y-14989476D02*
X13691857Y-14979952D01*
X13682333Y-14960905D01*
X13682333Y-14789476D01*
X13863286Y-14979952D02*
X13844238Y-14989476D01*
X13806143Y-14989476D01*
X13787095Y-14979952D01*
X13777571Y-14960905D01*
X13777571Y-14884714D01*
X13787095Y-14865667D01*
X13806143Y-14856143D01*
X13844238Y-14856143D01*
X13863286Y-14865667D01*
X13872809Y-14884714D01*
X13872809Y-14903762D01*
X13777571Y-14922809D01*
X13949000Y-14979952D02*
X13968048Y-14989476D01*
X14006143Y-14989476D01*
X14025190Y-14979952D01*
X14034714Y-14960905D01*
X14034714Y-14951381D01*
X14025190Y-14932333D01*
X14006143Y-14922809D01*
X13977571Y-14922809D01*
X13958524Y-14913286D01*
X13949000Y-14894238D01*
X13949000Y-14884714D01*
X13958524Y-14865667D01*
X13977571Y-14856143D01*
X14006143Y-14856143D01*
X14025190Y-14865667D01*
X14101381Y-15065667D02*
X14110905Y-15056143D01*
X14129952Y-15027571D01*
X14139476Y-15008524D01*
X14149000Y-14979952D01*
X14158524Y-14932333D01*
X14158524Y-14894238D01*
X14149000Y-14846619D01*
X14139476Y-14818048D01*
X14129952Y-14799000D01*
X14110905Y-14770428D01*
X14101381Y-14760905D01*
D14*
X9063000Y-15239000D02*
X9139000Y-15163000D01*
X9063000Y-15087000D01*
X8987000Y-15163000D01*
X9063000Y-15239000D01*
D11*
X9501381Y-15253476D02*
X9387095Y-15253476D01*
X9444238Y-15253476D02*
X9444238Y-15053476D01*
X9425190Y-15082048D01*
X9406143Y-15101095D01*
X9387095Y-15110619D01*
X9587095Y-15234428D02*
X9596619Y-15243952D01*
X9587095Y-15253476D01*
X9577571Y-15243952D01*
X9587095Y-15234428D01*
X9587095Y-15253476D01*
X9777571Y-15053476D02*
X9682333Y-15053476D01*
X9672810Y-15148714D01*
X9682333Y-15139190D01*
X9701381Y-15129667D01*
X9749000Y-15129667D01*
X9768048Y-15139190D01*
X9777571Y-15148714D01*
X9787095Y-15167762D01*
X9787095Y-15215381D01*
X9777571Y-15234428D01*
X9768048Y-15243952D01*
X9749000Y-15253476D01*
X9701381Y-15253476D01*
X9682333Y-15243952D01*
X9672810Y-15234428D01*
X9863286Y-15072524D02*
X9872810Y-15063000D01*
X9891857Y-15053476D01*
X9939476Y-15053476D01*
X9958524Y-15063000D01*
X9968048Y-15072524D01*
X9977571Y-15091571D01*
X9977571Y-15110619D01*
X9968048Y-15139190D01*
X9853762Y-15253476D01*
X9977571Y-15253476D01*
X10101381Y-15053476D02*
X10120429Y-15053476D01*
X10139476Y-15063000D01*
X10149000Y-15072524D01*
X10158524Y-15091571D01*
X10168048Y-15129667D01*
X10168048Y-15177286D01*
X10158524Y-15215381D01*
X10149000Y-15234428D01*
X10139476Y-15243952D01*
X10120429Y-15253476D01*
X10101381Y-15253476D01*
X10082333Y-15243952D01*
X10072810Y-15234428D01*
X10063286Y-15215381D01*
X10053762Y-15177286D01*
X10053762Y-15129667D01*
X10063286Y-15091571D01*
X10072810Y-15072524D01*
X10082333Y-15063000D01*
X10101381Y-15053476D01*
X10253762Y-15253476D02*
X10253762Y-15120143D01*
X10253762Y-15139190D02*
X10263286Y-15129667D01*
X10282333Y-15120143D01*
X10310905Y-15120143D01*
X10329952Y-15129667D01*
X10339476Y-15148714D01*
X10339476Y-15253476D01*
X10339476Y-15148714D02*
X10349000Y-15129667D01*
X10368048Y-15120143D01*
X10396619Y-15120143D01*
X10415667Y-15129667D01*
X10425190Y-15148714D01*
X10425190Y-15253476D01*
X10520429Y-15253476D02*
X10520429Y-15120143D01*
X10520429Y-15139190D02*
X10529952Y-15129667D01*
X10549000Y-15120143D01*
X10577571Y-15120143D01*
X10596619Y-15129667D01*
X10606143Y-15148714D01*
X10606143Y-15253476D01*
X10606143Y-15148714D02*
X10615667Y-15129667D01*
X10634714Y-15120143D01*
X10663286Y-15120143D01*
X10682333Y-15129667D01*
X10691857Y-15148714D01*
X10691857Y-15253476D01*
X11082333Y-15043952D02*
X10910905Y-15301095D01*
X11339476Y-15053476D02*
X11358524Y-15053476D01*
X11377571Y-15063000D01*
X11387095Y-15072524D01*
X11396619Y-15091571D01*
X11406143Y-15129667D01*
X11406143Y-15177286D01*
X11396619Y-15215381D01*
X11387095Y-15234428D01*
X11377571Y-15243952D01*
X11358524Y-15253476D01*
X11339476Y-15253476D01*
X11320428Y-15243952D01*
X11310905Y-15234428D01*
X11301381Y-15215381D01*
X11291857Y-15177286D01*
X11291857Y-15129667D01*
X11301381Y-15091571D01*
X11310905Y-15072524D01*
X11320428Y-15063000D01*
X11339476Y-15053476D01*
X11491857Y-15234428D02*
X11501381Y-15243952D01*
X11491857Y-15253476D01*
X11482333Y-15243952D01*
X11491857Y-15234428D01*
X11491857Y-15253476D01*
X11625190Y-15053476D02*
X11644238Y-15053476D01*
X11663286Y-15063000D01*
X11672809Y-15072524D01*
X11682333Y-15091571D01*
X11691857Y-15129667D01*
X11691857Y-15177286D01*
X11682333Y-15215381D01*
X11672809Y-15234428D01*
X11663286Y-15243952D01*
X11644238Y-15253476D01*
X11625190Y-15253476D01*
X11606143Y-15243952D01*
X11596619Y-15234428D01*
X11587095Y-15215381D01*
X11577571Y-15177286D01*
X11577571Y-15129667D01*
X11587095Y-15091571D01*
X11596619Y-15072524D01*
X11606143Y-15063000D01*
X11625190Y-15053476D01*
X11872809Y-15053476D02*
X11777571Y-15053476D01*
X11768048Y-15148714D01*
X11777571Y-15139190D01*
X11796619Y-15129667D01*
X11844238Y-15129667D01*
X11863286Y-15139190D01*
X11872809Y-15148714D01*
X11882333Y-15167762D01*
X11882333Y-15215381D01*
X11872809Y-15234428D01*
X11863286Y-15243952D01*
X11844238Y-15253476D01*
X11796619Y-15253476D01*
X11777571Y-15243952D01*
X11768048Y-15234428D01*
X11977571Y-15253476D02*
X12015667Y-15253476D01*
X12034714Y-15243952D01*
X12044238Y-15234428D01*
X12063286Y-15205857D01*
X12072809Y-15167762D01*
X12072809Y-15091571D01*
X12063286Y-15072524D01*
X12053762Y-15063000D01*
X12034714Y-15053476D01*
X11996619Y-15053476D01*
X11977571Y-15063000D01*
X11968048Y-15072524D01*
X11958524Y-15091571D01*
X11958524Y-15139190D01*
X11968048Y-15158238D01*
X11977571Y-15167762D01*
X11996619Y-15177286D01*
X12034714Y-15177286D01*
X12053762Y-15167762D01*
X12063286Y-15158238D01*
X12072809Y-15139190D01*
X12187095Y-15139190D02*
X12168048Y-15129667D01*
X12158524Y-15120143D01*
X12149000Y-15101095D01*
X12149000Y-15091571D01*
X12158524Y-15072524D01*
X12168048Y-15063000D01*
X12187095Y-15053476D01*
X12225190Y-15053476D01*
X12244238Y-15063000D01*
X12253762Y-15072524D01*
X12263286Y-15091571D01*
X12263286Y-15101095D01*
X12253762Y-15120143D01*
X12244238Y-15129667D01*
X12225190Y-15139190D01*
X12187095Y-15139190D01*
X12168048Y-15148714D01*
X12158524Y-15158238D01*
X12149000Y-15177286D01*
X12149000Y-15215381D01*
X12158524Y-15234428D01*
X12168048Y-15243952D01*
X12187095Y-15253476D01*
X12225190Y-15253476D01*
X12244238Y-15243952D01*
X12253762Y-15234428D01*
X12263286Y-15215381D01*
X12263286Y-15177286D01*
X12253762Y-15158238D01*
X12244238Y-15148714D01*
X12225190Y-15139190D01*
X12339476Y-15053476D02*
X12339476Y-15091571D01*
X12415667Y-15053476D02*
X12415667Y-15091571D01*
X12710905Y-15329667D02*
X12701381Y-15320143D01*
X12682333Y-15291571D01*
X12672809Y-15272524D01*
X12663286Y-15243952D01*
X12653762Y-15196333D01*
X12653762Y-15158238D01*
X12663286Y-15110619D01*
X12672809Y-15082048D01*
X12682333Y-15063000D01*
X12701381Y-15034428D01*
X12710905Y-15024905D01*
X12891857Y-15253476D02*
X12777571Y-15253476D01*
X12834714Y-15253476D02*
X12834714Y-15053476D01*
X12815667Y-15082048D01*
X12796619Y-15101095D01*
X12777571Y-15110619D01*
X13006143Y-15139190D02*
X12987095Y-15129667D01*
X12977571Y-15120143D01*
X12968048Y-15101095D01*
X12968048Y-15091571D01*
X12977571Y-15072524D01*
X12987095Y-15063000D01*
X13006143Y-15053476D01*
X13044238Y-15053476D01*
X13063286Y-15063000D01*
X13072809Y-15072524D01*
X13082333Y-15091571D01*
X13082333Y-15101095D01*
X13072809Y-15120143D01*
X13063286Y-15129667D01*
X13044238Y-15139190D01*
X13006143Y-15139190D01*
X12987095Y-15148714D01*
X12977571Y-15158238D01*
X12968048Y-15177286D01*
X12968048Y-15215381D01*
X12977571Y-15234428D01*
X12987095Y-15243952D01*
X13006143Y-15253476D01*
X13044238Y-15253476D01*
X13063286Y-15243952D01*
X13072809Y-15234428D01*
X13082333Y-15215381D01*
X13082333Y-15177286D01*
X13072809Y-15158238D01*
X13063286Y-15148714D01*
X13044238Y-15139190D01*
X13320428Y-15253476D02*
X13320428Y-15053476D01*
X13406143Y-15253476D02*
X13406143Y-15148714D01*
X13396619Y-15129667D01*
X13377571Y-15120143D01*
X13349000Y-15120143D01*
X13329952Y-15129667D01*
X13320428Y-15139190D01*
X13529952Y-15253476D02*
X13510905Y-15243952D01*
X13501381Y-15234428D01*
X13491857Y-15215381D01*
X13491857Y-15158238D01*
X13501381Y-15139190D01*
X13510905Y-15129667D01*
X13529952Y-15120143D01*
X13558524Y-15120143D01*
X13577571Y-15129667D01*
X13587095Y-15139190D01*
X13596619Y-15158238D01*
X13596619Y-15215381D01*
X13587095Y-15234428D01*
X13577571Y-15243952D01*
X13558524Y-15253476D01*
X13529952Y-15253476D01*
X13710905Y-15253476D02*
X13691857Y-15243952D01*
X13682333Y-15224905D01*
X13682333Y-15053476D01*
X13863286Y-15243952D02*
X13844238Y-15253476D01*
X13806143Y-15253476D01*
X13787095Y-15243952D01*
X13777571Y-15224905D01*
X13777571Y-15148714D01*
X13787095Y-15129667D01*
X13806143Y-15120143D01*
X13844238Y-15120143D01*
X13863286Y-15129667D01*
X13872809Y-15148714D01*
X13872809Y-15167762D01*
X13777571Y-15186809D01*
X13949000Y-15243952D02*
X13968048Y-15253476D01*
X14006143Y-15253476D01*
X14025190Y-15243952D01*
X14034714Y-15224905D01*
X14034714Y-15215381D01*
X14025190Y-15196333D01*
X14006143Y-15186809D01*
X13977571Y-15186809D01*
X13958524Y-15177286D01*
X13949000Y-15158238D01*
X13949000Y-15148714D01*
X13958524Y-15129667D01*
X13977571Y-15120143D01*
X14006143Y-15120143D01*
X14025190Y-15129667D01*
X14101381Y-15329667D02*
X14110905Y-15320143D01*
X14129952Y-15291571D01*
X14139476Y-15272524D01*
X14149000Y-15243952D01*
X14158524Y-15196333D01*
X14158524Y-15158238D01*
X14149000Y-15110619D01*
X14139476Y-15082048D01*
X14129952Y-15063000D01*
X14110905Y-15034428D01*
X14101381Y-15024905D01*
M02*
