%TF.GenerationSoftware,KiCad,Pcbnew,(6.0.7)*%
%TF.CreationDate,2022-08-10T04:42:37-07:00*%
%TF.ProjectId,pulse-pcb,70756c73-652d-4706-9362-2e6b69636164,rev?*%
%TF.SameCoordinates,Original*%
%TF.FileFunction,Copper,L2,Bot*%
%TF.FilePolarity,Positive*%
%FSLAX46Y46*%
G04 Gerber Fmt 4.6, Leading zero omitted, Abs format (unit mm)*
G04 Created by KiCad (PCBNEW (6.0.7)) date 2022-08-10 04:42:37*
%MOMM*%
%LPD*%
G01*
G04 APERTURE LIST*
%TA.AperFunction,ComponentPad*%
%ADD10R,3.000000X3.000000*%
%TD*%
%TA.AperFunction,ComponentPad*%
%ADD11C,3.000000*%
%TD*%
%TA.AperFunction,ComponentPad*%
%ADD12R,1.600000X1.600000*%
%TD*%
%TA.AperFunction,ComponentPad*%
%ADD13O,1.600000X1.600000*%
%TD*%
%TA.AperFunction,ViaPad*%
%ADD14C,0.800000*%
%TD*%
%TA.AperFunction,ViaPad*%
%ADD15C,2.400000*%
%TD*%
%TA.AperFunction,Conductor*%
%ADD16C,1.000000*%
%TD*%
%TA.AperFunction,Conductor*%
%ADD17C,0.300000*%
%TD*%
G04 APERTURE END LIST*
D10*
X104140000Y-129540000D03*
D11*
X109220000Y-129540000D03*
X114300000Y-129540000D03*
X119380000Y-129540000D03*
D10*
X134620000Y-71120000D03*
D11*
X139700000Y-71120000D03*
D10*
X127000000Y-129540000D03*
D11*
X132080000Y-129540000D03*
X137160000Y-129540000D03*
X142240000Y-129540000D03*
D12*
X125730000Y-118100000D03*
D13*
X128270000Y-118100000D03*
X130810000Y-118100000D03*
X133350000Y-118100000D03*
X135890000Y-118100000D03*
X138430000Y-118100000D03*
X140970000Y-118100000D03*
X143510000Y-118100000D03*
X143510000Y-105400000D03*
X140970000Y-105400000D03*
X138430000Y-105400000D03*
X135890000Y-105400000D03*
X133350000Y-105400000D03*
X130810000Y-105400000D03*
X128270000Y-105400000D03*
X125730000Y-105400000D03*
D12*
X102870000Y-118100000D03*
D13*
X105410000Y-118100000D03*
X107950000Y-118100000D03*
X110490000Y-118100000D03*
X113030000Y-118100000D03*
X115570000Y-118100000D03*
X118110000Y-118100000D03*
X120650000Y-118100000D03*
X120650000Y-105400000D03*
X118110000Y-105400000D03*
X115570000Y-105400000D03*
X113030000Y-105400000D03*
X110490000Y-105400000D03*
X107950000Y-105400000D03*
X105410000Y-105400000D03*
X102870000Y-105400000D03*
D10*
X96520000Y-96520000D03*
D11*
X96520000Y-91440000D03*
D10*
X96520000Y-83820000D03*
D11*
X96520000Y-78740000D03*
D12*
X113030000Y-96520000D03*
D13*
X115570000Y-96520000D03*
X118110000Y-96520000D03*
X120650000Y-96520000D03*
X123190000Y-96520000D03*
X125730000Y-96520000D03*
X128270000Y-96520000D03*
X130810000Y-96520000D03*
X133350000Y-96520000D03*
X135890000Y-96520000D03*
X138430000Y-96520000D03*
X140970000Y-96520000D03*
X143510000Y-96520000D03*
X146050000Y-96520000D03*
X148590000Y-96520000D03*
X148590000Y-81280000D03*
X146050000Y-81280000D03*
X143510000Y-81280000D03*
X140970000Y-81280000D03*
X138430000Y-81280000D03*
X135890000Y-81280000D03*
X133350000Y-81280000D03*
X130810000Y-81280000D03*
X128270000Y-81280000D03*
X125730000Y-81280000D03*
X123190000Y-81280000D03*
X120650000Y-81280000D03*
X118110000Y-81280000D03*
X115570000Y-81280000D03*
X113030000Y-81280000D03*
D10*
X111760000Y-71120000D03*
D11*
X116840000Y-71120000D03*
X121920000Y-71120000D03*
X127000000Y-71120000D03*
D14*
X118110000Y-83820000D03*
X111760000Y-90170000D03*
D15*
X113030000Y-83820000D03*
X105410000Y-86360000D03*
X120650000Y-121920000D03*
X143510000Y-121920000D03*
X104140000Y-121920000D03*
D16*
X110490000Y-83820000D02*
X113030000Y-83820000D01*
X107950000Y-86360000D02*
X110490000Y-83820000D01*
X105410000Y-86360000D02*
X107950000Y-86360000D01*
D17*
X111760000Y-90170000D02*
X118110000Y-83820000D01*
D16*
X143510000Y-121920000D02*
X120650000Y-121920000D01*
X104140000Y-121920000D02*
X120650000Y-121920000D01*
M02*
