%TF.GenerationSoftware,KiCad,Pcbnew,(6.0.7)*%
%TF.CreationDate,2022-08-10T04:04:00-07:00*%
%TF.ProjectId,pulse-pcb,70756c73-652d-4706-9362-2e6b69636164,rev?*%
%TF.SameCoordinates,Original*%
%TF.FileFunction,Copper,L2,Bot*%
%TF.FilePolarity,Positive*%
%FSLAX46Y46*%
G04 Gerber Fmt 4.6, Leading zero omitted, Abs format (unit mm)*
G04 Created by KiCad (PCBNEW (6.0.7)) date 2022-08-10 04:04:00*
%MOMM*%
%LPD*%
G01*
G04 APERTURE LIST*
%TA.AperFunction,ComponentPad*%
%ADD10R,3.000000X3.000000*%
%TD*%
%TA.AperFunction,ComponentPad*%
%ADD11C,3.000000*%
%TD*%
%TA.AperFunction,ComponentPad*%
%ADD12R,1.600000X1.600000*%
%TD*%
%TA.AperFunction,ComponentPad*%
%ADD13O,1.600000X1.600000*%
%TD*%
%TA.AperFunction,ViaPad*%
%ADD14C,0.800000*%
%TD*%
%TA.AperFunction,ViaPad*%
%ADD15C,2.400000*%
%TD*%
%TA.AperFunction,Conductor*%
%ADD16C,1.000000*%
%TD*%
%TA.AperFunction,Conductor*%
%ADD17C,0.300000*%
%TD*%
G04 APERTURE END LIST*
D10*
%TO.P,JSTEP1,1,Pin_1*%
%TO.N,Net-(A1-Pad3)*%
X104140000Y-129540000D03*
D11*
%TO.P,JSTEP1,2,Pin_2*%
%TO.N,Net-(A1-Pad4)*%
X109220000Y-129540000D03*
%TO.P,JSTEP1,3,Pin_3*%
%TO.N,Net-(A1-Pad5)*%
X114300000Y-129540000D03*
%TO.P,JSTEP1,4,Pin_4*%
%TO.N,Net-(A1-Pad6)*%
X119380000Y-129540000D03*
%TD*%
D10*
%TO.P,JI2C1,1,Pin_1*%
%TO.N,Net-(JI2C1-Pad1)*%
X134620000Y-71120000D03*
D11*
%TO.P,JI2C1,2,Pin_2*%
%TO.N,Net-(JI2C1-Pad2)*%
X139700000Y-71120000D03*
%TD*%
D10*
%TO.P,JSTEP2,1,Pin_1*%
%TO.N,Net-(A2-Pad3)*%
X127000000Y-129540000D03*
D11*
%TO.P,JSTEP2,2,Pin_2*%
%TO.N,Net-(A2-Pad4)*%
X132080000Y-129540000D03*
%TO.P,JSTEP2,3,Pin_3*%
%TO.N,Net-(A2-Pad5)*%
X137160000Y-129540000D03*
%TO.P,JSTEP2,4,Pin_4*%
%TO.N,Net-(A2-Pad6)*%
X142240000Y-129540000D03*
%TD*%
D12*
%TO.P,A2,1,GND*%
%TO.N,/GND*%
X125730000Y-118100000D03*
D13*
%TO.P,A2,2,VDD*%
%TO.N,Net-(A1-Pad2)*%
X128270000Y-118100000D03*
%TO.P,A2,3,1B*%
%TO.N,Net-(A2-Pad3)*%
X130810000Y-118100000D03*
%TO.P,A2,4,1A*%
%TO.N,Net-(A2-Pad4)*%
X133350000Y-118100000D03*
%TO.P,A2,5,2A*%
%TO.N,Net-(A2-Pad5)*%
X135890000Y-118100000D03*
%TO.P,A2,6,2B*%
%TO.N,Net-(A2-Pad6)*%
X138430000Y-118100000D03*
%TO.P,A2,7,GND*%
%TO.N,/GND*%
X140970000Y-118100000D03*
%TO.P,A2,8,VMOT*%
%TO.N,/+12V*%
X143510000Y-118100000D03*
%TO.P,A2,9,~{ENABLE}*%
%TO.N,/GND*%
X143510000Y-105400000D03*
%TO.P,A2,10,MS1*%
%TO.N,unconnected-(A2-Pad10)*%
X140970000Y-105400000D03*
%TO.P,A2,11,MS2*%
%TO.N,unconnected-(A2-Pad11)*%
X138430000Y-105400000D03*
%TO.P,A2,12,MS3*%
%TO.N,unconnected-(A2-Pad12)*%
X135890000Y-105400000D03*
%TO.P,A2,13,~{RESET}*%
%TO.N,unconnected-(A2-Pad13)*%
X133350000Y-105400000D03*
%TO.P,A2,14,~{SLEEP}*%
%TO.N,unconnected-(A2-Pad14)*%
X130810000Y-105400000D03*
%TO.P,A2,15,STEP*%
%TO.N,Net-(A2-Pad15)*%
X128270000Y-105400000D03*
%TO.P,A2,16,DIR*%
%TO.N,Net-(A2-Pad16)*%
X125730000Y-105400000D03*
%TD*%
D12*
%TO.P,A1,1,GND*%
%TO.N,/GND*%
X102870000Y-118100000D03*
D13*
%TO.P,A1,2,VDD*%
%TO.N,Net-(A1-Pad2)*%
X105410000Y-118100000D03*
%TO.P,A1,3,1B*%
%TO.N,Net-(A1-Pad3)*%
X107950000Y-118100000D03*
%TO.P,A1,4,1A*%
%TO.N,Net-(A1-Pad4)*%
X110490000Y-118100000D03*
%TO.P,A1,5,2A*%
%TO.N,Net-(A1-Pad5)*%
X113030000Y-118100000D03*
%TO.P,A1,6,2B*%
%TO.N,Net-(A1-Pad6)*%
X115570000Y-118100000D03*
%TO.P,A1,7,GND*%
%TO.N,/GND*%
X118110000Y-118100000D03*
%TO.P,A1,8,VMOT*%
%TO.N,/+12V*%
X120650000Y-118100000D03*
%TO.P,A1,9,~{ENABLE}*%
%TO.N,/GND*%
X120650000Y-105400000D03*
%TO.P,A1,10,MS1*%
%TO.N,unconnected-(A1-Pad10)*%
X118110000Y-105400000D03*
%TO.P,A1,11,MS2*%
%TO.N,unconnected-(A1-Pad11)*%
X115570000Y-105400000D03*
%TO.P,A1,12,MS3*%
%TO.N,unconnected-(A1-Pad12)*%
X113030000Y-105400000D03*
%TO.P,A1,13,~{RESET}*%
%TO.N,unconnected-(A1-Pad13)*%
X110490000Y-105400000D03*
%TO.P,A1,14,~{SLEEP}*%
%TO.N,unconnected-(A1-Pad14)*%
X107950000Y-105400000D03*
%TO.P,A1,15,STEP*%
%TO.N,Net-(A1-Pad15)*%
X105410000Y-105400000D03*
%TO.P,A1,16,DIR*%
%TO.N,Net-(A1-Pad16)*%
X102870000Y-105400000D03*
%TD*%
D10*
%TO.P,JLED1,1,Pin_1*%
%TO.N,/+12V*%
X96520000Y-96520000D03*
D11*
%TO.P,JLED1,2,Pin_2*%
%TO.N,/GND*%
X96520000Y-91440000D03*
%TD*%
D10*
%TO.P,JV1,1,+12V*%
%TO.N,/+12V*%
X96520000Y-83820000D03*
D11*
%TO.P,JV1,2,GND*%
%TO.N,/GND*%
X96520000Y-78740000D03*
%TD*%
D12*
%TO.P,N1,1,D1/TX*%
%TO.N,unconnected-(N1-Pad1)*%
X113030000Y-96520000D03*
D13*
%TO.P,N1,2,D0/RX*%
%TO.N,unconnected-(N1-Pad2)*%
X115570000Y-96520000D03*
%TO.P,N1,3,~{RESET}*%
%TO.N,unconnected-(N1-Pad3)*%
X118110000Y-96520000D03*
%TO.P,N1,4,GND*%
%TO.N,/GND*%
X120650000Y-96520000D03*
%TO.P,N1,5,D2*%
%TO.N,unconnected-(N1-Pad5)*%
X123190000Y-96520000D03*
%TO.P,N1,6,D3*%
%TO.N,unconnected-(N1-Pad6)*%
X125730000Y-96520000D03*
%TO.P,N1,7,D4*%
%TO.N,Net-(JPIR1-Pad3)*%
X128270000Y-96520000D03*
%TO.P,N1,8,D5*%
%TO.N,Net-(A2-Pad15)*%
X130810000Y-96520000D03*
%TO.P,N1,9,D6*%
%TO.N,Net-(A2-Pad16)*%
X133350000Y-96520000D03*
%TO.P,N1,10,D7*%
%TO.N,Net-(A1-Pad15)*%
X135890000Y-96520000D03*
%TO.P,N1,11,D8*%
%TO.N,Net-(A1-Pad16)*%
X138430000Y-96520000D03*
%TO.P,N1,12,D9*%
%TO.N,unconnected-(N1-Pad12)*%
X140970000Y-96520000D03*
%TO.P,N1,13,D10*%
%TO.N,unconnected-(N1-Pad13)*%
X143510000Y-96520000D03*
%TO.P,N1,14,D11*%
%TO.N,unconnected-(N1-Pad14)*%
X146050000Y-96520000D03*
%TO.P,N1,15,D12*%
%TO.N,unconnected-(N1-Pad15)*%
X148590000Y-96520000D03*
%TO.P,N1,16,D13*%
%TO.N,unconnected-(N1-Pad16)*%
X148590000Y-81280000D03*
%TO.P,N1,17,3V3*%
%TO.N,unconnected-(N1-Pad17)*%
X146050000Y-81280000D03*
%TO.P,N1,18,AREF*%
%TO.N,unconnected-(N1-Pad18)*%
X143510000Y-81280000D03*
%TO.P,N1,19,A0*%
%TO.N,unconnected-(N1-Pad19)*%
X140970000Y-81280000D03*
%TO.P,N1,20,A1*%
%TO.N,unconnected-(N1-Pad20)*%
X138430000Y-81280000D03*
%TO.P,N1,21,A2*%
%TO.N,unconnected-(N1-Pad21)*%
X135890000Y-81280000D03*
%TO.P,N1,22,A3*%
%TO.N,unconnected-(N1-Pad22)*%
X133350000Y-81280000D03*
%TO.P,N1,23,A4*%
%TO.N,Net-(JI2C1-Pad1)*%
X130810000Y-81280000D03*
%TO.P,N1,24,A5*%
%TO.N,Net-(JI2C1-Pad2)*%
X128270000Y-81280000D03*
%TO.P,N1,25,A6*%
%TO.N,unconnected-(N1-Pad25)*%
X125730000Y-81280000D03*
%TO.P,N1,26,A7*%
%TO.N,unconnected-(N1-Pad26)*%
X123190000Y-81280000D03*
%TO.P,N1,27,+5V*%
%TO.N,Net-(A1-Pad2)*%
X120650000Y-81280000D03*
%TO.P,N1,28,~{RESET}*%
%TO.N,unconnected-(N1-Pad28)*%
X118110000Y-81280000D03*
%TO.P,N1,29,GND*%
%TO.N,/GND*%
X115570000Y-81280000D03*
%TO.P,N1,30,VIN*%
%TO.N,/+12V*%
X113030000Y-81280000D03*
%TD*%
D10*
%TO.P,JPIR1,1,Pin_1*%
%TO.N,unconnected-(JPIR1-Pad1)*%
X111760000Y-71120000D03*
D11*
%TO.P,JPIR1,2,Pin_2*%
%TO.N,/GND*%
X116840000Y-71120000D03*
%TO.P,JPIR1,3,Pin_3*%
%TO.N,Net-(JPIR1-Pad3)*%
X121920000Y-71120000D03*
%TO.P,JPIR1,4,Pin_4*%
%TO.N,Net-(A1-Pad2)*%
X127000000Y-71120000D03*
%TD*%
D14*
%TO.N,Net-(A1-Pad2)*%
X118110000Y-83820000D03*
X111760000Y-90170000D03*
D15*
%TO.N,/+12V*%
X113030000Y-83820000D03*
X105410000Y-86360000D03*
X120650000Y-121920000D03*
X143510000Y-121920000D03*
X104140000Y-121920000D03*
%TD*%
D16*
%TO.N,/+12V*%
X110490000Y-83820000D02*
X113030000Y-83820000D01*
X107950000Y-86360000D02*
X110490000Y-83820000D01*
X105410000Y-86360000D02*
X107950000Y-86360000D01*
D17*
%TO.N,Net-(A1-Pad2)*%
X111760000Y-90170000D02*
X118110000Y-83820000D01*
D16*
%TO.N,/+12V*%
X143510000Y-121920000D02*
X120650000Y-121920000D01*
X104140000Y-121920000D02*
X120650000Y-121920000D01*
%TD*%
M02*
