%TF.GenerationSoftware,KiCad,Pcbnew,(6.0.7)*%
%TF.CreationDate,2022-08-10T04:04:00-07:00*%
%TF.ProjectId,pulse-pcb,70756c73-652d-4706-9362-2e6b69636164,rev?*%
%TF.SameCoordinates,Original*%
%TF.FileFunction,Legend,Top*%
%TF.FilePolarity,Positive*%
%FSLAX46Y46*%
G04 Gerber Fmt 4.6, Leading zero omitted, Abs format (unit mm)*
G04 Created by KiCad (PCBNEW (6.0.7)) date 2022-08-10 04:04:00*
%MOMM*%
%LPD*%
G01*
G04 APERTURE LIST*
%ADD10C,0.150000*%
%ADD11C,0.120000*%
G04 APERTURE END LIST*
D10*
X151852380Y-125269047D02*
X152566666Y-125269047D01*
X152709523Y-125316666D01*
X152804761Y-125411904D01*
X152852380Y-125554761D01*
X152852380Y-125650000D01*
X152852380Y-124316666D02*
X152852380Y-124792857D01*
X151852380Y-124792857D01*
X152757142Y-123411904D02*
X152804761Y-123459523D01*
X152852380Y-123602380D01*
X152852380Y-123697619D01*
X152804761Y-123840476D01*
X152709523Y-123935714D01*
X152614285Y-123983333D01*
X152423809Y-124030952D01*
X152280952Y-124030952D01*
X152090476Y-123983333D01*
X151995238Y-123935714D01*
X151900000Y-123840476D01*
X151852380Y-123697619D01*
X151852380Y-123602380D01*
X151900000Y-123459523D01*
X151947619Y-123411904D01*
X151852380Y-122697619D02*
X152566666Y-122697619D01*
X152709523Y-122745238D01*
X152804761Y-122840476D01*
X152852380Y-122983333D01*
X152852380Y-123078571D01*
X152852380Y-121745238D02*
X152852380Y-122221428D01*
X151852380Y-122221428D01*
X152757142Y-120840476D02*
X152804761Y-120888095D01*
X152852380Y-121030952D01*
X152852380Y-121126190D01*
X152804761Y-121269047D01*
X152709523Y-121364285D01*
X152614285Y-121411904D01*
X152423809Y-121459523D01*
X152280952Y-121459523D01*
X152090476Y-121411904D01*
X151995238Y-121364285D01*
X151900000Y-121269047D01*
X151852380Y-121126190D01*
X151852380Y-121030952D01*
X151900000Y-120888095D01*
X151947619Y-120840476D01*
X151852380Y-120126190D02*
X152566666Y-120126190D01*
X152709523Y-120173809D01*
X152804761Y-120269047D01*
X152852380Y-120411904D01*
X152852380Y-120507142D01*
X152852380Y-119173809D02*
X152852380Y-119650000D01*
X151852380Y-119650000D01*
X152757142Y-118269047D02*
X152804761Y-118316666D01*
X152852380Y-118459523D01*
X152852380Y-118554761D01*
X152804761Y-118697619D01*
X152709523Y-118792857D01*
X152614285Y-118840476D01*
X152423809Y-118888095D01*
X152280952Y-118888095D01*
X152090476Y-118840476D01*
X151995238Y-118792857D01*
X151900000Y-118697619D01*
X151852380Y-118554761D01*
X151852380Y-118459523D01*
X151900000Y-118316666D01*
X151947619Y-118269047D01*
X151852380Y-117554761D02*
X152566666Y-117554761D01*
X152709523Y-117602380D01*
X152804761Y-117697619D01*
X152852380Y-117840476D01*
X152852380Y-117935714D01*
X152852380Y-116602380D02*
X152852380Y-117078571D01*
X151852380Y-117078571D01*
X152757142Y-115697619D02*
X152804761Y-115745238D01*
X152852380Y-115888095D01*
X152852380Y-115983333D01*
X152804761Y-116126190D01*
X152709523Y-116221428D01*
X152614285Y-116269047D01*
X152423809Y-116316666D01*
X152280952Y-116316666D01*
X152090476Y-116269047D01*
X151995238Y-116221428D01*
X151900000Y-116126190D01*
X151852380Y-115983333D01*
X151852380Y-115888095D01*
X151900000Y-115745238D01*
X151947619Y-115697619D01*
X136279047Y-79192380D02*
X136279047Y-78192380D01*
X136707619Y-77954285D02*
X136802857Y-77906666D01*
X136945714Y-77906666D01*
X137040952Y-77954285D01*
X137088571Y-78049523D01*
X137088571Y-78144761D01*
X137040952Y-78240000D01*
X136707619Y-78573333D01*
X137088571Y-78573333D01*
X138088571Y-79097142D02*
X138040952Y-79144761D01*
X137898095Y-79192380D01*
X137802857Y-79192380D01*
X137660000Y-79144761D01*
X137564761Y-79049523D01*
X137517142Y-78954285D01*
X137469523Y-78763809D01*
X137469523Y-78620952D01*
X137517142Y-78430476D01*
X137564761Y-78335238D01*
X137660000Y-78240000D01*
X137802857Y-78192380D01*
X137898095Y-78192380D01*
X138040952Y-78240000D01*
X138088571Y-78287619D01*
X118380000Y-79192380D02*
X118380000Y-78192380D01*
X118760952Y-78192380D01*
X118856190Y-78240000D01*
X118903809Y-78287619D01*
X118951428Y-78382857D01*
X118951428Y-78525714D01*
X118903809Y-78620952D01*
X118856190Y-78668571D01*
X118760952Y-78716190D01*
X118380000Y-78716190D01*
X119380000Y-79192380D02*
X119380000Y-78192380D01*
X120427619Y-79192380D02*
X120094285Y-78716190D01*
X119856190Y-79192380D02*
X119856190Y-78192380D01*
X120237142Y-78192380D01*
X120332380Y-78240000D01*
X120380000Y-78287619D01*
X120427619Y-78382857D01*
X120427619Y-78525714D01*
X120380000Y-78620952D01*
X120332380Y-78668571D01*
X120237142Y-78716190D01*
X119856190Y-78716190D01*
X108498095Y-111212380D02*
X109069523Y-111212380D01*
X108783809Y-112212380D02*
X108783809Y-111212380D01*
X109402857Y-112212380D02*
X109402857Y-111212380D01*
X109736190Y-111926666D01*
X110069523Y-111212380D01*
X110069523Y-112212380D01*
X111117142Y-112117142D02*
X111069523Y-112164761D01*
X110926666Y-112212380D01*
X110831428Y-112212380D01*
X110688571Y-112164761D01*
X110593333Y-112069523D01*
X110545714Y-111974285D01*
X110498095Y-111783809D01*
X110498095Y-111640952D01*
X110545714Y-111450476D01*
X110593333Y-111355238D01*
X110688571Y-111260000D01*
X110831428Y-111212380D01*
X110926666Y-111212380D01*
X111069523Y-111260000D01*
X111117142Y-111307619D01*
X111498095Y-111307619D02*
X111545714Y-111260000D01*
X111640952Y-111212380D01*
X111879047Y-111212380D01*
X111974285Y-111260000D01*
X112021904Y-111307619D01*
X112069523Y-111402857D01*
X112069523Y-111498095D01*
X112021904Y-111640952D01*
X111450476Y-112212380D01*
X112069523Y-112212380D01*
X112450476Y-111307619D02*
X112498095Y-111260000D01*
X112593333Y-111212380D01*
X112831428Y-111212380D01*
X112926666Y-111260000D01*
X112974285Y-111307619D01*
X113021904Y-111402857D01*
X113021904Y-111498095D01*
X112974285Y-111640952D01*
X112402857Y-112212380D01*
X113021904Y-112212380D01*
X113640952Y-111212380D02*
X113736190Y-111212380D01*
X113831428Y-111260000D01*
X113879047Y-111307619D01*
X113926666Y-111402857D01*
X113974285Y-111593333D01*
X113974285Y-111831428D01*
X113926666Y-112021904D01*
X113879047Y-112117142D01*
X113831428Y-112164761D01*
X113736190Y-112212380D01*
X113640952Y-112212380D01*
X113545714Y-112164761D01*
X113498095Y-112117142D01*
X113450476Y-112021904D01*
X113402857Y-111831428D01*
X113402857Y-111593333D01*
X113450476Y-111402857D01*
X113498095Y-111307619D01*
X113545714Y-111260000D01*
X113640952Y-111212380D01*
X114545714Y-111640952D02*
X114450476Y-111593333D01*
X114402857Y-111545714D01*
X114355238Y-111450476D01*
X114355238Y-111402857D01*
X114402857Y-111307619D01*
X114450476Y-111260000D01*
X114545714Y-111212380D01*
X114736190Y-111212380D01*
X114831428Y-111260000D01*
X114879047Y-111307619D01*
X114926666Y-111402857D01*
X114926666Y-111450476D01*
X114879047Y-111545714D01*
X114831428Y-111593333D01*
X114736190Y-111640952D01*
X114545714Y-111640952D01*
X114450476Y-111688571D01*
X114402857Y-111736190D01*
X114355238Y-111831428D01*
X114355238Y-112021904D01*
X114402857Y-112117142D01*
X114450476Y-112164761D01*
X114545714Y-112212380D01*
X114736190Y-112212380D01*
X114831428Y-112164761D01*
X114879047Y-112117142D01*
X114926666Y-112021904D01*
X114926666Y-111831428D01*
X114879047Y-111736190D01*
X114831428Y-111688571D01*
X114736190Y-111640952D01*
X131358095Y-111212380D02*
X131929523Y-111212380D01*
X131643809Y-112212380D02*
X131643809Y-111212380D01*
X132262857Y-112212380D02*
X132262857Y-111212380D01*
X132596190Y-111926666D01*
X132929523Y-111212380D01*
X132929523Y-112212380D01*
X133977142Y-112117142D02*
X133929523Y-112164761D01*
X133786666Y-112212380D01*
X133691428Y-112212380D01*
X133548571Y-112164761D01*
X133453333Y-112069523D01*
X133405714Y-111974285D01*
X133358095Y-111783809D01*
X133358095Y-111640952D01*
X133405714Y-111450476D01*
X133453333Y-111355238D01*
X133548571Y-111260000D01*
X133691428Y-111212380D01*
X133786666Y-111212380D01*
X133929523Y-111260000D01*
X133977142Y-111307619D01*
X134358095Y-111307619D02*
X134405714Y-111260000D01*
X134500952Y-111212380D01*
X134739047Y-111212380D01*
X134834285Y-111260000D01*
X134881904Y-111307619D01*
X134929523Y-111402857D01*
X134929523Y-111498095D01*
X134881904Y-111640952D01*
X134310476Y-112212380D01*
X134929523Y-112212380D01*
X135310476Y-111307619D02*
X135358095Y-111260000D01*
X135453333Y-111212380D01*
X135691428Y-111212380D01*
X135786666Y-111260000D01*
X135834285Y-111307619D01*
X135881904Y-111402857D01*
X135881904Y-111498095D01*
X135834285Y-111640952D01*
X135262857Y-112212380D01*
X135881904Y-112212380D01*
X136500952Y-111212380D02*
X136596190Y-111212380D01*
X136691428Y-111260000D01*
X136739047Y-111307619D01*
X136786666Y-111402857D01*
X136834285Y-111593333D01*
X136834285Y-111831428D01*
X136786666Y-112021904D01*
X136739047Y-112117142D01*
X136691428Y-112164761D01*
X136596190Y-112212380D01*
X136500952Y-112212380D01*
X136405714Y-112164761D01*
X136358095Y-112117142D01*
X136310476Y-112021904D01*
X136262857Y-111831428D01*
X136262857Y-111593333D01*
X136310476Y-111402857D01*
X136358095Y-111307619D01*
X136405714Y-111260000D01*
X136500952Y-111212380D01*
X137405714Y-111640952D02*
X137310476Y-111593333D01*
X137262857Y-111545714D01*
X137215238Y-111450476D01*
X137215238Y-111402857D01*
X137262857Y-111307619D01*
X137310476Y-111260000D01*
X137405714Y-111212380D01*
X137596190Y-111212380D01*
X137691428Y-111260000D01*
X137739047Y-111307619D01*
X137786666Y-111402857D01*
X137786666Y-111450476D01*
X137739047Y-111545714D01*
X137691428Y-111593333D01*
X137596190Y-111640952D01*
X137405714Y-111640952D01*
X137310476Y-111688571D01*
X137262857Y-111736190D01*
X137215238Y-111831428D01*
X137215238Y-112021904D01*
X137262857Y-112117142D01*
X137310476Y-112164761D01*
X137405714Y-112212380D01*
X137596190Y-112212380D01*
X137691428Y-112164761D01*
X137739047Y-112117142D01*
X137786666Y-112021904D01*
X137786666Y-111831428D01*
X137739047Y-111736190D01*
X137691428Y-111688571D01*
X137596190Y-111640952D01*
X127222857Y-89066666D02*
X127699047Y-89066666D01*
X127127619Y-89352380D02*
X127460952Y-88352380D01*
X127794285Y-89352380D01*
X128127619Y-89352380D02*
X128127619Y-88685714D01*
X128127619Y-88876190D02*
X128175238Y-88780952D01*
X128222857Y-88733333D01*
X128318095Y-88685714D01*
X128413333Y-88685714D01*
X129175238Y-89352380D02*
X129175238Y-88352380D01*
X129175238Y-89304761D02*
X129080000Y-89352380D01*
X128889523Y-89352380D01*
X128794285Y-89304761D01*
X128746666Y-89257142D01*
X128699047Y-89161904D01*
X128699047Y-88876190D01*
X128746666Y-88780952D01*
X128794285Y-88733333D01*
X128889523Y-88685714D01*
X129080000Y-88685714D01*
X129175238Y-88733333D01*
X130080000Y-88685714D02*
X130080000Y-89352380D01*
X129651428Y-88685714D02*
X129651428Y-89209523D01*
X129699047Y-89304761D01*
X129794285Y-89352380D01*
X129937142Y-89352380D01*
X130032380Y-89304761D01*
X130080000Y-89257142D01*
X130556190Y-89352380D02*
X130556190Y-88685714D01*
X130556190Y-88352380D02*
X130508571Y-88400000D01*
X130556190Y-88447619D01*
X130603809Y-88400000D01*
X130556190Y-88352380D01*
X130556190Y-88447619D01*
X131032380Y-88685714D02*
X131032380Y-89352380D01*
X131032380Y-88780952D02*
X131080000Y-88733333D01*
X131175238Y-88685714D01*
X131318095Y-88685714D01*
X131413333Y-88733333D01*
X131460952Y-88828571D01*
X131460952Y-89352380D01*
X132080000Y-89352380D02*
X131984761Y-89304761D01*
X131937142Y-89257142D01*
X131889523Y-89161904D01*
X131889523Y-88876190D01*
X131937142Y-88780952D01*
X131984761Y-88733333D01*
X132080000Y-88685714D01*
X132222857Y-88685714D01*
X132318095Y-88733333D01*
X132365714Y-88780952D01*
X132413333Y-88876190D01*
X132413333Y-89161904D01*
X132365714Y-89257142D01*
X132318095Y-89304761D01*
X132222857Y-89352380D01*
X132080000Y-89352380D01*
X133603809Y-89352380D02*
X133603809Y-88352380D01*
X134175238Y-89352380D01*
X134175238Y-88352380D01*
X135080000Y-89352380D02*
X135080000Y-88828571D01*
X135032380Y-88733333D01*
X134937142Y-88685714D01*
X134746666Y-88685714D01*
X134651428Y-88733333D01*
X135080000Y-89304761D02*
X134984761Y-89352380D01*
X134746666Y-89352380D01*
X134651428Y-89304761D01*
X134603809Y-89209523D01*
X134603809Y-89114285D01*
X134651428Y-89019047D01*
X134746666Y-88971428D01*
X134984761Y-88971428D01*
X135080000Y-88923809D01*
X135556190Y-88685714D02*
X135556190Y-89352380D01*
X135556190Y-88780952D02*
X135603809Y-88733333D01*
X135699047Y-88685714D01*
X135841904Y-88685714D01*
X135937142Y-88733333D01*
X135984761Y-88828571D01*
X135984761Y-89352380D01*
X136603809Y-89352380D02*
X136508571Y-89304761D01*
X136460952Y-89257142D01*
X136413333Y-89161904D01*
X136413333Y-88876190D01*
X136460952Y-88780952D01*
X136508571Y-88733333D01*
X136603809Y-88685714D01*
X136746666Y-88685714D01*
X136841904Y-88733333D01*
X136889523Y-88780952D01*
X136937142Y-88876190D01*
X136937142Y-89161904D01*
X136889523Y-89257142D01*
X136841904Y-89304761D01*
X136746666Y-89352380D01*
X136603809Y-89352380D01*
X131096190Y-122324761D02*
X131239047Y-122372380D01*
X131477142Y-122372380D01*
X131572380Y-122324761D01*
X131620000Y-122277142D01*
X131667619Y-122181904D01*
X131667619Y-122086666D01*
X131620000Y-121991428D01*
X131572380Y-121943809D01*
X131477142Y-121896190D01*
X131286666Y-121848571D01*
X131191428Y-121800952D01*
X131143809Y-121753333D01*
X131096190Y-121658095D01*
X131096190Y-121562857D01*
X131143809Y-121467619D01*
X131191428Y-121420000D01*
X131286666Y-121372380D01*
X131524761Y-121372380D01*
X131667619Y-121420000D01*
X131953333Y-121705714D02*
X132334285Y-121705714D01*
X132096190Y-121372380D02*
X132096190Y-122229523D01*
X132143809Y-122324761D01*
X132239047Y-122372380D01*
X132334285Y-122372380D01*
X133048571Y-122324761D02*
X132953333Y-122372380D01*
X132762857Y-122372380D01*
X132667619Y-122324761D01*
X132620000Y-122229523D01*
X132620000Y-121848571D01*
X132667619Y-121753333D01*
X132762857Y-121705714D01*
X132953333Y-121705714D01*
X133048571Y-121753333D01*
X133096190Y-121848571D01*
X133096190Y-121943809D01*
X132620000Y-122039047D01*
X133524761Y-121705714D02*
X133524761Y-122705714D01*
X133524761Y-121753333D02*
X133620000Y-121705714D01*
X133810476Y-121705714D01*
X133905714Y-121753333D01*
X133953333Y-121800952D01*
X134000952Y-121896190D01*
X134000952Y-122181904D01*
X133953333Y-122277142D01*
X133905714Y-122324761D01*
X133810476Y-122372380D01*
X133620000Y-122372380D01*
X133524761Y-122324761D01*
X134429523Y-121705714D02*
X134429523Y-122705714D01*
X134429523Y-121753333D02*
X134524761Y-121705714D01*
X134715238Y-121705714D01*
X134810476Y-121753333D01*
X134858095Y-121800952D01*
X134905714Y-121896190D01*
X134905714Y-122181904D01*
X134858095Y-122277142D01*
X134810476Y-122324761D01*
X134715238Y-122372380D01*
X134524761Y-122372380D01*
X134429523Y-122324761D01*
X135715238Y-122324761D02*
X135620000Y-122372380D01*
X135429523Y-122372380D01*
X135334285Y-122324761D01*
X135286666Y-122229523D01*
X135286666Y-121848571D01*
X135334285Y-121753333D01*
X135429523Y-121705714D01*
X135620000Y-121705714D01*
X135715238Y-121753333D01*
X135762857Y-121848571D01*
X135762857Y-121943809D01*
X135286666Y-122039047D01*
X136191428Y-122372380D02*
X136191428Y-121705714D01*
X136191428Y-121896190D02*
X136239047Y-121800952D01*
X136286666Y-121753333D01*
X136381904Y-121705714D01*
X136477142Y-121705714D01*
X138143809Y-122372380D02*
X137810476Y-121896190D01*
X137572380Y-122372380D02*
X137572380Y-121372380D01*
X137953333Y-121372380D01*
X138048571Y-121420000D01*
X138096190Y-121467619D01*
X138143809Y-121562857D01*
X138143809Y-121705714D01*
X138096190Y-121800952D01*
X138048571Y-121848571D01*
X137953333Y-121896190D01*
X137572380Y-121896190D01*
X108331428Y-122324761D02*
X108474285Y-122372380D01*
X108712380Y-122372380D01*
X108807619Y-122324761D01*
X108855238Y-122277142D01*
X108902857Y-122181904D01*
X108902857Y-122086666D01*
X108855238Y-121991428D01*
X108807619Y-121943809D01*
X108712380Y-121896190D01*
X108521904Y-121848571D01*
X108426666Y-121800952D01*
X108379047Y-121753333D01*
X108331428Y-121658095D01*
X108331428Y-121562857D01*
X108379047Y-121467619D01*
X108426666Y-121420000D01*
X108521904Y-121372380D01*
X108760000Y-121372380D01*
X108902857Y-121420000D01*
X109188571Y-121705714D02*
X109569523Y-121705714D01*
X109331428Y-121372380D02*
X109331428Y-122229523D01*
X109379047Y-122324761D01*
X109474285Y-122372380D01*
X109569523Y-122372380D01*
X110283809Y-122324761D02*
X110188571Y-122372380D01*
X109998095Y-122372380D01*
X109902857Y-122324761D01*
X109855238Y-122229523D01*
X109855238Y-121848571D01*
X109902857Y-121753333D01*
X109998095Y-121705714D01*
X110188571Y-121705714D01*
X110283809Y-121753333D01*
X110331428Y-121848571D01*
X110331428Y-121943809D01*
X109855238Y-122039047D01*
X110760000Y-121705714D02*
X110760000Y-122705714D01*
X110760000Y-121753333D02*
X110855238Y-121705714D01*
X111045714Y-121705714D01*
X111140952Y-121753333D01*
X111188571Y-121800952D01*
X111236190Y-121896190D01*
X111236190Y-122181904D01*
X111188571Y-122277142D01*
X111140952Y-122324761D01*
X111045714Y-122372380D01*
X110855238Y-122372380D01*
X110760000Y-122324761D01*
X111664761Y-121705714D02*
X111664761Y-122705714D01*
X111664761Y-121753333D02*
X111760000Y-121705714D01*
X111950476Y-121705714D01*
X112045714Y-121753333D01*
X112093333Y-121800952D01*
X112140952Y-121896190D01*
X112140952Y-122181904D01*
X112093333Y-122277142D01*
X112045714Y-122324761D01*
X111950476Y-122372380D01*
X111760000Y-122372380D01*
X111664761Y-122324761D01*
X112950476Y-122324761D02*
X112855238Y-122372380D01*
X112664761Y-122372380D01*
X112569523Y-122324761D01*
X112521904Y-122229523D01*
X112521904Y-121848571D01*
X112569523Y-121753333D01*
X112664761Y-121705714D01*
X112855238Y-121705714D01*
X112950476Y-121753333D01*
X112998095Y-121848571D01*
X112998095Y-121943809D01*
X112521904Y-122039047D01*
X113426666Y-122372380D02*
X113426666Y-121705714D01*
X113426666Y-121896190D02*
X113474285Y-121800952D01*
X113521904Y-121753333D01*
X113617142Y-121705714D01*
X113712380Y-121705714D01*
X115283809Y-122372380D02*
X114807619Y-122372380D01*
X114807619Y-121372380D01*
X102411785Y-94432380D02*
X101935595Y-94432380D01*
X101935595Y-93432380D01*
X102745119Y-93908571D02*
X103078452Y-93908571D01*
X103221309Y-94432380D02*
X102745119Y-94432380D01*
X102745119Y-93432380D01*
X103221309Y-93432380D01*
X103649880Y-94432380D02*
X103649880Y-93432380D01*
X103887976Y-93432380D01*
X104030833Y-93480000D01*
X104126071Y-93575238D01*
X104173690Y-93670476D01*
X104221309Y-93860952D01*
X104221309Y-94003809D01*
X104173690Y-94194285D01*
X104126071Y-94289523D01*
X104030833Y-94384761D01*
X103887976Y-94432380D01*
X103649880Y-94432380D01*
X104602261Y-94384761D02*
X104697500Y-94432380D01*
X104887976Y-94432380D01*
X104983214Y-94384761D01*
X105030833Y-94289523D01*
X105030833Y-94241904D01*
X104983214Y-94146666D01*
X104887976Y-94099047D01*
X104745119Y-94099047D01*
X104649880Y-94051428D01*
X104602261Y-93956190D01*
X104602261Y-93908571D01*
X104649880Y-93813333D01*
X104745119Y-93765714D01*
X104887976Y-93765714D01*
X104983214Y-93813333D01*
X101887976Y-81684761D02*
X102030833Y-81732380D01*
X102268928Y-81732380D01*
X102364166Y-81684761D01*
X102411785Y-81637142D01*
X102459404Y-81541904D01*
X102459404Y-81446666D01*
X102411785Y-81351428D01*
X102364166Y-81303809D01*
X102268928Y-81256190D01*
X102078452Y-81208571D01*
X101983214Y-81160952D01*
X101935595Y-81113333D01*
X101887976Y-81018095D01*
X101887976Y-80922857D01*
X101935595Y-80827619D01*
X101983214Y-80780000D01*
X102078452Y-80732380D01*
X102316547Y-80732380D01*
X102459404Y-80780000D01*
X103316547Y-81065714D02*
X103316547Y-81732380D01*
X102887976Y-81065714D02*
X102887976Y-81589523D01*
X102935595Y-81684761D01*
X103030833Y-81732380D01*
X103173690Y-81732380D01*
X103268928Y-81684761D01*
X103316547Y-81637142D01*
X103792738Y-81065714D02*
X103792738Y-82065714D01*
X103792738Y-81113333D02*
X103887976Y-81065714D01*
X104078452Y-81065714D01*
X104173690Y-81113333D01*
X104221309Y-81160952D01*
X104268928Y-81256190D01*
X104268928Y-81541904D01*
X104221309Y-81637142D01*
X104173690Y-81684761D01*
X104078452Y-81732380D01*
X103887976Y-81732380D01*
X103792738Y-81684761D01*
X104697500Y-81065714D02*
X104697500Y-82065714D01*
X104697500Y-81113333D02*
X104792738Y-81065714D01*
X104983214Y-81065714D01*
X105078452Y-81113333D01*
X105126071Y-81160952D01*
X105173690Y-81256190D01*
X105173690Y-81541904D01*
X105126071Y-81637142D01*
X105078452Y-81684761D01*
X104983214Y-81732380D01*
X104792738Y-81732380D01*
X104697500Y-81684761D01*
X105745119Y-81732380D02*
X105649880Y-81684761D01*
X105602261Y-81589523D01*
X105602261Y-80732380D01*
X106030833Y-81065714D02*
X106268928Y-81732380D01*
X106507023Y-81065714D02*
X106268928Y-81732380D01*
X106173690Y-81970476D01*
X106126071Y-82018095D01*
X106030833Y-82065714D01*
%TO.C,kibuzzard-62F38FA3*%
G36*
X98336541Y-117170024D02*
G01*
X98302145Y-117258130D01*
X98244819Y-117327362D01*
X98167560Y-117377192D01*
X98073369Y-117407090D01*
X97962244Y-117417056D01*
X97849090Y-117408678D01*
X97753047Y-117383542D01*
X97674112Y-117341650D01*
X97615463Y-117283353D01*
X97580274Y-117209006D01*
X97568544Y-117118606D01*
X97572286Y-117085269D01*
X97736819Y-117085269D01*
X97750709Y-117145594D01*
X97792381Y-117186869D01*
X97860247Y-117210681D01*
X97952719Y-117218619D01*
X98043603Y-117209292D01*
X98116231Y-117181312D01*
X98163856Y-117132695D01*
X98179731Y-117061456D01*
X98178144Y-117017006D01*
X98173381Y-116974144D01*
X97766981Y-116974144D01*
X97745550Y-117024944D01*
X97736819Y-117085269D01*
X97572286Y-117085269D01*
X97577275Y-117040819D01*
X97601881Y-116974144D01*
X97262156Y-116974144D01*
X97228819Y-116778881D01*
X98308319Y-116778881D01*
X98324194Y-116838809D01*
X98336894Y-116910644D01*
X98345228Y-116987637D01*
X98347948Y-117061456D01*
X98348006Y-117063044D01*
X98336541Y-117170024D01*
G37*
G36*
X98338481Y-115241387D02*
G01*
X98348006Y-115362831D01*
X98336894Y-115483481D01*
X98294031Y-115572381D01*
X98204337Y-115627944D01*
X98137464Y-115642231D01*
X98052731Y-115646994D01*
X97746344Y-115646994D01*
X97746344Y-115816856D01*
X97584419Y-115816856D01*
X97584419Y-115646994D01*
X97397094Y-115646994D01*
X97365344Y-115451731D01*
X97584419Y-115451731D01*
X97584419Y-115138994D01*
X97746344Y-115138994D01*
X97746344Y-115451731D01*
X98047969Y-115451731D01*
X98114644Y-115443794D01*
X98154331Y-115421569D01*
X98173381Y-115386644D01*
X98178144Y-115340606D01*
X98176556Y-115290600D01*
X98171000Y-115246150D01*
X98159094Y-115201700D01*
X98138456Y-115151694D01*
X98306731Y-115124706D01*
X98338481Y-115241387D01*
G37*
G36*
X98338481Y-108097637D02*
G01*
X98348006Y-108219081D01*
X98336894Y-108339731D01*
X98294031Y-108428631D01*
X98204337Y-108484194D01*
X98137464Y-108498481D01*
X98052731Y-108503244D01*
X97746344Y-108503244D01*
X97746344Y-108673106D01*
X97584419Y-108673106D01*
X97584419Y-108503244D01*
X97397094Y-108503244D01*
X97365344Y-108307981D01*
X97584419Y-108307981D01*
X97584419Y-107995244D01*
X97746344Y-107995244D01*
X97746344Y-108307981D01*
X98047969Y-108307981D01*
X98114644Y-108300044D01*
X98154331Y-108277819D01*
X98173381Y-108242894D01*
X98178144Y-108196856D01*
X98176556Y-108146850D01*
X98171000Y-108102400D01*
X98159094Y-108057950D01*
X98138456Y-108007944D01*
X98306731Y-107980956D01*
X98338481Y-108097637D01*
G37*
G36*
X97691575Y-119869793D02*
G01*
X97795556Y-119881055D01*
X97896362Y-119894003D01*
X97993994Y-119908637D01*
X98116760Y-119930069D01*
X98228944Y-119953088D01*
X98330544Y-119977694D01*
X98330544Y-120125331D01*
X98240056Y-120157875D01*
X98159888Y-120186450D01*
X98078925Y-120213438D01*
X97986056Y-120241219D01*
X98077337Y-120269794D01*
X98157506Y-120295988D01*
X98238469Y-120323769D01*
X98330544Y-120358694D01*
X98330544Y-120506331D01*
X98256923Y-120524786D01*
X98175762Y-120542050D01*
X98088053Y-120558123D01*
X97994787Y-120573006D01*
X97896958Y-120586500D01*
X97795556Y-120598406D01*
X97691178Y-120609122D01*
X97584419Y-120619044D01*
X97584419Y-120452356D01*
X97675788Y-120448035D01*
X97765747Y-120443537D01*
X97854294Y-120438862D01*
X97943017Y-120432777D01*
X98033505Y-120424046D01*
X98125756Y-120412669D01*
X98013837Y-120376950D01*
X97915412Y-120349963D01*
X97824925Y-120327737D01*
X97735231Y-120306306D01*
X97735231Y-120165019D01*
X97824925Y-120145175D01*
X97915412Y-120122950D01*
X98013837Y-120097550D01*
X98125756Y-120065006D01*
X98054319Y-120056275D01*
X97986056Y-120049131D01*
X97919580Y-120043377D01*
X97853500Y-120038813D01*
X97721737Y-120032463D01*
X97654467Y-120029883D01*
X97584419Y-120026906D01*
X97584419Y-119860219D01*
X97691575Y-119869793D01*
G37*
G36*
X98322606Y-112444212D02*
G01*
X98288078Y-112504141D01*
X98241644Y-112555337D01*
X98184295Y-112596811D01*
X98117025Y-112627569D01*
X98040627Y-112646619D01*
X97955894Y-112652969D01*
X97872352Y-112646420D01*
X97796350Y-112626775D01*
X97729278Y-112595422D01*
X97672525Y-112553750D01*
X97626884Y-112502355D01*
X97593150Y-112441831D01*
X97572314Y-112373966D01*
X97565369Y-112300544D01*
X97735231Y-112300544D01*
X97750511Y-112367417D01*
X97796350Y-112415637D01*
X97867192Y-112444808D01*
X97957481Y-112454531D01*
X98047969Y-112445602D01*
X98119406Y-112418812D01*
X98165841Y-112372180D01*
X98181319Y-112303719D01*
X98165841Y-112236845D01*
X98119406Y-112188625D01*
X98047969Y-112159455D01*
X97957481Y-112149731D01*
X97867192Y-112158661D01*
X97796350Y-112185450D01*
X97750511Y-112232083D01*
X97735231Y-112300544D01*
X97565369Y-112300544D01*
X97572314Y-112226130D01*
X97593150Y-112158462D01*
X97626884Y-112098534D01*
X97672525Y-112047337D01*
X97729278Y-112005864D01*
X97796350Y-111975106D01*
X97872352Y-111956056D01*
X97955894Y-111949706D01*
X98040627Y-111956056D01*
X98117025Y-111975106D01*
X98184295Y-112005666D01*
X98241644Y-112046544D01*
X98288078Y-112097145D01*
X98322606Y-112156875D01*
X98344038Y-112224939D01*
X98351181Y-112300544D01*
X98350881Y-112303719D01*
X98344038Y-112376148D01*
X98322606Y-112444212D01*
G37*
G36*
X98322606Y-114825462D02*
G01*
X98288078Y-114885391D01*
X98241644Y-114936587D01*
X98184295Y-114978061D01*
X98117025Y-115008819D01*
X98040627Y-115027869D01*
X97955894Y-115034219D01*
X97872352Y-115027670D01*
X97796350Y-115008025D01*
X97729278Y-114976672D01*
X97672525Y-114935000D01*
X97626884Y-114883605D01*
X97593150Y-114823081D01*
X97572314Y-114755216D01*
X97565369Y-114681794D01*
X97735231Y-114681794D01*
X97750511Y-114748667D01*
X97796350Y-114796887D01*
X97867192Y-114826058D01*
X97957481Y-114835781D01*
X98047969Y-114826852D01*
X98119406Y-114800062D01*
X98165841Y-114753430D01*
X98181319Y-114684969D01*
X98165841Y-114618095D01*
X98119406Y-114569875D01*
X98047969Y-114540705D01*
X97957481Y-114530981D01*
X97867192Y-114539911D01*
X97796350Y-114566700D01*
X97750511Y-114613333D01*
X97735231Y-114681794D01*
X97565369Y-114681794D01*
X97572314Y-114607380D01*
X97593150Y-114539712D01*
X97626884Y-114479784D01*
X97672525Y-114428587D01*
X97729278Y-114387114D01*
X97796350Y-114356356D01*
X97872352Y-114337306D01*
X97955894Y-114330956D01*
X98040627Y-114337306D01*
X98117025Y-114356356D01*
X98184295Y-114386916D01*
X98241644Y-114427794D01*
X98288078Y-114478395D01*
X98322606Y-114538125D01*
X98344038Y-114606189D01*
X98351181Y-114681794D01*
X98350881Y-114684969D01*
X98344038Y-114757398D01*
X98322606Y-114825462D01*
G37*
G36*
X98086267Y-110051850D02*
G01*
X98136075Y-110006606D01*
X98167627Y-109937550D01*
X98178144Y-109851031D01*
X98165444Y-109739112D01*
X98140044Y-109649419D01*
X98306731Y-109622431D01*
X98336100Y-109730381D01*
X98348006Y-109858969D01*
X98341855Y-109949258D01*
X98323400Y-110029625D01*
X98292841Y-110099475D01*
X98250375Y-110158212D01*
X98196202Y-110205242D01*
X98130519Y-110239969D01*
X98053128Y-110261400D01*
X97963831Y-110268544D01*
X97871359Y-110261003D01*
X97790794Y-110238381D01*
X97722333Y-110203456D01*
X97666175Y-110159006D01*
X97622320Y-110106222D01*
X97590769Y-110046294D01*
X97571719Y-109982000D01*
X97565369Y-109916119D01*
X97565709Y-109912944D01*
X97728881Y-109912944D01*
X97741581Y-109978825D01*
X97776506Y-110024862D01*
X97827306Y-110053437D01*
X97886044Y-110066931D01*
X97886044Y-109768481D01*
X97828100Y-109776419D01*
X97778094Y-109801819D01*
X97742375Y-109846269D01*
X97728881Y-109912944D01*
X97565709Y-109912944D01*
X97576217Y-109814872D01*
X97608760Y-109731263D01*
X97663000Y-109665294D01*
X97738053Y-109617669D01*
X97833039Y-109589094D01*
X97947956Y-109579569D01*
X97987644Y-109580362D01*
X98020981Y-109582744D01*
X98020981Y-110066931D01*
X98086267Y-110051850D01*
G37*
G36*
X98086267Y-117989350D02*
G01*
X98136075Y-117944106D01*
X98167627Y-117875050D01*
X98178144Y-117788531D01*
X98165444Y-117676613D01*
X98140044Y-117586919D01*
X98306731Y-117559931D01*
X98336100Y-117667881D01*
X98348006Y-117796469D01*
X98341855Y-117886758D01*
X98323400Y-117967125D01*
X98292841Y-118036975D01*
X98250375Y-118095712D01*
X98196202Y-118142742D01*
X98130519Y-118177469D01*
X98053128Y-118198900D01*
X97963831Y-118206044D01*
X97871359Y-118198503D01*
X97790794Y-118175881D01*
X97722333Y-118140956D01*
X97666175Y-118096506D01*
X97622320Y-118043722D01*
X97590769Y-117983794D01*
X97571719Y-117919500D01*
X97565369Y-117853619D01*
X97565709Y-117850444D01*
X97728881Y-117850444D01*
X97741581Y-117916325D01*
X97776506Y-117962362D01*
X97827306Y-117990937D01*
X97886044Y-118004431D01*
X97886044Y-117705981D01*
X97828100Y-117713919D01*
X97778094Y-117739319D01*
X97742375Y-117783769D01*
X97728881Y-117850444D01*
X97565709Y-117850444D01*
X97576217Y-117752372D01*
X97608760Y-117668763D01*
X97663000Y-117602794D01*
X97738053Y-117555169D01*
X97833039Y-117526594D01*
X97947956Y-117517069D01*
X97987644Y-117517863D01*
X98020981Y-117520244D01*
X98020981Y-118004431D01*
X98086267Y-117989350D01*
G37*
G36*
X98337688Y-112852994D02*
G01*
X98345427Y-112916891D01*
X98348006Y-112991106D01*
X98340466Y-113097270D01*
X98317844Y-113187162D01*
X98282125Y-113261577D01*
X98235294Y-113321306D01*
X98178144Y-113366748D01*
X98111469Y-113398300D01*
X98037253Y-113416755D01*
X97957481Y-113422906D01*
X97878900Y-113416556D01*
X97805081Y-113397506D01*
X97738208Y-113365359D01*
X97680462Y-113319719D01*
X97632837Y-113260386D01*
X97596325Y-113187162D01*
X97573108Y-113099255D01*
X97565369Y-112995869D01*
X97574894Y-112875219D01*
X97606644Y-112765681D01*
X97763806Y-112808544D01*
X97743962Y-112879187D01*
X97735231Y-112978406D01*
X97751900Y-113095087D01*
X97797937Y-113170494D01*
X97868581Y-113211769D01*
X97957481Y-113224469D01*
X98049556Y-113209983D01*
X98119406Y-113166525D01*
X98163459Y-113088142D01*
X98178144Y-112968881D01*
X98171794Y-112872837D01*
X98151156Y-112781556D01*
X98311494Y-112752981D01*
X98337688Y-112852994D01*
G37*
G36*
X98337688Y-108884244D02*
G01*
X98345427Y-108948141D01*
X98348006Y-109022356D01*
X98340466Y-109128520D01*
X98317844Y-109218412D01*
X98282125Y-109292827D01*
X98235294Y-109352556D01*
X98178144Y-109397998D01*
X98111469Y-109429550D01*
X98037253Y-109448005D01*
X97957481Y-109454156D01*
X97878900Y-109447806D01*
X97805081Y-109428756D01*
X97738208Y-109396609D01*
X97680462Y-109350969D01*
X97632837Y-109291636D01*
X97596325Y-109218412D01*
X97573108Y-109130505D01*
X97565369Y-109027119D01*
X97574894Y-108906469D01*
X97606644Y-108796931D01*
X97763806Y-108839794D01*
X97743962Y-108910437D01*
X97735231Y-109009656D01*
X97751900Y-109126337D01*
X97797937Y-109201744D01*
X97868581Y-109243019D01*
X97957481Y-109255719D01*
X98049556Y-109241233D01*
X98119406Y-109197775D01*
X98163459Y-109119392D01*
X98178144Y-109000131D01*
X98171794Y-108904087D01*
X98151156Y-108812806D01*
X98311494Y-108784231D01*
X98337688Y-108884244D01*
G37*
G36*
X98337688Y-119214900D02*
G01*
X98348006Y-119312531D01*
X98342450Y-119382580D01*
X98325781Y-119440325D01*
X98261487Y-119522875D01*
X98159094Y-119566531D01*
X98094403Y-119576056D01*
X98020981Y-119579231D01*
X97746344Y-119579231D01*
X97746344Y-119785606D01*
X97584419Y-119785606D01*
X97584419Y-119383969D01*
X98046381Y-119383969D01*
X98145600Y-119359363D01*
X98178144Y-119277606D01*
X98171000Y-119212519D01*
X98141631Y-119126794D01*
X98298794Y-119101394D01*
X98337688Y-119214900D01*
G37*
G36*
X98330544Y-111400431D02*
G01*
X97935256Y-111400431D01*
X97845166Y-111406384D01*
X97784444Y-111424244D01*
X97738406Y-111521081D01*
X97739994Y-111564737D01*
X97744756Y-111609981D01*
X98330544Y-111609981D01*
X98330544Y-111805244D01*
X97608231Y-111805244D01*
X97594341Y-111746705D01*
X97581244Y-111675862D01*
X97571719Y-111595495D01*
X97568544Y-111508381D01*
X97574695Y-111427022D01*
X97593150Y-111360744D01*
X97663000Y-111267875D01*
X97770950Y-111219456D01*
X97837030Y-111208741D01*
X97909856Y-111205169D01*
X98330544Y-111205169D01*
X98330544Y-111400431D01*
G37*
G36*
X98330544Y-110606681D02*
G01*
X97935256Y-110606681D01*
X97845166Y-110612634D01*
X97784444Y-110630494D01*
X97738406Y-110727331D01*
X97739994Y-110770987D01*
X97744756Y-110816231D01*
X98330544Y-110816231D01*
X98330544Y-111011494D01*
X97608231Y-111011494D01*
X97594341Y-110952955D01*
X97581244Y-110882112D01*
X97571719Y-110801745D01*
X97568544Y-110714631D01*
X97574695Y-110633272D01*
X97593150Y-110566994D01*
X97663000Y-110474125D01*
X97770950Y-110425706D01*
X97837030Y-110414991D01*
X97909856Y-110411419D01*
X98330544Y-110411419D01*
X98330544Y-110606681D01*
G37*
G36*
X97782856Y-118355269D02*
G01*
X97773331Y-118400513D01*
X97764600Y-118453694D01*
X97759044Y-118506081D01*
X97757456Y-118548944D01*
X97761425Y-118629906D01*
X97776506Y-118710869D01*
X98330544Y-118710869D01*
X98330544Y-118907719D01*
X97633631Y-118907719D01*
X97607834Y-118828939D01*
X97587594Y-118748175D01*
X97574497Y-118659473D01*
X97570131Y-118556881D01*
X97571719Y-118511637D01*
X97577275Y-118448931D01*
X97586800Y-118381463D01*
X97601881Y-118320344D01*
X97782856Y-118355269D01*
G37*
G36*
X97460594Y-119428419D02*
G01*
X97493931Y-119515731D01*
X97460594Y-119602250D01*
X97370106Y-119637969D01*
X97278031Y-119602250D01*
X97244694Y-119515731D01*
X97278031Y-119428419D01*
X97370106Y-119391906D01*
X97460594Y-119428419D01*
G37*
%TO.C,kibuzzard-62F38F2E*%
G36*
X96252945Y-123303598D02*
G01*
X96238433Y-123401428D01*
X96214402Y-123497365D01*
X96181084Y-123590484D01*
X96138798Y-123679889D01*
X96087953Y-123764719D01*
X96029038Y-123844157D01*
X95962621Y-123917437D01*
X95889340Y-123983855D01*
X95809903Y-124042770D01*
X95725073Y-124093615D01*
X95635668Y-124135900D01*
X95542548Y-124169219D01*
X95446612Y-124193250D01*
X95348781Y-124207762D01*
X95250000Y-124212615D01*
X95151219Y-124207762D01*
X95053388Y-124193250D01*
X94957452Y-124169219D01*
X94864332Y-124135900D01*
X94774927Y-124093615D01*
X94690097Y-124042770D01*
X94610660Y-123983855D01*
X94537379Y-123917437D01*
X94470962Y-123844157D01*
X94412047Y-123764719D01*
X94361202Y-123679889D01*
X94318916Y-123590484D01*
X94285598Y-123497365D01*
X94261567Y-123401428D01*
X94247055Y-123303598D01*
X94242202Y-123204817D01*
X94242202Y-122586750D01*
X94903131Y-122586750D01*
X94905909Y-122663545D01*
X94914244Y-122741531D01*
X94926944Y-122813961D01*
X94942819Y-122874087D01*
X95927069Y-122874087D01*
X95927069Y-122678825D01*
X95646081Y-122678825D01*
X95673466Y-122600641D01*
X95682594Y-122524837D01*
X95675450Y-122456178D01*
X95654019Y-122396250D01*
X95573850Y-122304175D01*
X95517097Y-122272028D01*
X95450025Y-122248612D01*
X95374420Y-122234325D01*
X95292069Y-122229562D01*
X95180767Y-122239793D01*
X95086047Y-122270485D01*
X95007906Y-122321637D01*
X94949698Y-122392017D01*
X94914773Y-122480387D01*
X94903131Y-122586750D01*
X94242202Y-122586750D01*
X94242202Y-122086687D01*
X94919006Y-122086687D01*
X95334931Y-122086687D01*
X95407956Y-122083512D01*
X95474631Y-122073987D01*
X95584963Y-122027156D01*
X95657194Y-121934287D01*
X95676244Y-121867216D01*
X95682594Y-121783475D01*
X95679022Y-121696361D01*
X95668306Y-121615994D01*
X95654019Y-121544755D01*
X95639731Y-121485025D01*
X94919006Y-121485025D01*
X94919006Y-121681875D01*
X95504794Y-121681875D01*
X95512731Y-121770775D01*
X95462725Y-121866819D01*
X95399423Y-121885273D01*
X95309531Y-121891425D01*
X94919006Y-121891425D01*
X94919006Y-122086687D01*
X94242202Y-122086687D01*
X94242202Y-121329450D01*
X94572931Y-121329450D01*
X94734856Y-121329450D01*
X94734856Y-121123075D01*
X95368269Y-121123075D01*
X95503802Y-121107597D01*
X95602425Y-121061162D01*
X95662552Y-120980994D01*
X95682594Y-120864312D01*
X95676244Y-120776206D01*
X95661163Y-120710325D01*
X95644494Y-120666669D01*
X95633381Y-120645237D01*
X95476219Y-120670637D01*
X95496856Y-120723025D01*
X95512731Y-120821450D01*
X95485744Y-120897650D01*
X95382556Y-120927812D01*
X94572931Y-120927812D01*
X94572931Y-121329450D01*
X94242202Y-121329450D01*
X94242202Y-120168987D01*
X94899956Y-120168987D01*
X94904520Y-120247172D01*
X94918212Y-120313450D01*
X94969012Y-120412669D01*
X95043625Y-120469819D01*
X95133319Y-120488075D01*
X95230950Y-120464262D01*
X95295244Y-120403937D01*
X95337313Y-120322975D01*
X95366681Y-120235662D01*
X95385731Y-120177719D01*
X95405575Y-120128506D01*
X95430181Y-120095169D01*
X95465106Y-120083262D01*
X95507175Y-120121362D01*
X95517494Y-120230900D01*
X95498444Y-120358694D01*
X95457169Y-120476962D01*
X95620681Y-120507125D01*
X95660369Y-120397587D01*
X95677037Y-120322181D01*
X95682594Y-120232487D01*
X95678228Y-120144778D01*
X95665131Y-120072150D01*
X95617506Y-119966581D01*
X95546069Y-119908637D01*
X95458756Y-119891175D01*
X95359537Y-119914987D01*
X95292862Y-119976106D01*
X95249206Y-120059450D01*
X95217456Y-120148350D01*
X95197612Y-120204706D01*
X95176181Y-120250744D01*
X95151575Y-120282494D01*
X95120619Y-120294400D01*
X95081725Y-120268206D01*
X95063469Y-120167400D01*
X95081725Y-120038812D01*
X95107919Y-119954675D01*
X94942819Y-119924512D01*
X94911069Y-120033256D01*
X94902734Y-120098542D01*
X94899956Y-120168987D01*
X94242202Y-120168987D01*
X94242202Y-119397462D01*
X94899956Y-119397462D01*
X94906306Y-119463344D01*
X94925356Y-119527637D01*
X94956908Y-119587566D01*
X95000762Y-119640350D01*
X95056920Y-119684800D01*
X95125381Y-119719725D01*
X95205947Y-119742347D01*
X95298419Y-119749887D01*
X95387716Y-119742744D01*
X95465106Y-119721312D01*
X95530789Y-119686586D01*
X95584963Y-119639556D01*
X95627428Y-119580819D01*
X95657987Y-119510969D01*
X95676442Y-119430602D01*
X95682594Y-119340312D01*
X95670688Y-119211725D01*
X95641319Y-119103775D01*
X95474631Y-119130762D01*
X95500031Y-119220456D01*
X95512731Y-119332375D01*
X95502214Y-119418894D01*
X95470662Y-119487950D01*
X95420855Y-119533194D01*
X95355569Y-119548275D01*
X95355569Y-119064087D01*
X95322231Y-119061706D01*
X95282544Y-119060912D01*
X95167626Y-119070437D01*
X95072641Y-119099012D01*
X94997587Y-119146637D01*
X94943348Y-119212607D01*
X94910804Y-119296215D01*
X94899956Y-119397462D01*
X94242202Y-119397462D01*
X94242202Y-117811550D01*
X94682469Y-117811550D01*
X94744381Y-117879812D01*
X94801531Y-117963950D01*
X94850744Y-118052850D01*
X94887256Y-118135400D01*
X95049181Y-118071900D01*
X95010287Y-117975062D01*
X94953931Y-117873462D01*
X95503206Y-117873462D01*
X95503206Y-118079837D01*
X95665131Y-118079837D01*
X95665131Y-117482937D01*
X95503206Y-117482937D01*
X95503206Y-117678200D01*
X94682469Y-117678200D01*
X94682469Y-117811550D01*
X94242202Y-117811550D01*
X94242202Y-117019387D01*
X95400019Y-117019387D01*
X95409544Y-117073362D01*
X95436531Y-117118606D01*
X95480188Y-117150356D01*
X95539719Y-117162262D01*
X95600837Y-117150356D01*
X95645287Y-117118606D01*
X95673069Y-117073362D01*
X95682594Y-117019387D01*
X95646081Y-116920962D01*
X95539719Y-116878100D01*
X95436531Y-116920962D01*
X95400019Y-117019387D01*
X94242202Y-117019387D01*
X94242202Y-116227225D01*
X94660244Y-116227225D01*
X94674355Y-116327943D01*
X94716688Y-116412081D01*
X94787244Y-116479637D01*
X94858880Y-116518531D01*
X94946787Y-116546312D01*
X95050967Y-116562981D01*
X95171419Y-116568537D01*
X95293259Y-116563080D01*
X95398431Y-116546709D01*
X95486934Y-116519424D01*
X95558769Y-116481225D01*
X95629324Y-116414197D01*
X95671658Y-116329531D01*
X95685769Y-116227225D01*
X95671658Y-116124919D01*
X95629324Y-116040253D01*
X95558769Y-115973225D01*
X95486934Y-115935026D01*
X95398431Y-115907741D01*
X95293259Y-115891369D01*
X95171419Y-115885912D01*
X95050322Y-115891369D01*
X94945795Y-115907741D01*
X94857838Y-115935026D01*
X94786450Y-115973225D01*
X94716335Y-116040253D01*
X94674267Y-116124919D01*
X94660244Y-116227225D01*
X94242202Y-116227225D01*
X94242202Y-115555183D01*
X94247055Y-115456402D01*
X94261567Y-115358572D01*
X94285598Y-115262635D01*
X94318916Y-115169516D01*
X94361202Y-115080111D01*
X94412047Y-114995281D01*
X94470962Y-114915843D01*
X94537379Y-114842563D01*
X94610660Y-114776145D01*
X94690098Y-114717230D01*
X94774927Y-114666385D01*
X94864332Y-114624100D01*
X94957452Y-114590781D01*
X95053388Y-114566750D01*
X95151219Y-114552238D01*
X95250000Y-114547385D01*
X95348781Y-114552238D01*
X95446612Y-114566750D01*
X95542548Y-114590781D01*
X95635668Y-114624100D01*
X95725073Y-114666385D01*
X95809902Y-114717230D01*
X95889340Y-114776145D01*
X95962621Y-114842563D01*
X96029038Y-114915843D01*
X96087953Y-114995281D01*
X96138798Y-115080111D01*
X96181084Y-115169516D01*
X96214402Y-115262635D01*
X96238433Y-115358572D01*
X96252945Y-115456402D01*
X96257798Y-115555183D01*
X96257798Y-123204817D01*
X96252945Y-123303598D01*
G37*
G36*
X95495467Y-116297472D02*
G01*
X95429387Y-116349462D01*
X95361566Y-116373275D01*
X95275576Y-116387562D01*
X95171419Y-116392325D01*
X95068143Y-116387562D01*
X94982683Y-116373275D01*
X94915037Y-116349462D01*
X94848958Y-116297472D01*
X94826931Y-116227225D01*
X94827422Y-116225637D01*
X95049181Y-116225637D01*
X95080931Y-116290725D01*
X95155544Y-116314537D01*
X95229362Y-116290725D01*
X95260319Y-116225637D01*
X95229362Y-116162931D01*
X95155544Y-116138325D01*
X95080931Y-116162931D01*
X95049181Y-116225637D01*
X94827422Y-116225637D01*
X94848958Y-116155986D01*
X94915037Y-116104194D01*
X94982683Y-116080822D01*
X95068143Y-116066799D01*
X95171419Y-116062125D01*
X95275576Y-116066799D01*
X95361566Y-116080822D01*
X95429387Y-116104194D01*
X95495467Y-116155986D01*
X95517003Y-116225637D01*
X95517494Y-116227225D01*
X95495467Y-116297472D01*
G37*
G36*
X95389898Y-122436334D02*
G01*
X95457962Y-122461337D01*
X95500230Y-122503803D01*
X95514319Y-122564525D01*
X95506381Y-122628025D01*
X95485744Y-122678825D01*
X95076169Y-122678825D01*
X95072200Y-122635962D01*
X95069819Y-122588337D01*
X95085892Y-122517694D01*
X95134112Y-122467687D01*
X95207336Y-122437922D01*
X95298419Y-122428000D01*
X95389898Y-122436334D01*
G37*
G36*
X95220631Y-119548275D02*
G01*
X95161894Y-119534781D01*
X95111094Y-119506206D01*
X95076169Y-119460169D01*
X95063469Y-119394287D01*
X95076963Y-119327612D01*
X95112681Y-119283162D01*
X95162687Y-119257762D01*
X95220631Y-119249825D01*
X95220631Y-119548275D01*
G37*
%TO.C,kibuzzard-62F38E4E*%
G36*
X138242146Y-75356508D02*
G01*
X141157854Y-75356508D01*
X141663949Y-77043492D01*
X137736051Y-77043492D01*
X137857654Y-76638150D01*
X138572875Y-76638150D01*
X138682412Y-76686569D01*
X138767741Y-76706214D01*
X138877675Y-76712762D01*
X138989065Y-76704384D01*
X139079817Y-76679249D01*
X139149931Y-76637356D01*
X139217202Y-76546273D01*
X139239625Y-76423837D01*
X139232878Y-76349820D01*
X139212637Y-76289694D01*
X139143581Y-76200794D01*
X139142302Y-76200000D01*
X139345987Y-76200000D01*
X139352834Y-76315987D01*
X139373372Y-76417884D01*
X139407602Y-76505693D01*
X139455525Y-76579412D01*
X139539486Y-76653496D01*
X139645319Y-76697946D01*
X139773025Y-76712762D01*
X139859742Y-76707405D01*
X139931990Y-76692125D01*
X140209588Y-76692125D01*
X140827125Y-76692125D01*
X140827125Y-76530200D01*
X140406437Y-76530200D01*
X140406437Y-75709462D01*
X140209588Y-75709462D01*
X140209588Y-76692125D01*
X139931990Y-76692125D01*
X139935744Y-76691331D01*
X140047663Y-76644500D01*
X139998450Y-76490512D01*
X139918281Y-76525437D01*
X139792075Y-76542900D01*
X139678767Y-76520477D01*
X139602369Y-76453206D01*
X139570178Y-76384679D01*
X139550863Y-76298690D01*
X139544425Y-76195237D01*
X139549783Y-76106337D01*
X139565856Y-76033312D01*
X139621419Y-75929331D01*
X139699206Y-75873769D01*
X139788900Y-75857100D01*
X139907169Y-75873769D01*
X139995275Y-75914250D01*
X140046075Y-75758675D01*
X140013531Y-75739625D01*
X139960350Y-75715812D01*
X139886531Y-75695969D01*
X139792075Y-75687237D01*
X139699008Y-75695770D01*
X139613481Y-75721369D01*
X139537281Y-75763437D01*
X139472194Y-75821381D01*
X139419211Y-75894605D01*
X139379325Y-75982512D01*
X139354322Y-76084509D01*
X139345987Y-76200000D01*
X139142302Y-76200000D01*
X139051506Y-76143644D01*
X138955462Y-76104750D01*
X138894344Y-76080937D01*
X138838781Y-76051569D01*
X138798300Y-76013469D01*
X138782425Y-75963462D01*
X138799711Y-75900844D01*
X138851569Y-75863274D01*
X138938000Y-75850750D01*
X139049919Y-75866625D01*
X139138025Y-75904725D01*
X139195175Y-75753912D01*
X139081669Y-75707875D01*
X139008445Y-75692397D01*
X138923712Y-75687237D01*
X138826434Y-75695881D01*
X138744149Y-75721810D01*
X138676856Y-75765025D01*
X138609586Y-75857894D01*
X138587162Y-75980925D01*
X138612562Y-76097606D01*
X138676856Y-76176187D01*
X138763375Y-76228575D01*
X138855450Y-76265087D01*
X138922125Y-76292869D01*
X138982450Y-76326206D01*
X139026900Y-76368275D01*
X139044362Y-76422250D01*
X139037219Y-76469081D01*
X139011025Y-76510356D01*
X138959431Y-76538931D01*
X138877675Y-76549250D01*
X138798498Y-76543694D01*
X138732419Y-76527025D01*
X138630025Y-76479400D01*
X138572875Y-76638150D01*
X137857654Y-76638150D01*
X138242146Y-75356508D01*
G37*
%TO.C,kibuzzard-62F38E40*%
G36*
X135416925Y-76005531D02*
G01*
X135442325Y-76103956D01*
X135463756Y-76201587D01*
X135482806Y-76303187D01*
X135290719Y-76303187D01*
X135310563Y-76201587D01*
X135332788Y-76103956D01*
X135358188Y-76005531D01*
X135387556Y-75899962D01*
X135416925Y-76005531D01*
G37*
G36*
X134643019Y-75895994D02*
G01*
X134708106Y-75969812D01*
X134741444Y-76076175D01*
X134750969Y-76200000D01*
X134747992Y-76270048D01*
X134739063Y-76334144D01*
X134699375Y-76439712D01*
X134626350Y-76509562D01*
X134514431Y-76534962D01*
X134496969Y-76534962D01*
X134479506Y-76533375D01*
X134479506Y-75872975D01*
X134508081Y-75869006D01*
X134536656Y-75868212D01*
X134643019Y-75895994D01*
G37*
G36*
X133137540Y-75356508D02*
G01*
X136102460Y-75356508D01*
X136608555Y-77043492D01*
X132631445Y-77043492D01*
X132753048Y-76638150D01*
X133468269Y-76638150D01*
X133577806Y-76686569D01*
X133663134Y-76706214D01*
X133773069Y-76712762D01*
X133884458Y-76704384D01*
X133968845Y-76681012D01*
X134284244Y-76681012D01*
X134391400Y-76699269D01*
X134493794Y-76704825D01*
X134589639Y-76697880D01*
X134613810Y-76692125D01*
X135006556Y-76692125D01*
X135209756Y-76692125D01*
X135254206Y-76465113D01*
X135516144Y-76465113D01*
X135562181Y-76692125D01*
X135771731Y-76692125D01*
X135745537Y-76580714D01*
X135719026Y-76472542D01*
X135692198Y-76367608D01*
X135665051Y-76265913D01*
X135637588Y-76167456D01*
X135603010Y-76048046D01*
X135568333Y-75931911D01*
X135533557Y-75819050D01*
X135498681Y-75709462D01*
X135285956Y-75709462D01*
X135252321Y-75818157D01*
X135218091Y-75929927D01*
X135183265Y-76044772D01*
X135147844Y-76162694D01*
X135119332Y-76260325D01*
X135090948Y-76362084D01*
X135062690Y-76467970D01*
X135034560Y-76577984D01*
X135006556Y-76692125D01*
X134613810Y-76692125D01*
X134677150Y-76677044D01*
X134754739Y-76641127D01*
X134820819Y-76588937D01*
X134874595Y-76519683D01*
X134915275Y-76432569D01*
X134940873Y-76326405D01*
X134949406Y-76200000D01*
X134941667Y-76076373D01*
X134918450Y-75972194D01*
X134881342Y-75886072D01*
X134831931Y-75816619D01*
X134770217Y-75763636D01*
X134696200Y-75726925D01*
X134611864Y-75705494D01*
X134519194Y-75698350D01*
X134409656Y-75703112D01*
X134284244Y-75722162D01*
X134284244Y-76681012D01*
X133968845Y-76681012D01*
X133975210Y-76679249D01*
X134045325Y-76637356D01*
X134112595Y-76546273D01*
X134135019Y-76423837D01*
X134128272Y-76349820D01*
X134108031Y-76289694D01*
X134038975Y-76200794D01*
X133946900Y-76143644D01*
X133850856Y-76104750D01*
X133789737Y-76080937D01*
X133734175Y-76051569D01*
X133693694Y-76013469D01*
X133677819Y-75963462D01*
X133695105Y-75900844D01*
X133746963Y-75863274D01*
X133833394Y-75850750D01*
X133945312Y-75866625D01*
X134033419Y-75904725D01*
X134090569Y-75753912D01*
X133977063Y-75707875D01*
X133903839Y-75692397D01*
X133819106Y-75687237D01*
X133721828Y-75695881D01*
X133639542Y-75721810D01*
X133572250Y-75765025D01*
X133504980Y-75857894D01*
X133482556Y-75980925D01*
X133507956Y-76097606D01*
X133572250Y-76176187D01*
X133658769Y-76228575D01*
X133750844Y-76265087D01*
X133817519Y-76292869D01*
X133877844Y-76326206D01*
X133922294Y-76368275D01*
X133939756Y-76422250D01*
X133932613Y-76469081D01*
X133906419Y-76510356D01*
X133854825Y-76538931D01*
X133773069Y-76549250D01*
X133693892Y-76543694D01*
X133627812Y-76527025D01*
X133525419Y-76479400D01*
X133468269Y-76638150D01*
X132753048Y-76638150D01*
X133137540Y-75356508D01*
G37*
%TO.C,kibuzzard-62F38DFB*%
G36*
X125519921Y-75367621D02*
G01*
X128480079Y-75367621D01*
X128979507Y-77032379D01*
X125020493Y-77032379D01*
X125134952Y-76650850D01*
X126636462Y-76650850D01*
X126681706Y-76668313D01*
X126747587Y-76684981D01*
X126823787Y-76696888D01*
X126901575Y-76701650D01*
X126992459Y-76695697D01*
X127071437Y-76677838D01*
X127138509Y-76649263D01*
X127193675Y-76611163D01*
X127266700Y-76510356D01*
X127290512Y-76384150D01*
X127279753Y-76292075D01*
X127247474Y-76214817D01*
X127193675Y-76152375D01*
X127118004Y-76105103D01*
X127020108Y-76073353D01*
X126899987Y-76057125D01*
X126907925Y-75966638D01*
X126915862Y-75860275D01*
X127254000Y-75860275D01*
X127254000Y-75698350D01*
X127395287Y-75698350D01*
X127413544Y-75787250D01*
X127439738Y-75898375D01*
X127460728Y-75981542D01*
X127483482Y-76068061D01*
X127508000Y-76157931D01*
X127533929Y-76249565D01*
X127560917Y-76341376D01*
X127588963Y-76433363D01*
X127630634Y-76564331D01*
X127669925Y-76681013D01*
X127871537Y-76681013D01*
X127901876Y-76596434D01*
X127931510Y-76509915D01*
X127960438Y-76421456D01*
X127988219Y-76332556D01*
X128014412Y-76244715D01*
X128039019Y-76157931D01*
X128072753Y-76031527D01*
X128102519Y-75911075D01*
X128128117Y-75799156D01*
X128149350Y-75698350D01*
X127944562Y-75698350D01*
X127930275Y-75780900D01*
X127912813Y-75876150D01*
X127892969Y-75979139D01*
X127871537Y-76084906D01*
X127848519Y-76191269D01*
X127823912Y-76296044D01*
X127798513Y-76394270D01*
X127773113Y-76480988D01*
X127747514Y-76393080D01*
X127721519Y-76294456D01*
X127696119Y-76189681D01*
X127672306Y-76083319D01*
X127650280Y-75977750D01*
X127630237Y-75875356D01*
X127613569Y-75780702D01*
X127601662Y-75698350D01*
X127395287Y-75698350D01*
X127254000Y-75698350D01*
X126752350Y-75698350D01*
X126746397Y-75819595D01*
X126738062Y-75945206D01*
X126726950Y-76074389D01*
X126712662Y-76206350D01*
X126821803Y-76209723D01*
X126907925Y-76219844D01*
X127023019Y-76257944D01*
X127076994Y-76316681D01*
X127090487Y-76392088D01*
X127082550Y-76444475D01*
X127053181Y-76489719D01*
X126994444Y-76522263D01*
X126899987Y-76534963D01*
X126825772Y-76531391D01*
X126765050Y-76520675D01*
X126676150Y-76488925D01*
X126636462Y-76650850D01*
X125134952Y-76650850D01*
X125226868Y-76344463D01*
X125850650Y-76344463D01*
X126099887Y-76344463D01*
X126099887Y-76620688D01*
X126268162Y-76620688D01*
X126268162Y-76344463D01*
X126517400Y-76344463D01*
X126517400Y-76184125D01*
X126268162Y-76184125D01*
X126268162Y-75907900D01*
X126099887Y-75907900D01*
X126099887Y-76184125D01*
X125850650Y-76184125D01*
X125850650Y-76344463D01*
X125226868Y-76344463D01*
X125519921Y-75367621D01*
G37*
%TO.C,kibuzzard-62F38DF4*%
G36*
X121205625Y-75884087D02*
G01*
X121252456Y-75957112D01*
X121274681Y-76065856D01*
X121278848Y-76130745D01*
X121280237Y-76200000D01*
X121278848Y-76269056D01*
X121274681Y-76333350D01*
X121252456Y-76442094D01*
X121204831Y-76515912D01*
X121124662Y-76542900D01*
X121043700Y-76515912D01*
X120996869Y-76442887D01*
X120974644Y-76334144D01*
X120970477Y-76269255D01*
X120969087Y-76200000D01*
X120970477Y-76130944D01*
X120974644Y-76066650D01*
X120996869Y-75957906D01*
X121043700Y-75884087D01*
X121124662Y-75857100D01*
X121205625Y-75884087D01*
G37*
G36*
X120439921Y-75356508D02*
G01*
X123400079Y-75356508D01*
X123906174Y-77043492D01*
X119933826Y-77043492D01*
X120186874Y-76200000D01*
X120770650Y-76200000D01*
X120776355Y-76319211D01*
X120793470Y-76422845D01*
X120821996Y-76510902D01*
X120861931Y-76583381D01*
X120931869Y-76655260D01*
X121019976Y-76698387D01*
X121126250Y-76712762D01*
X121229967Y-76698387D01*
X121316750Y-76655260D01*
X121386600Y-76583381D01*
X121426883Y-76510902D01*
X121455656Y-76422845D01*
X121470036Y-76336525D01*
X121583450Y-76336525D01*
X121587419Y-76418281D01*
X121599325Y-76492100D01*
X121620756Y-76556791D01*
X121653300Y-76611162D01*
X121755694Y-76686569D01*
X121827727Y-76706214D01*
X121915237Y-76712762D01*
X122004137Y-76706214D01*
X122077162Y-76686569D01*
X122135900Y-76654620D01*
X122181938Y-76611162D01*
X122215672Y-76556791D01*
X122237500Y-76492100D01*
X122249406Y-76418281D01*
X122253375Y-76336525D01*
X122253375Y-75871387D01*
X122354975Y-75871387D01*
X122613738Y-75871387D01*
X122613738Y-76692125D01*
X122810588Y-76692125D01*
X122810588Y-75871387D01*
X123069350Y-75871387D01*
X123069350Y-75709462D01*
X122354975Y-75709462D01*
X122354975Y-75871387D01*
X122253375Y-75871387D01*
X122253375Y-75709462D01*
X122058113Y-75709462D01*
X122058113Y-76322237D01*
X122051762Y-76426219D01*
X122029537Y-76494481D01*
X121986675Y-76531787D01*
X121918412Y-76542900D01*
X121850150Y-76531787D01*
X121808081Y-76495275D01*
X121786650Y-76427806D01*
X121780300Y-76323825D01*
X121780300Y-75709462D01*
X121583450Y-75709462D01*
X121583450Y-76336525D01*
X121470036Y-76336525D01*
X121472920Y-76319211D01*
X121478675Y-76200000D01*
X121473020Y-76080789D01*
X121456053Y-75977155D01*
X121427776Y-75889098D01*
X121388187Y-75816619D01*
X121318690Y-75744740D01*
X121230849Y-75701613D01*
X121124662Y-75687237D01*
X121021651Y-75701613D01*
X120934868Y-75744740D01*
X120864312Y-75816619D01*
X120823335Y-75889098D01*
X120794066Y-75977155D01*
X120776504Y-76080789D01*
X120770650Y-76200000D01*
X120186874Y-76200000D01*
X120439921Y-75356508D01*
G37*
%TO.C,kibuzzard-62F38DE0*%
G36*
X115361508Y-75356508D02*
G01*
X118318492Y-75356508D01*
X118824587Y-77043492D01*
X114855413Y-77043492D01*
X115108461Y-76200000D01*
X115692237Y-76200000D01*
X115699381Y-76319261D01*
X115720812Y-76423044D01*
X115755341Y-76511150D01*
X115801775Y-76583381D01*
X115859520Y-76639737D01*
X115927981Y-76680219D01*
X116006364Y-76704627D01*
X116093875Y-76712762D01*
X116190911Y-76708794D01*
X116272469Y-76696887D01*
X116290591Y-76692125D01*
X116516150Y-76692125D01*
X116692362Y-76692125D01*
X116692362Y-76039662D01*
X116751365Y-76148583D01*
X116807721Y-76257326D01*
X116861431Y-76365894D01*
X116912496Y-76474461D01*
X116960915Y-76583205D01*
X117006687Y-76692125D01*
X117163850Y-76692125D01*
X117163850Y-76681012D01*
X117322600Y-76681012D01*
X117429756Y-76699269D01*
X117532150Y-76704825D01*
X117627995Y-76697880D01*
X117715506Y-76677044D01*
X117793095Y-76641127D01*
X117859175Y-76588937D01*
X117912952Y-76519683D01*
X117953631Y-76432569D01*
X117979230Y-76326405D01*
X117987763Y-76200000D01*
X117980023Y-76076373D01*
X117956806Y-75972194D01*
X117919698Y-75886072D01*
X117870287Y-75816619D01*
X117808573Y-75763636D01*
X117734556Y-75726925D01*
X117650220Y-75705494D01*
X117557550Y-75698350D01*
X117448012Y-75703112D01*
X117322600Y-75722162D01*
X117322600Y-76681012D01*
X117163850Y-76681012D01*
X117163850Y-75709462D01*
X116987637Y-75709462D01*
X116987637Y-76314300D01*
X116959658Y-76252387D01*
X116926519Y-76180950D01*
X116889212Y-76103559D01*
X116848731Y-76023787D01*
X116806067Y-75942627D01*
X116762212Y-75861069D01*
X116717762Y-75782289D01*
X116673312Y-75709462D01*
X116516150Y-75709462D01*
X116516150Y-76692125D01*
X116290591Y-76692125D01*
X116381212Y-76668312D01*
X116381212Y-76177775D01*
X116185950Y-76177775D01*
X116185950Y-76536550D01*
X116147850Y-76541312D01*
X116109750Y-76542900D01*
X116014897Y-76522064D01*
X115946237Y-76459556D01*
X115915369Y-76393675D01*
X115896849Y-76307156D01*
X115890675Y-76200000D01*
X115894048Y-76127173D01*
X115904169Y-76061094D01*
X115948619Y-75953144D01*
X116027200Y-75882500D01*
X116144675Y-75857100D01*
X116249450Y-75874562D01*
X116335175Y-75914250D01*
X116385975Y-75758675D01*
X116353431Y-75739625D01*
X116298662Y-75715812D01*
X116220081Y-75695969D01*
X116117687Y-75687237D01*
X116031566Y-75695373D01*
X115951000Y-75719781D01*
X115878372Y-75760461D01*
X115816062Y-75817412D01*
X115764866Y-75890239D01*
X115725575Y-75978544D01*
X115700572Y-76081930D01*
X115692237Y-76200000D01*
X115108461Y-76200000D01*
X115361508Y-75356508D01*
G37*
G36*
X117681375Y-75895994D02*
G01*
X117746462Y-75969812D01*
X117779800Y-76076175D01*
X117789325Y-76200000D01*
X117786348Y-76270048D01*
X117777419Y-76334144D01*
X117737731Y-76439712D01*
X117664706Y-76509562D01*
X117552787Y-76534962D01*
X117535325Y-76534962D01*
X117517862Y-76533375D01*
X117517862Y-75872975D01*
X117546437Y-75869006D01*
X117575012Y-75868212D01*
X117681375Y-75895994D01*
G37*
%TO.C,kibuzzard-62F38C92*%
G36*
X140486750Y-123620477D02*
G01*
X143993250Y-123620477D01*
X143489536Y-125299523D01*
X140990464Y-125299523D01*
X140625021Y-124081381D01*
X141504987Y-124081381D01*
X141601825Y-124217906D01*
X141701837Y-124143294D01*
X141798675Y-124121069D01*
X141890750Y-124153612D01*
X141927262Y-124246481D01*
X141897894Y-124330619D01*
X141823281Y-124416344D01*
X141776450Y-124461786D01*
X141726444Y-124509212D01*
X141676437Y-124559616D01*
X141629606Y-124613987D01*
X141588331Y-124672923D01*
X141554994Y-124737019D01*
X141532967Y-124806869D01*
X141525625Y-124883069D01*
X141524831Y-124916406D01*
X141528800Y-124956094D01*
X142170150Y-124956094D01*
X142170150Y-124940219D01*
X142316200Y-124940219D01*
X142384859Y-124952720D01*
X142454313Y-124961650D01*
X142522972Y-124967008D01*
X142589250Y-124968794D01*
X142667633Y-124965023D01*
X142740856Y-124953712D01*
X142806738Y-124933472D01*
X142863094Y-124902913D01*
X142944850Y-124807663D01*
X142967472Y-124740789D01*
X142975013Y-124659231D01*
X142966083Y-124592556D01*
X142939294Y-124529056D01*
X142887502Y-124473494D01*
X142803563Y-124430631D01*
X142894844Y-124344906D01*
X142920442Y-124286963D01*
X142928975Y-124221081D01*
X142914688Y-124129006D01*
X142860712Y-124045662D01*
X142751175Y-123985337D01*
X142671006Y-123968073D01*
X142570200Y-123962319D01*
X142438438Y-123969462D01*
X142316200Y-123986131D01*
X142316200Y-124940219D01*
X142170150Y-124940219D01*
X142170150Y-124794169D01*
X141747875Y-124794169D01*
X141764544Y-124741781D01*
X141805025Y-124685425D01*
X141855825Y-124631450D01*
X141903450Y-124586206D01*
X141984412Y-124506831D01*
X142055850Y-124421106D01*
X142106650Y-124329825D01*
X142125700Y-124232194D01*
X142100300Y-124109162D01*
X142032037Y-124021056D01*
X141933612Y-123968669D01*
X141817725Y-123951206D01*
X141734977Y-123959144D01*
X141651831Y-123982956D01*
X141573448Y-124023437D01*
X141504987Y-124081381D01*
X140625021Y-124081381D01*
X140486750Y-123620477D01*
G37*
G36*
X142652750Y-124136150D02*
G01*
X142697200Y-124152025D01*
X142727363Y-124185362D01*
X142738475Y-124241719D01*
X142700375Y-124331412D01*
X142587662Y-124363956D01*
X142511463Y-124363956D01*
X142511463Y-124138531D01*
X142554325Y-124133769D01*
X142600362Y-124132181D01*
X142652750Y-124136150D01*
G37*
G36*
X142737681Y-124556837D02*
G01*
X142782925Y-124659231D01*
X142767050Y-124729875D01*
X142726569Y-124772738D01*
X142670213Y-124793375D01*
X142605125Y-124798931D01*
X142556706Y-124797344D01*
X142511463Y-124792581D01*
X142511463Y-124525881D01*
X142616238Y-124525881D01*
X142737681Y-124556837D01*
G37*
%TO.C,kibuzzard-62F38C8B*%
G36*
X137557669Y-124275850D02*
G01*
X137583069Y-124374275D01*
X137604500Y-124471906D01*
X137623550Y-124573506D01*
X137431463Y-124573506D01*
X137451306Y-124471906D01*
X137473531Y-124374275D01*
X137498931Y-124275850D01*
X137528300Y-124170281D01*
X137557669Y-124275850D01*
G37*
G36*
X135410560Y-123626827D02*
G01*
X138909440Y-123626827D01*
X138409536Y-125293173D01*
X135910464Y-125293173D01*
X135548831Y-124087731D01*
X136407525Y-124087731D01*
X136504363Y-124224256D01*
X136604375Y-124149644D01*
X136701213Y-124127419D01*
X136793288Y-124159963D01*
X136829800Y-124252831D01*
X136800431Y-124336969D01*
X136725819Y-124422694D01*
X136678988Y-124468136D01*
X136628981Y-124515562D01*
X136578975Y-124565966D01*
X136532144Y-124620337D01*
X136490869Y-124679273D01*
X136457531Y-124743369D01*
X136435505Y-124813219D01*
X136428163Y-124889419D01*
X136427369Y-124922756D01*
X136431338Y-124962444D01*
X137072688Y-124962444D01*
X137147300Y-124962444D01*
X137350500Y-124962444D01*
X137394950Y-124735431D01*
X137656888Y-124735431D01*
X137702925Y-124962444D01*
X137912475Y-124962444D01*
X137886281Y-124851033D01*
X137859770Y-124742861D01*
X137832941Y-124637927D01*
X137805795Y-124536232D01*
X137778331Y-124437775D01*
X137743754Y-124318365D01*
X137709077Y-124202230D01*
X137674300Y-124089368D01*
X137639425Y-123979781D01*
X137426700Y-123979781D01*
X137393065Y-124088475D01*
X137358834Y-124200245D01*
X137324009Y-124315091D01*
X137288588Y-124433013D01*
X137260076Y-124530644D01*
X137231692Y-124632403D01*
X137203434Y-124738289D01*
X137175304Y-124848303D01*
X137147300Y-124962444D01*
X137072688Y-124962444D01*
X137072688Y-124800519D01*
X136650413Y-124800519D01*
X136667081Y-124748131D01*
X136707563Y-124691775D01*
X136758363Y-124637800D01*
X136805988Y-124592556D01*
X136886950Y-124513181D01*
X136958388Y-124427456D01*
X137009188Y-124336175D01*
X137028238Y-124238544D01*
X137002838Y-124115512D01*
X136934575Y-124027406D01*
X136836150Y-123975019D01*
X136720263Y-123957556D01*
X136637514Y-123965494D01*
X136554369Y-123989306D01*
X136475986Y-124029787D01*
X136407525Y-124087731D01*
X135548831Y-124087731D01*
X135410560Y-123626827D01*
G37*
%TO.C,kibuzzard-62F38C83*%
G36*
X130337228Y-123637940D02*
G01*
X133822772Y-123637940D01*
X133329536Y-125282060D01*
X130830464Y-125282060D01*
X130497883Y-124173456D01*
X131331494Y-124173456D01*
X131394994Y-124335381D01*
X131491831Y-124296488D01*
X131593431Y-124240131D01*
X131593431Y-124789406D01*
X131387056Y-124789406D01*
X131387056Y-124951331D01*
X131983956Y-124951331D01*
X132063331Y-124951331D01*
X132266531Y-124951331D01*
X132310981Y-124724319D01*
X132572919Y-124724319D01*
X132618956Y-124951331D01*
X132828506Y-124951331D01*
X132802312Y-124839921D01*
X132775801Y-124731748D01*
X132748973Y-124626815D01*
X132721826Y-124525119D01*
X132694363Y-124426662D01*
X132659785Y-124307253D01*
X132625108Y-124191117D01*
X132590332Y-124078256D01*
X132555456Y-123968669D01*
X132342731Y-123968669D01*
X132309096Y-124077363D01*
X132274866Y-124189133D01*
X132240040Y-124303979D01*
X132204619Y-124421900D01*
X132176107Y-124519531D01*
X132147723Y-124621290D01*
X132119465Y-124727176D01*
X132091335Y-124837190D01*
X132063331Y-124951331D01*
X131983956Y-124951331D01*
X131983956Y-124789406D01*
X131788694Y-124789406D01*
X131788694Y-123968669D01*
X131655344Y-123968669D01*
X131587081Y-124030581D01*
X131502944Y-124087731D01*
X131414044Y-124136944D01*
X131331494Y-124173456D01*
X130497883Y-124173456D01*
X130337228Y-123637940D01*
G37*
G36*
X132473700Y-124264737D02*
G01*
X132499100Y-124363163D01*
X132520531Y-124460794D01*
X132539581Y-124562394D01*
X132347494Y-124562394D01*
X132367338Y-124460794D01*
X132389562Y-124363163D01*
X132414963Y-124264737D01*
X132444331Y-124159169D01*
X132473700Y-124264737D01*
G37*
%TO.C,kibuzzard-62F38C7F*%
G36*
X127493713Y-124551281D02*
G01*
X127538956Y-124653675D01*
X127523081Y-124724319D01*
X127482600Y-124767181D01*
X127426244Y-124787819D01*
X127361156Y-124793375D01*
X127312738Y-124791788D01*
X127267494Y-124787025D01*
X127267494Y-124520325D01*
X127372269Y-124520325D01*
X127493713Y-124551281D01*
G37*
G36*
X125250084Y-123626033D02*
G01*
X128749916Y-123626033D01*
X128249536Y-125293967D01*
X125750464Y-125293967D01*
X125414073Y-124172663D01*
X126268956Y-124172663D01*
X126332456Y-124334588D01*
X126429294Y-124295694D01*
X126530894Y-124239337D01*
X126530894Y-124788613D01*
X126324519Y-124788613D01*
X126324519Y-124950538D01*
X126921419Y-124950538D01*
X126921419Y-124934663D01*
X127072231Y-124934663D01*
X127140891Y-124947164D01*
X127210344Y-124956094D01*
X127279003Y-124961452D01*
X127345281Y-124963238D01*
X127423664Y-124959467D01*
X127496888Y-124948156D01*
X127562769Y-124927916D01*
X127619125Y-124897356D01*
X127700881Y-124802106D01*
X127723503Y-124735233D01*
X127731044Y-124653675D01*
X127722114Y-124587000D01*
X127695325Y-124523500D01*
X127643533Y-124467938D01*
X127559594Y-124425075D01*
X127650875Y-124339350D01*
X127676473Y-124281406D01*
X127685006Y-124215525D01*
X127670719Y-124123450D01*
X127616744Y-124040106D01*
X127507206Y-123979781D01*
X127427038Y-123962517D01*
X127326231Y-123956762D01*
X127194469Y-123963906D01*
X127072231Y-123980575D01*
X127072231Y-124934663D01*
X126921419Y-124934663D01*
X126921419Y-124788613D01*
X126726156Y-124788613D01*
X126726156Y-123967875D01*
X126592806Y-123967875D01*
X126524544Y-124029787D01*
X126440406Y-124086937D01*
X126351506Y-124136150D01*
X126268956Y-124172663D01*
X125414073Y-124172663D01*
X125250084Y-123626033D01*
G37*
G36*
X127408781Y-124130594D02*
G01*
X127453231Y-124146469D01*
X127483394Y-124179806D01*
X127494506Y-124236162D01*
X127456406Y-124325856D01*
X127343694Y-124358400D01*
X127267494Y-124358400D01*
X127267494Y-124132975D01*
X127310356Y-124128212D01*
X127356394Y-124126625D01*
X127408781Y-124130594D01*
G37*
%TO.C,kibuzzard-62F38C92*%
G36*
X117626750Y-123620477D02*
G01*
X121133250Y-123620477D01*
X120629536Y-125299523D01*
X118130464Y-125299523D01*
X117765021Y-124081381D01*
X118644987Y-124081381D01*
X118741825Y-124217906D01*
X118841837Y-124143294D01*
X118938675Y-124121069D01*
X119030750Y-124153612D01*
X119067262Y-124246481D01*
X119037894Y-124330619D01*
X118963281Y-124416344D01*
X118916450Y-124461786D01*
X118866444Y-124509212D01*
X118816437Y-124559616D01*
X118769606Y-124613987D01*
X118728331Y-124672923D01*
X118694994Y-124737019D01*
X118672967Y-124806869D01*
X118665625Y-124883069D01*
X118664831Y-124916406D01*
X118668800Y-124956094D01*
X119310150Y-124956094D01*
X119310150Y-124940219D01*
X119456200Y-124940219D01*
X119524859Y-124952720D01*
X119594313Y-124961650D01*
X119662972Y-124967008D01*
X119729250Y-124968794D01*
X119807633Y-124965023D01*
X119880856Y-124953712D01*
X119946738Y-124933472D01*
X120003094Y-124902913D01*
X120084850Y-124807663D01*
X120107472Y-124740789D01*
X120115013Y-124659231D01*
X120106083Y-124592556D01*
X120079294Y-124529056D01*
X120027502Y-124473494D01*
X119943563Y-124430631D01*
X120034844Y-124344906D01*
X120060442Y-124286963D01*
X120068975Y-124221081D01*
X120054688Y-124129006D01*
X120000712Y-124045662D01*
X119891175Y-123985337D01*
X119811006Y-123968073D01*
X119710200Y-123962319D01*
X119578438Y-123969462D01*
X119456200Y-123986131D01*
X119456200Y-124940219D01*
X119310150Y-124940219D01*
X119310150Y-124794169D01*
X118887875Y-124794169D01*
X118904544Y-124741781D01*
X118945025Y-124685425D01*
X118995825Y-124631450D01*
X119043450Y-124586206D01*
X119124412Y-124506831D01*
X119195850Y-124421106D01*
X119246650Y-124329825D01*
X119265700Y-124232194D01*
X119240300Y-124109162D01*
X119172037Y-124021056D01*
X119073612Y-123968669D01*
X118957725Y-123951206D01*
X118874977Y-123959144D01*
X118791831Y-123982956D01*
X118713448Y-124023437D01*
X118644987Y-124081381D01*
X117765021Y-124081381D01*
X117626750Y-123620477D01*
G37*
G36*
X119877681Y-124556837D02*
G01*
X119922925Y-124659231D01*
X119907050Y-124729875D01*
X119866569Y-124772738D01*
X119810213Y-124793375D01*
X119745125Y-124798931D01*
X119696706Y-124797344D01*
X119651463Y-124792581D01*
X119651463Y-124525881D01*
X119756238Y-124525881D01*
X119877681Y-124556837D01*
G37*
G36*
X119792750Y-124136150D02*
G01*
X119837200Y-124152025D01*
X119867363Y-124185362D01*
X119878475Y-124241719D01*
X119840375Y-124331412D01*
X119727662Y-124363956D01*
X119651463Y-124363956D01*
X119651463Y-124138531D01*
X119694325Y-124133769D01*
X119740362Y-124132181D01*
X119792750Y-124136150D01*
G37*
%TO.C,kibuzzard-62F38C8B*%
G36*
X112550560Y-123626827D02*
G01*
X116049440Y-123626827D01*
X115549536Y-125293173D01*
X113050464Y-125293173D01*
X112688831Y-124087731D01*
X113547525Y-124087731D01*
X113644363Y-124224256D01*
X113744375Y-124149644D01*
X113841213Y-124127419D01*
X113933288Y-124159963D01*
X113969800Y-124252831D01*
X113940431Y-124336969D01*
X113865819Y-124422694D01*
X113818988Y-124468136D01*
X113768981Y-124515562D01*
X113718975Y-124565966D01*
X113672144Y-124620337D01*
X113630869Y-124679273D01*
X113597531Y-124743369D01*
X113575505Y-124813219D01*
X113568163Y-124889419D01*
X113567369Y-124922756D01*
X113571338Y-124962444D01*
X114212688Y-124962444D01*
X114287300Y-124962444D01*
X114490500Y-124962444D01*
X114534950Y-124735431D01*
X114796888Y-124735431D01*
X114842925Y-124962444D01*
X115052475Y-124962444D01*
X115026281Y-124851033D01*
X114999770Y-124742861D01*
X114972941Y-124637927D01*
X114945795Y-124536232D01*
X114918331Y-124437775D01*
X114883754Y-124318365D01*
X114849077Y-124202230D01*
X114814300Y-124089368D01*
X114779425Y-123979781D01*
X114566700Y-123979781D01*
X114533065Y-124088475D01*
X114498834Y-124200245D01*
X114464009Y-124315091D01*
X114428588Y-124433013D01*
X114400076Y-124530644D01*
X114371692Y-124632403D01*
X114343434Y-124738289D01*
X114315304Y-124848303D01*
X114287300Y-124962444D01*
X114212688Y-124962444D01*
X114212688Y-124800519D01*
X113790413Y-124800519D01*
X113807081Y-124748131D01*
X113847563Y-124691775D01*
X113898363Y-124637800D01*
X113945988Y-124592556D01*
X114026950Y-124513181D01*
X114098388Y-124427456D01*
X114149188Y-124336175D01*
X114168238Y-124238544D01*
X114142838Y-124115512D01*
X114074575Y-124027406D01*
X113976150Y-123975019D01*
X113860263Y-123957556D01*
X113777514Y-123965494D01*
X113694369Y-123989306D01*
X113615986Y-124029787D01*
X113547525Y-124087731D01*
X112688831Y-124087731D01*
X112550560Y-123626827D01*
G37*
G36*
X114697669Y-124275850D02*
G01*
X114723069Y-124374275D01*
X114744500Y-124471906D01*
X114763550Y-124573506D01*
X114571463Y-124573506D01*
X114591306Y-124471906D01*
X114613531Y-124374275D01*
X114638931Y-124275850D01*
X114668300Y-124170281D01*
X114697669Y-124275850D01*
G37*
%TO.C,kibuzzard-62F38C83*%
G36*
X107477228Y-123637940D02*
G01*
X110962772Y-123637940D01*
X110469536Y-125282060D01*
X107970464Y-125282060D01*
X107637883Y-124173456D01*
X108471494Y-124173456D01*
X108534994Y-124335381D01*
X108631831Y-124296488D01*
X108733431Y-124240131D01*
X108733431Y-124789406D01*
X108527056Y-124789406D01*
X108527056Y-124951331D01*
X109123956Y-124951331D01*
X109203331Y-124951331D01*
X109406531Y-124951331D01*
X109450981Y-124724319D01*
X109712919Y-124724319D01*
X109758956Y-124951331D01*
X109968506Y-124951331D01*
X109942312Y-124839921D01*
X109915801Y-124731748D01*
X109888973Y-124626815D01*
X109861826Y-124525119D01*
X109834363Y-124426662D01*
X109799785Y-124307253D01*
X109765108Y-124191117D01*
X109730332Y-124078256D01*
X109695456Y-123968669D01*
X109482731Y-123968669D01*
X109449096Y-124077363D01*
X109414866Y-124189133D01*
X109380040Y-124303979D01*
X109344619Y-124421900D01*
X109316107Y-124519531D01*
X109287723Y-124621290D01*
X109259465Y-124727176D01*
X109231335Y-124837190D01*
X109203331Y-124951331D01*
X109123956Y-124951331D01*
X109123956Y-124789406D01*
X108928694Y-124789406D01*
X108928694Y-123968669D01*
X108795344Y-123968669D01*
X108727081Y-124030581D01*
X108642944Y-124087731D01*
X108554044Y-124136944D01*
X108471494Y-124173456D01*
X107637883Y-124173456D01*
X107477228Y-123637940D01*
G37*
G36*
X109613700Y-124264737D02*
G01*
X109639100Y-124363163D01*
X109660531Y-124460794D01*
X109679581Y-124562394D01*
X109487494Y-124562394D01*
X109507338Y-124460794D01*
X109529562Y-124363163D01*
X109554963Y-124264737D01*
X109584331Y-124159169D01*
X109613700Y-124264737D01*
G37*
%TO.C,kibuzzard-62F38C7F*%
G36*
X102390084Y-123626033D02*
G01*
X105889916Y-123626033D01*
X105389536Y-125293967D01*
X102890464Y-125293967D01*
X102554073Y-124172663D01*
X103408956Y-124172663D01*
X103472456Y-124334588D01*
X103569294Y-124295694D01*
X103670894Y-124239337D01*
X103670894Y-124788613D01*
X103464519Y-124788613D01*
X103464519Y-124950538D01*
X104061419Y-124950538D01*
X104061419Y-124934663D01*
X104212231Y-124934663D01*
X104280891Y-124947164D01*
X104350344Y-124956094D01*
X104419003Y-124961452D01*
X104485281Y-124963238D01*
X104563664Y-124959467D01*
X104636888Y-124948156D01*
X104702769Y-124927916D01*
X104759125Y-124897356D01*
X104840881Y-124802106D01*
X104863503Y-124735233D01*
X104871044Y-124653675D01*
X104862114Y-124587000D01*
X104835325Y-124523500D01*
X104783533Y-124467938D01*
X104699594Y-124425075D01*
X104790875Y-124339350D01*
X104816473Y-124281406D01*
X104825006Y-124215525D01*
X104810719Y-124123450D01*
X104756744Y-124040106D01*
X104647206Y-123979781D01*
X104567038Y-123962517D01*
X104466231Y-123956762D01*
X104334469Y-123963906D01*
X104212231Y-123980575D01*
X104212231Y-124934663D01*
X104061419Y-124934663D01*
X104061419Y-124788613D01*
X103866156Y-124788613D01*
X103866156Y-123967875D01*
X103732806Y-123967875D01*
X103664544Y-124029787D01*
X103580406Y-124086937D01*
X103491506Y-124136150D01*
X103408956Y-124172663D01*
X102554073Y-124172663D01*
X102390084Y-123626033D01*
G37*
G36*
X104633713Y-124551281D02*
G01*
X104678956Y-124653675D01*
X104663081Y-124724319D01*
X104622600Y-124767181D01*
X104566244Y-124787819D01*
X104501156Y-124793375D01*
X104452738Y-124791788D01*
X104407494Y-124787025D01*
X104407494Y-124520325D01*
X104512269Y-124520325D01*
X104633713Y-124551281D01*
G37*
G36*
X104548781Y-124130594D02*
G01*
X104593231Y-124146469D01*
X104623394Y-124179806D01*
X104634506Y-124236162D01*
X104596406Y-124325856D01*
X104483694Y-124358400D01*
X104407494Y-124358400D01*
X104407494Y-124132975D01*
X104450356Y-124128212D01*
X104496394Y-124126625D01*
X104548781Y-124130594D01*
G37*
%TO.C,kibuzzard-62F38B54*%
G36*
X100620790Y-95686827D02*
G01*
X105119210Y-95686827D01*
X104619306Y-97353173D01*
X100620790Y-97353173D01*
X100620790Y-96685894D01*
X101073823Y-96685894D01*
X101323061Y-96685894D01*
X101323061Y-96962119D01*
X101491336Y-96962119D01*
X101491336Y-96685894D01*
X101740573Y-96685894D01*
X101740573Y-96525556D01*
X101491336Y-96525556D01*
X101491336Y-96249331D01*
X101323061Y-96249331D01*
X101323061Y-96525556D01*
X101073823Y-96525556D01*
X101073823Y-96685894D01*
X100620790Y-96685894D01*
X100620790Y-96244569D01*
X101880273Y-96244569D01*
X101943773Y-96406494D01*
X102040611Y-96367600D01*
X102142211Y-96311244D01*
X102142211Y-96860519D01*
X101935836Y-96860519D01*
X101935836Y-97022444D01*
X102532736Y-97022444D01*
X102532736Y-96860519D01*
X102337473Y-96860519D01*
X102337473Y-96147731D01*
X102666086Y-96147731D01*
X102762923Y-96284256D01*
X102862936Y-96209644D01*
X102959773Y-96187419D01*
X103051848Y-96219963D01*
X103088361Y-96312831D01*
X103058992Y-96396969D01*
X102984379Y-96482694D01*
X102937548Y-96528136D01*
X102887542Y-96575562D01*
X102837536Y-96625966D01*
X102790704Y-96680337D01*
X102749429Y-96739273D01*
X102716092Y-96803369D01*
X102694065Y-96873219D01*
X102686723Y-96949419D01*
X102685929Y-96982756D01*
X102689898Y-97022444D01*
X103331248Y-97022444D01*
X103331248Y-96860519D01*
X102908973Y-96860519D01*
X102925642Y-96808131D01*
X102966123Y-96751775D01*
X103016923Y-96697800D01*
X103064548Y-96652556D01*
X103145511Y-96573181D01*
X103216948Y-96487456D01*
X103267748Y-96396175D01*
X103286798Y-96298544D01*
X103261398Y-96175512D01*
X103193136Y-96087406D01*
X103103658Y-96039781D01*
X103412211Y-96039781D01*
X103430467Y-96128681D01*
X103456661Y-96239806D01*
X103477651Y-96322974D01*
X103500405Y-96409492D01*
X103524923Y-96499362D01*
X103550852Y-96590997D01*
X103577840Y-96682807D01*
X103605886Y-96774794D01*
X103647558Y-96905763D01*
X103686848Y-97022444D01*
X103888461Y-97022444D01*
X103918800Y-96937865D01*
X103948433Y-96851347D01*
X103977361Y-96762888D01*
X104005142Y-96673988D01*
X104031336Y-96586146D01*
X104055942Y-96499362D01*
X104089676Y-96372958D01*
X104119442Y-96252506D01*
X104145040Y-96140587D01*
X104166273Y-96039781D01*
X103961486Y-96039781D01*
X103947198Y-96122331D01*
X103929736Y-96217581D01*
X103909892Y-96320570D01*
X103888461Y-96426337D01*
X103865442Y-96532700D01*
X103840836Y-96637475D01*
X103815436Y-96735702D01*
X103790036Y-96822419D01*
X103764437Y-96734511D01*
X103738442Y-96635887D01*
X103713042Y-96531112D01*
X103689229Y-96424750D01*
X103667203Y-96319181D01*
X103647161Y-96216787D01*
X103630492Y-96122133D01*
X103618586Y-96039781D01*
X103412211Y-96039781D01*
X103103658Y-96039781D01*
X103094711Y-96035019D01*
X102978823Y-96017556D01*
X102896075Y-96025494D01*
X102812929Y-96049306D01*
X102734547Y-96089787D01*
X102666086Y-96147731D01*
X102337473Y-96147731D01*
X102337473Y-96039781D01*
X102204123Y-96039781D01*
X102135861Y-96101694D01*
X102051723Y-96158844D01*
X101962823Y-96208056D01*
X101880273Y-96244569D01*
X100620790Y-96244569D01*
X100620790Y-95686827D01*
G37*
%TO.C,kibuzzard-62F38B4D*%
G36*
X103458327Y-91135994D02*
G01*
X103523415Y-91209812D01*
X103556752Y-91316175D01*
X103566278Y-91440000D01*
X103563301Y-91510048D01*
X103554371Y-91574144D01*
X103514684Y-91679712D01*
X103441659Y-91749562D01*
X103329740Y-91774962D01*
X103312277Y-91774962D01*
X103294815Y-91773375D01*
X103294815Y-91112975D01*
X103323390Y-91109006D01*
X103351965Y-91108212D01*
X103458327Y-91135994D01*
G37*
G36*
X100617695Y-90596508D02*
G01*
X105122305Y-90596508D01*
X104616210Y-92283492D01*
X100617695Y-92283492D01*
X100617695Y-91440000D01*
X101469190Y-91440000D01*
X101476334Y-91559261D01*
X101497765Y-91663044D01*
X101532293Y-91751150D01*
X101578727Y-91823381D01*
X101636473Y-91879737D01*
X101704934Y-91920219D01*
X101783317Y-91944627D01*
X101870827Y-91952762D01*
X101967863Y-91948794D01*
X102049421Y-91936887D01*
X102067543Y-91932125D01*
X102293102Y-91932125D01*
X102469315Y-91932125D01*
X102469315Y-91279662D01*
X102528317Y-91388583D01*
X102584673Y-91497326D01*
X102638384Y-91605894D01*
X102689448Y-91714461D01*
X102737867Y-91823205D01*
X102783640Y-91932125D01*
X102940802Y-91932125D01*
X102940802Y-91921012D01*
X103099552Y-91921012D01*
X103206709Y-91939269D01*
X103309102Y-91944825D01*
X103404948Y-91937880D01*
X103492459Y-91917044D01*
X103570048Y-91881127D01*
X103636128Y-91828937D01*
X103689904Y-91759683D01*
X103730584Y-91672569D01*
X103756182Y-91566405D01*
X103764715Y-91440000D01*
X103756976Y-91316373D01*
X103733759Y-91212194D01*
X103696651Y-91126072D01*
X103647240Y-91056619D01*
X103585526Y-91003636D01*
X103511509Y-90966925D01*
X103427173Y-90945494D01*
X103334502Y-90938350D01*
X103224965Y-90943112D01*
X103099552Y-90962162D01*
X103099552Y-91921012D01*
X102940802Y-91921012D01*
X102940802Y-90949462D01*
X102764590Y-90949462D01*
X102764590Y-91554300D01*
X102736610Y-91492387D01*
X102703471Y-91420950D01*
X102666165Y-91343559D01*
X102625684Y-91263787D01*
X102583020Y-91182627D01*
X102539165Y-91101069D01*
X102494715Y-91022289D01*
X102450265Y-90949462D01*
X102293102Y-90949462D01*
X102293102Y-91932125D01*
X102067543Y-91932125D01*
X102158165Y-91908312D01*
X102158165Y-91417775D01*
X101962902Y-91417775D01*
X101962902Y-91776550D01*
X101924802Y-91781312D01*
X101886702Y-91782900D01*
X101791849Y-91762064D01*
X101723190Y-91699556D01*
X101692322Y-91633675D01*
X101673801Y-91547156D01*
X101667627Y-91440000D01*
X101671001Y-91367173D01*
X101681121Y-91301094D01*
X101725571Y-91193144D01*
X101804152Y-91122500D01*
X101921627Y-91097100D01*
X102026402Y-91114562D01*
X102112127Y-91154250D01*
X102162927Y-90998675D01*
X102130384Y-90979625D01*
X102075615Y-90955812D01*
X101997034Y-90935969D01*
X101894640Y-90927237D01*
X101808518Y-90935373D01*
X101727953Y-90959781D01*
X101655324Y-91000461D01*
X101593015Y-91057412D01*
X101541818Y-91130239D01*
X101502527Y-91218544D01*
X101477524Y-91321930D01*
X101469190Y-91440000D01*
X100617695Y-91440000D01*
X100617695Y-90596508D01*
G37*
%TO.C,kibuzzard-62F38B1C*%
G36*
X100620790Y-82986827D02*
G01*
X105119210Y-82986827D01*
X104619306Y-84653173D01*
X100620790Y-84653173D01*
X100620790Y-83985894D01*
X101073823Y-83985894D01*
X101323061Y-83985894D01*
X101323061Y-84262119D01*
X101491336Y-84262119D01*
X101491336Y-83985894D01*
X101740573Y-83985894D01*
X101740573Y-83825556D01*
X101491336Y-83825556D01*
X101491336Y-83549331D01*
X101323061Y-83549331D01*
X101323061Y-83825556D01*
X101073823Y-83825556D01*
X101073823Y-83985894D01*
X100620790Y-83985894D01*
X100620790Y-83544569D01*
X101880273Y-83544569D01*
X101943773Y-83706494D01*
X102040611Y-83667600D01*
X102142211Y-83611244D01*
X102142211Y-84160519D01*
X101935836Y-84160519D01*
X101935836Y-84322444D01*
X102532736Y-84322444D01*
X102532736Y-84160519D01*
X102337473Y-84160519D01*
X102337473Y-83447731D01*
X102666086Y-83447731D01*
X102762923Y-83584256D01*
X102862936Y-83509644D01*
X102959773Y-83487419D01*
X103051848Y-83519963D01*
X103088361Y-83612831D01*
X103058992Y-83696969D01*
X102984379Y-83782694D01*
X102937548Y-83828136D01*
X102887542Y-83875562D01*
X102837536Y-83925966D01*
X102790704Y-83980337D01*
X102749429Y-84039273D01*
X102716092Y-84103369D01*
X102694065Y-84173219D01*
X102686723Y-84249419D01*
X102685929Y-84282756D01*
X102689898Y-84322444D01*
X103331248Y-84322444D01*
X103331248Y-84160519D01*
X102908973Y-84160519D01*
X102925642Y-84108131D01*
X102966123Y-84051775D01*
X103016923Y-83997800D01*
X103064548Y-83952556D01*
X103145511Y-83873181D01*
X103216948Y-83787456D01*
X103267748Y-83696175D01*
X103286798Y-83598544D01*
X103261398Y-83475512D01*
X103193136Y-83387406D01*
X103103658Y-83339781D01*
X103412211Y-83339781D01*
X103430467Y-83428681D01*
X103456661Y-83539806D01*
X103477651Y-83622974D01*
X103500405Y-83709492D01*
X103524923Y-83799362D01*
X103550852Y-83890997D01*
X103577840Y-83982807D01*
X103605886Y-84074794D01*
X103647558Y-84205763D01*
X103686848Y-84322444D01*
X103888461Y-84322444D01*
X103918800Y-84237865D01*
X103948433Y-84151347D01*
X103977361Y-84062888D01*
X104005142Y-83973988D01*
X104031336Y-83886146D01*
X104055942Y-83799362D01*
X104089676Y-83672958D01*
X104119442Y-83552506D01*
X104145040Y-83440587D01*
X104166273Y-83339781D01*
X103961486Y-83339781D01*
X103947198Y-83422331D01*
X103929736Y-83517581D01*
X103909892Y-83620570D01*
X103888461Y-83726337D01*
X103865442Y-83832700D01*
X103840836Y-83937475D01*
X103815436Y-84035702D01*
X103790036Y-84122419D01*
X103764437Y-84034511D01*
X103738442Y-83935887D01*
X103713042Y-83831112D01*
X103689229Y-83724750D01*
X103667203Y-83619181D01*
X103647161Y-83516787D01*
X103630492Y-83422133D01*
X103618586Y-83339781D01*
X103412211Y-83339781D01*
X103103658Y-83339781D01*
X103094711Y-83335019D01*
X102978823Y-83317556D01*
X102896075Y-83325494D01*
X102812929Y-83349306D01*
X102734547Y-83389787D01*
X102666086Y-83447731D01*
X102337473Y-83447731D01*
X102337473Y-83339781D01*
X102204123Y-83339781D01*
X102135861Y-83401694D01*
X102051723Y-83458844D01*
X101962823Y-83508056D01*
X101880273Y-83544569D01*
X100620790Y-83544569D01*
X100620790Y-82986827D01*
G37*
%TO.C,kibuzzard-62F38B13*%
G36*
X103458327Y-78435994D02*
G01*
X103523415Y-78509812D01*
X103556752Y-78616175D01*
X103566278Y-78740000D01*
X103563301Y-78810048D01*
X103554371Y-78874144D01*
X103514684Y-78979712D01*
X103441659Y-79049562D01*
X103329740Y-79074962D01*
X103312277Y-79074962D01*
X103294815Y-79073375D01*
X103294815Y-78412975D01*
X103323390Y-78409006D01*
X103351965Y-78408212D01*
X103458327Y-78435994D01*
G37*
G36*
X100617695Y-77896508D02*
G01*
X105122305Y-77896508D01*
X104616210Y-79583492D01*
X100617695Y-79583492D01*
X100617695Y-78740000D01*
X101469190Y-78740000D01*
X101476334Y-78859261D01*
X101497765Y-78963044D01*
X101532293Y-79051150D01*
X101578727Y-79123381D01*
X101636473Y-79179737D01*
X101704934Y-79220219D01*
X101783317Y-79244627D01*
X101870827Y-79252762D01*
X101967863Y-79248794D01*
X102049421Y-79236887D01*
X102067543Y-79232125D01*
X102293102Y-79232125D01*
X102469315Y-79232125D01*
X102469315Y-78579662D01*
X102528317Y-78688583D01*
X102584673Y-78797326D01*
X102638384Y-78905894D01*
X102689448Y-79014461D01*
X102737867Y-79123205D01*
X102783640Y-79232125D01*
X102940802Y-79232125D01*
X102940802Y-79221012D01*
X103099552Y-79221012D01*
X103206709Y-79239269D01*
X103309102Y-79244825D01*
X103404948Y-79237880D01*
X103492459Y-79217044D01*
X103570048Y-79181127D01*
X103636128Y-79128937D01*
X103689904Y-79059683D01*
X103730584Y-78972569D01*
X103756182Y-78866405D01*
X103764715Y-78740000D01*
X103756976Y-78616373D01*
X103733759Y-78512194D01*
X103696651Y-78426072D01*
X103647240Y-78356619D01*
X103585526Y-78303636D01*
X103511509Y-78266925D01*
X103427173Y-78245494D01*
X103334502Y-78238350D01*
X103224965Y-78243112D01*
X103099552Y-78262162D01*
X103099552Y-79221012D01*
X102940802Y-79221012D01*
X102940802Y-78249462D01*
X102764590Y-78249462D01*
X102764590Y-78854300D01*
X102736610Y-78792387D01*
X102703471Y-78720950D01*
X102666165Y-78643559D01*
X102625684Y-78563787D01*
X102583020Y-78482627D01*
X102539165Y-78401069D01*
X102494715Y-78322289D01*
X102450265Y-78249462D01*
X102293102Y-78249462D01*
X102293102Y-79232125D01*
X102067543Y-79232125D01*
X102158165Y-79208312D01*
X102158165Y-78717775D01*
X101962902Y-78717775D01*
X101962902Y-79076550D01*
X101924802Y-79081312D01*
X101886702Y-79082900D01*
X101791849Y-79062064D01*
X101723190Y-78999556D01*
X101692322Y-78933675D01*
X101673801Y-78847156D01*
X101667627Y-78740000D01*
X101671001Y-78667173D01*
X101681121Y-78601094D01*
X101725571Y-78493144D01*
X101804152Y-78422500D01*
X101921627Y-78397100D01*
X102026402Y-78414562D01*
X102112127Y-78454250D01*
X102162927Y-78298675D01*
X102130384Y-78279625D01*
X102075615Y-78255812D01*
X101997034Y-78235969D01*
X101894640Y-78227237D01*
X101808518Y-78235373D01*
X101727953Y-78259781D01*
X101655324Y-78300461D01*
X101593015Y-78357412D01*
X101541818Y-78430239D01*
X101502527Y-78518544D01*
X101477524Y-78621930D01*
X101469190Y-78740000D01*
X100617695Y-78740000D01*
X100617695Y-77896508D01*
G37*
D11*
%TO.C,JSTEP1*%
X101600000Y-133350000D02*
X121920000Y-133350000D01*
X121920000Y-133350000D02*
X121920000Y-125730000D01*
X101600000Y-125730000D02*
X121920000Y-125730000D01*
X101600000Y-125730000D02*
X101600000Y-133350000D01*
X121920000Y-132080000D02*
X101600000Y-132080000D01*
%TO.C,JI2C1*%
X142240000Y-67310000D02*
X132080000Y-67310000D01*
X142240000Y-73660000D02*
X132080000Y-73660000D01*
X132080000Y-74930000D02*
X142240000Y-74930000D01*
X132080000Y-67310000D02*
X132080000Y-74930000D01*
X142240000Y-74930000D02*
X142240000Y-67310000D01*
%TO.C,JSTEP2*%
X124460000Y-125730000D02*
X124460000Y-133350000D01*
X144780000Y-132080000D02*
X124460000Y-132080000D01*
X144780000Y-133350000D02*
X144780000Y-125730000D01*
X124460000Y-133350000D02*
X144780000Y-133350000D01*
X124460000Y-125730000D02*
X144780000Y-125730000D01*
%TO.C,A2*%
X124330000Y-118100000D02*
X124330000Y-119500000D01*
X127000000Y-116830000D02*
X127000000Y-119500000D01*
X127000000Y-119500000D02*
X144910000Y-119500000D01*
X124330000Y-119500000D02*
X125730000Y-119500000D01*
X124330000Y-104000000D02*
X124330000Y-116830000D01*
X144910000Y-119500000D02*
X144910000Y-104000000D01*
X144910000Y-104000000D02*
X124330000Y-104000000D01*
X124330000Y-106670000D02*
X144910000Y-106670000D01*
X127000000Y-116830000D02*
X144910000Y-116830000D01*
X124330000Y-116830000D02*
X127000000Y-116830000D01*
%TO.C,A1*%
X101470000Y-116830000D02*
X104140000Y-116830000D01*
X104140000Y-119500000D02*
X122050000Y-119500000D01*
X122050000Y-119500000D02*
X122050000Y-104000000D01*
X101470000Y-104000000D02*
X101470000Y-116830000D01*
X101470000Y-119500000D02*
X102870000Y-119500000D01*
X104140000Y-116830000D02*
X122050000Y-116830000D01*
X101470000Y-106670000D02*
X122050000Y-106670000D01*
X101470000Y-118100000D02*
X101470000Y-119500000D01*
X122050000Y-104000000D02*
X101470000Y-104000000D01*
X104140000Y-116830000D02*
X104140000Y-119500000D01*
%TO.C,JLED1*%
X99060000Y-88900000D02*
X99060000Y-99060000D01*
X92710000Y-99060000D02*
X100330000Y-99060000D01*
X100330000Y-88900000D02*
X92710000Y-88900000D01*
X92710000Y-88900000D02*
X92710000Y-99060000D01*
X100330000Y-99060000D02*
X100330000Y-88900000D01*
%TO.C,JV1*%
X92710000Y-86360000D02*
X100330000Y-86360000D01*
X92710000Y-76200000D02*
X92710000Y-86360000D01*
X100330000Y-86360000D02*
X100330000Y-76200000D01*
X99060000Y-76200000D02*
X99060000Y-86360000D01*
X100330000Y-76200000D02*
X92710000Y-76200000D01*
%TO.C,N1*%
X149860000Y-82550000D02*
X149860000Y-79880000D01*
X149860000Y-95250000D02*
X149860000Y-97920000D01*
X109090000Y-79880000D02*
X109090000Y-97920000D01*
X114300000Y-95250000D02*
X114300000Y-97920000D01*
X111760000Y-95250000D02*
X111760000Y-97920000D01*
X114300000Y-95250000D02*
X111760000Y-95250000D01*
X152530000Y-97920000D02*
X152530000Y-79880000D01*
X109090000Y-97920000D02*
X111760000Y-97920000D01*
X114300000Y-95250000D02*
X149860000Y-95250000D01*
X111760000Y-82550000D02*
X111760000Y-79880000D01*
X114300000Y-97920000D02*
X152530000Y-97920000D01*
X152530000Y-79880000D02*
X109090000Y-79880000D01*
X111760000Y-82550000D02*
X149860000Y-82550000D01*
%TO.C,JPIR1*%
X129540000Y-73660000D02*
X109220000Y-73660000D01*
X129540000Y-74930000D02*
X129540000Y-67310000D01*
X109220000Y-74930000D02*
X129540000Y-74930000D01*
X109220000Y-67310000D02*
X129540000Y-67310000D01*
X109220000Y-67310000D02*
X109220000Y-74930000D01*
%TD*%
M02*
